<svg id="os-defs" version="1.1" xmlns="http://www.w3.org/2000/svg" xmlns:xlink="http://www.w3.org/1999/xlink">
    <defs>

        <!-- Mac -->
        <g id="os-shape-macintosh">
            <path d="M24.734 17.003c-0.040-4.053 3.305-5.996 3.454-6.093-1.88-2.751-4.808-3.127-5.851-3.171-2.492-0.252-4.862 1.467-6.127 1.467-1.261 0-3.213-1.43-5.28-1.392-2.716 0.040-5.221 1.579-6.619 4.012-2.822 4.897-0.723 12.151 2.028 16.123 1.344 1.944 2.947 4.127 5.051 4.049 2.026-0.081 2.793-1.311 5.242-1.311s3.138 1.311 5.283 1.271c2.18-0.041 3.562-1.981 4.897-3.931 1.543-2.255 2.179-4.439 2.216-4.551-0.048-0.022-4.252-1.632-4.294-6.473zM20.705 5.11c1.117-1.355 1.871-3.235 1.665-5.11-1.609 0.066-3.559 1.072-4.713 2.423-1.036 1.199-1.942 3.113-1.699 4.951 1.796 0.14 3.629-0.913 4.747-2.264z" class="highlight"></path>
        </g>

        <!-- Linux -->
        <g id="os-shape-linux">
            <path d="M17.739 23.029c-2.561 1.191-4.942 1.179-6.542 1.063-1.908-0.138-3.442-0.66-4.117-1.117-0.416-0.281-0.981-0.173-1.262 0.243s-0.173 0.981 0.243 1.262c1.084 0.734 3.002 1.28 5.005 1.424 0.34 0.024 0.712 0.040 1.114 0.040 1.743 0 3.957-0.166 6.326-1.268 0.455-0.212 0.652-0.752 0.441-1.207s-0.752-0.652-1.208-0.441zM27.842 21.682c0.087-7.896 0.899-22.819-14.218-21.613-14.925 1.201-10.968 16.968-11.19 22.248-0.197 2.793-1.124 6.208-2.434 9.683h4.034c0.415-1.473 0.72-2.929 0.851-4.317 0.243 0.17 0.503 0.334 0.781 0.491 0.452 0.266 0.84 0.62 1.251 0.995 0.961 0.876 2.050 1.868 4.179 1.992 0.143 0.008 0.287 0.012 0.427 0.012 2.153 0 3.625-0.942 4.809-1.699 0.567-0.363 1.057-0.676 1.518-0.827 1.31-0.41 2.454-1.072 3.309-1.914 0.134-0.131 0.258-0.267 0.374-0.405 0.476 1.746 1.129 3.711 1.853 5.672h8.614c-2.068-3.195-4.201-6.324-4.158-10.318zM3.878 17.386c0-0 0-0.001-0-0.001-0.148-2.577 1.085-4.745 2.754-4.842s3.142 1.913 3.291 4.49c0 0 0 0.001 0 0.001 0.008 0.139 0.011 0.276 0.012 0.413-0.529 0.133-1.006 0.326-1.434 0.551-0.002-0.019-0.003-0.038-0.005-0.057 0-0 0-0.001 0-0.001-0.143-1.463-0.924-2.567-1.745-2.467s-1.371 1.367-1.228 2.83c0 0 0 0.001 0 0.001 0.062 0.638 0.246 1.207 0.501 1.639-0.064 0.050-0.243 0.182-0.45 0.333-0.155 0.114-0.344 0.252-0.572 0.42-0.621-0.815-1.047-1.987-1.123-3.309zM20.789 23.756c-0.059 1.362-1.841 2.643-3.487 3.158l-0.009 0.003c-0.684 0.222-1.295 0.613-1.941 1.026-1.085 0.695-2.208 1.413-3.829 1.413-0.106 0-0.215-0.003-0.323-0.009-1.485-0.087-2.179-0.72-3.059-1.521-0.464-0.423-0.943-0.86-1.562-1.223l-0.013-0.008c-1.335-0.753-2.163-1.69-2.216-2.506-0.026-0.406 0.154-0.757 0.537-1.044 0.832-0.624 1.39-1.032 1.759-1.302 0.41-0.3 0.533-0.39 0.625-0.477 0.066-0.062 0.136-0.131 0.213-0.205 0.764-0.743 2.043-1.986 4.005-1.986 1.2 0 2.528 0.462 3.943 1.372 0.666 0.434 1.246 0.634 1.981 0.887 0.505 0.174 1.077 0.372 1.843 0.7l0.012 0.005c0.715 0.294 1.559 0.83 1.521 1.717zM20.395 20.556c-0.137-0.069-0.28-0.135-0.43-0.196-0.691-0.296-1.245-0.496-1.704-0.656 0.254-0.497 0.411-1.116 0.426-1.789 0-0 0-0.001 0-0.001 0.035-1.637-0.79-2.966-1.844-2.968s-1.936 1.322-1.971 2.959c0 0 0 0.001 0 0.001-0.001 0.054-0.001 0.107-0.001 0.16-0.649-0.299-1.287-0.515-1.911-0.649-0.003-0.061-0.006-0.123-0.008-0.185 0-0 0-0.001 0-0.002-0.061-2.982 1.769-5.45 4.086-5.513s4.245 2.303 4.305 5.285c0 0.001 0 0.001 0 0.002 0.027 1.348-0.333 2.59-0.949 3.552z" class="highlight"></path>
        </g>

        <!-- Windows -->
        <g id="os-shape-windows">
        	<path d="M0.011 16l-0.011-9.752 12-1.63v11.382zM14 4.328l15.996-2.328v14h-15.996zM30 18l-0.004 14-15.996-2.25v-11.75zM12 29.495l-11.99-1.644-0.001-9.851h11.991z" class="highlight"></path>
        </g>

    </defs>
</svg>
