<?xml version="1.0" encoding="UTF-8" standalone="no"?>
<svg width="444px" height="827px" viewBox="0 0 444 827" version="1.1" xmlns="http://www.w3.org/2000/svg" xmlns:xlink="http://www.w3.org/1999/xlink" xmlns:sketch="http://www.bohemiancoding.com/sketch/ns">
    <!-- Generator: Sketch 3.1 (8751) - http://www.bohemiancoding.com/sketch -->
    <title>mobile-shape-4</title>
    <desc>Created with Sketch.</desc>
    <defs>
        <path id="path-1" d="M16.1132812,14.1210938 L0.15625,17.9609375 C0.15625,17.9609375 0.94921875,37.8046875 17,58.9960937 C33.0507812,80.1875 54.5898438,95.2851562 65.6640625,101.078125 C76.7382812,106.871094 98.6821035,95.9634647 111.539062,82.9335938 C118.074219,76.3105469 141.457031,43.453125 141.457031,26.4960937 C141.457031,9.5390625 133.285156,-0.23046875 118.074219,-0.23046875 C102.863281,-0.23046875 16.1132812,14.1210938 16.1132812,14.1210938 Z"></path>
        <path id="path-3" d="M8.61328125,104.300781 C8.61328125,104.300781 0.984375,184.371094 0.984375,190.605469 C0.984375,196.839844 -3.06640625,205.21875 2.7734375,212.148438 C8.61328125,219.078125 11.8710941,227.105469 22.734375,227.105469 C33.5976559,227.105469 54.9335941,229.5 62.609375,220.824219 C70.2851559,212.148438 91.3632816,192.273438 101.085937,175.109375 C110.808593,157.945312 127.49891,120.344954 139.355476,105.668945 C148.677742,94.1298828 169.010742,88.0058594 174.547859,83.8652344 C180.084976,79.7246094 192.171868,72.2519531 195.242188,64.7734375 C198.312507,57.2949219 212.501946,34.9375 212.501953,30.6699219 C212.50196,26.4023438 209.663086,25.6816406 209.663086,25.6816406 C209.663086,25.6816406 212.081047,23.5419922 210.87207,20.796875 C209.663093,18.0517578 208.37793,16.5048828 208.37793,16.5048828 L205.574219,16.7148438 C205.574219,16.7148438 209.524407,13.8701172 208.139648,10.6660156 C206.75489,7.46191406 203.614258,5.77636719 203.614258,5.77636719 L201.108398,6.46191406 C201.108398,6.46191406 201.446282,3.75878906 199.712891,2.36230469 C197.979499,0.965820312 194.350586,0.442382812 194.350586,0.442382812 C194.350586,0.442382812 186.238274,4.58300781 183.533203,6.18847656 C180.828132,7.79394531 149.108391,30.0683594 145.927734,30.0683594 C142.747078,30.0683594 132.551751,33.5820312 130.469727,27.1894531 C128.387703,20.796875 124.811523,4.51660156 124.811523,4.51660156 C124.811523,4.51660156 124.125,2.609375 120.507812,2.609375 C116.890625,2.609375 114.97168,5.04003906 114.97168,5.04003906 C114.97168,5.04003906 116.332032,7.69335937 116.332031,12.03125 C116.332031,16.3691406 113.822754,27.4765625 115.567871,36.9267578 C117.312988,46.3769531 122.316894,58.2626953 118.500977,64.96875 C111.443757,77.3710364 79.0097659,119.630859 73.1992188,122.986328 C67.3886716,126.341797 56.2773438,135.664062 56.2773438,135.664062 L59.0341797,121.578125 L8.61328125,104.300781 Z"></path>
        <path d="M83.1859952,216.579305 L83.5800781,223.207031 C83.5800781,223.207031 123.90625,229.488281 145.623047,229.488281 C167.339844,229.488281 189.3125,227.720703 202.78125,224.080078 C216.25,220.439453 222.263672,217.542969 222.263672,217.542969 L222.818764,210.331154 C225.722474,216.695803 228.069407,223.89938 228.890625,231.535156 C231.681641,257.486328 238.613281,269.550781 227.667969,299.082031 C216.722656,328.613281 208.371094,337.605469 208.371094,337.605469 C208.371094,337.605469 232.798828,341.546875 258.923828,333.021484 C285.048828,324.496094 302.958984,311.771484 302.958984,311.771484 C302.958984,311.771484 311.833984,229.359375 308.716797,178.658203 C305.599609,127.957031 297.726562,76.7148438 267.716797,50.8574219 C237.707031,25 185.794922,0.353515625 170.185547,0.353515625 C154.576172,0.353515625 142.015625,5.73828125 139.816406,5.73828125 C137.617188,5.73828125 132.927734,6.34375 120.460937,6.34375 C107.994141,6.34375 97.1757812,2.57617187 83.0664062,10.2050781 C68.9570312,17.8339844 37.8769531,30.7695313 20.6035156,77.4824219 C3.33007813,124.195312 -9.69531251,222.542969 10.796875,302.964844 C10.796875,302.964844 18.9492188,321.785156 61.2773438,328.613281 C103.605469,335.441406 110.910156,336.859375 110.910156,336.859375 C110.910156,336.859375 74.2460938,296.382812 74.2460938,269.908203 C74.2460938,244.797089 79.1115755,223.590308 83.1859952,216.579305 Z" id="path-5"></path>
    </defs>
    <g id="Page-1" stroke="none" stroke-width="1" fill="none" fill-rule="evenodd" sketch:type="MSPage">
        <g id="mobile" sketch:type="MSLayerGroup" transform="translate(-1669.000000, -124.000000)">
            <g id="mobile-shape-4" transform="translate(1540.000000, 0.000000)">
                <rect id="bg-4" sketch:type="MSShapeGroup" x="0" y="0" width="700" height="1000"></rect>
                <path d="M232.203125,415.902344 L437.339844,420.488281 L457.582031,374.425781 L432.457031,285.535156 L238.484375,256.222656 L220.339844,348.160156 L232.203125,415.902344 Z" id="hairs-back" fill="#222222" sketch:type="MSShapeGroup"></path>
                <g id="t-shirt" transform="translate(129.000000, 402.000000)" sketch:type="MSShapeGroup">
                    <path d="M126.296875,10.5195312 C126.296875,10.5195312 91.0507812,23.03125 76.4882812,32.8515625 C61.9257812,42.671875 58.6015625,45.0664062 53.8085937,54.9296875 C49.015625,64.7929688 16.125,210.816406 11.5859375,224.984375 C7.046875,239.152344 0.46484375,247.082031 0.46484375,247.082031 C0.46484375,247.082031 13.3320313,256.457031 31.3828125,264.484375 C49.4335937,272.511719 71.71875,277.488281 77.953125,277.488281 C84.1875,277.488281 104.285156,280.980469 104.285156,280.980469 C104.285156,280.980469 91.7695312,409.628906 87.5820312,437.960938 C83.3945312,466.292969 80.2539062,507.027344 80.2539062,507.027344 C80.2539062,507.027344 72.8320313,516.40625 92.375,526.523438 C111.917969,536.640625 204.484375,559.320312 280.160156,542.921875 C355.835938,526.523438 367.09375,528.011719 367.09375,517.519531 C367.09375,507.027344 356.765625,462.199219 356.765625,434.5625 C356.765625,406.925781 344.25,280.441406 344.25,280.441406 C344.25,280.441406 357.554687,277.648438 372.375,271.066406 C387.195312,264.484375 399.6875,261.996094 410.015625,257.203125 C420.34375,252.410156 423.396729,250.692139 423.396729,250.692139 C423.396729,250.692139 427.589085,246.272983 426.736572,243.740723 C421.595951,228.47127 404.092979,174.295699 398.105469,161.804688 C391.125,147.242188 373.421875,71.4726562 373.421875,61.1445312 C373.421875,50.8164062 363.09375,39.046875 356.464844,33.859375 C349.835938,28.671875 313.765625,0.28515625 290.855469,0.28515625 C267.945312,0.28515625 126.296875,10.5195312 126.296875,10.5195312 Z" fill="#999999"></path>
                    <path d="M108.117188,14.0097656 C108.117188,14.0097656 86.0742187,34.8984375 78.5722656,39.9355469 C71.0703125,44.9726562 65.2421875,63.5839844 61.078125,77.0761719 C56.9140625,90.5683594 41.3378906,166.419922 37.5,180.703125 C33.6621094,194.986328 24.0429687,224.242188 20.5761719,230.626953 C17.109375,237.011719 12.1210938,242.072266 12.1210938,242.072266 C12.1210938,242.072266 34.8554688,250.851562 43.90625,255.039062 C52.9570313,259.226562 71.3769531,264.832031 74.9746094,268.625 C78.5722656,272.417969 63.0859375,247.330078 63.0859375,238.978516 C63.0859375,230.626953 74.4609375,173.931641 78.5722656,156.285156 C82.6835938,138.638672 90.2158203,109.105469 90.2158203,109.105469 C90.2158203,109.105469 90.8535156,122.640625 88.5605469,151.671875 C86.2675781,180.703125 84.8730469,240.667969 84.8730469,247.853516 C84.8730469,255.039062 85.4667969,268.417969 85.4667969,268.417969 C85.4667969,268.417969 85.9628906,271.713867 87.2617188,274.03418 C88.5605469,276.354492 90.2158203,283.210938 90.2158203,283.210938 L98.9072266,352.100586 C98.9072266,352.100586 97.8603516,384.415039 97.8603516,391.084961 C97.8603516,397.754883 88.0820313,475.762695 88.0820313,482.741211 C88.0820313,489.719727 85.8886719,507.831055 85.8886719,507.831055 C85.8886719,507.831055 83.25,509.126953 84.5693359,511.185547 C85.8886719,513.244141 85.8652344,516.873047 95.7001953,521.833984 C105.535156,526.794922 159.959961,539.782227 168.648438,541.614258 C177.336914,543.446289 278.444336,547.083984 294.80957,543.356445 C311.174805,539.628906 322.759766,539.328125 322.759766,539.328125 C322.759766,539.328125 208.875,516.296875 206.78125,498.5 C204.6875,480.703125 159.707031,360 177.875,305.773438 C196.042969,251.546875 178.875,235.923828 207.488281,238.998047 C236.101562,242.072266 269.787109,231.914062 269.787109,231.914062 L178.328125,206.441406 L195.423828,109.105469 L223.367188,101.662109 C223.367188,101.662109 238.022461,93.2119141 240.977539,89.2978516 C243.932617,85.3837891 246.950195,80.0966797 246.950195,80.0966797 C246.950195,80.0966797 232.672852,91.9150391 217.40625,89.8847656 C202.139648,87.8544922 146.15332,46.0830078 141.704102,36.9228516 C137.254883,27.7626953 126.762695,8.40722656 126.762695,8.40722656 L108.117188,14.0097656 Z" id="t-shirt-shadow" fill-opacity="0.0899999961" fill="#000000"></path>
                    <path d="M29.3828125,254.978516 C29.3828125,254.978516 22.7060547,252.535156 17.390625,250.279297 C12.0751953,248.023438 7.609375,246.27832 7.609375,246.27832 C7.609375,246.27832 5.50390625,247.150391 11.4472656,251.064453 C17.390625,254.978516 21.1601565,258.257812 25.2714844,259.991211 C29.3828122,261.724609 30.0551758,262.277832 30.0551758,262.277832 L30.6035156,255.141846 L29.3828125,254.978516 Z" id="t-shirt-shadow-2" fill-opacity="0.22" fill="#000000"></path>
                    <path d="M81.0983887,272.578613 L86.5273438,273.709717 C86.5273438,273.709717 86.9865723,276.261475 85.567627,276.757324 C84.1486816,277.253174 80.3190918,276.863525 80.3190918,276.863525 L81.0983887,272.578613 Z" id="t-shirt-shadow-3" fill-opacity="0.22" fill="#000000"></path>
                    <path d="M404.260742,250.932617 L424.121094,243.214844 C424.121094,243.214844 421.848389,249.559326 417.913818,251.590576 C413.979248,253.621826 406.120605,256.430664 406.120605,256.430664 L404.260742,250.932617 Z" id="t-shirt-shadow-4" fill-opacity="0.22" fill="#000000"></path>
                    <path d="M343.769775,276.602295 L340.907227,278.194092 C340.907227,278.194092 341.374023,278.788818 342.667969,279.238037 C343.961914,279.687256 345.327148,279.621826 345.327148,279.621826 L343.769775,276.602295 Z" id="t-shirt-shadow-5" fill-opacity="0.22" fill="#000000"></path>
                    <path d="M308.500001,226.039062 C313.629394,224.330078 320.712891,220.794922 320.712891,220.794922 C320.712891,220.794922 324.320312,216.865722 323.697754,212.803222 C323.075195,208.740722 324.254393,208.943847 325.775391,214.553222 C327.296389,220.162597 329.832031,233.242188 329.832031,239.976563 C329.832031,246.710938 334.541016,273.765625 336.763672,273.765625 C338.986328,273.765625 371.472656,259.355469 371.472656,259.355469 C371.472656,259.355469 411.207031,240.511719 413.951172,240.511719 C416.695313,240.511719 375.265625,258.435547 361.830078,236.474609 C348.394531,214.513672 329.230469,167.410156 325.775391,154.743164 C322.320312,142.076172 316.708496,121.402832 313.629395,115.500001 C310.550293,109.597169 302.637207,101.556746 302.637207,110.189941 C302.637207,112.910156 305.855469,126.146484 305.855469,134.137695 C305.855469,148.778983 305.335938,178.617188 308.5,190.412109 C311.664062,202.20703 313.191895,221.807617 307.402344,224.483398 C301.612793,227.159179 303.370607,227.748047 308.500001,226.039062 Z" id="t-shirt-shadow-6" fill-opacity="0.0899999961" fill="#000000"></path>
                </g>
                <g id="head" transform="translate(232.000000, 220.000000)" sketch:type="MSShapeGroup">
                    <ellipse fill="#DADADA" cx="109" cy="99" rx="109" ry="99"></ellipse>
                    <path d="M122.15625,97.5585938 C122.15625,97.5585938 92.1445312,129.710938 102.660156,152.296875 C113.175781,174.882812 166.845704,174.990234 176.894531,172.396484 C186.943359,169.802734 192.550781,165.091797 192.550781,165.091797 C192.550781,165.091797 183.650391,181.470703 173.904297,187.378906 C164.158202,193.287109 103.091797,212.828125 103.091797,212.828125 L28.7871094,185.958984 L3.81445312,142.583984 L34.8710938,86.9257812 L122.15625,97.5585938 Z" id="head-shadow" fill-opacity="0.06" fill="#000000"></path>
                </g>
                <g id="neck" transform="translate(272.000000, 390.000000)">
                    <mask id="mask-2" sketch:name="neck" fill="white">
                        <use xlink:href="#path-1"></use>
                    </mask>
                    <use fill="#DADADA" sketch:type="MSShapeGroup" xlink:href="#path-1"></use>
                    <path d="M114.085109,2.96089999 C118.768439,3.35843671 125.567871,3.8359375 131.633789,2.96090007 C137.699707,2.08586264 140.316406,5.1875 140.316406,5.1875 C140.316406,5.1875 131.986328,18.6210938 120.669922,24.6816406 C109.353516,30.7421875 102.572266,50.609375 102.572266,55.796875 C102.572266,60.984375 98.5371094,76.4902344 113.494141,72.5234375 C128.451172,68.5566406 118.181641,83.3867188 118.181641,83.3867188 L83.9257812,106.173828 L33.8984375,98.671875 L12.7871094,55.0996094 L-10.2207031,34.1621094 L-5.50976562,15.1679688 L45.4140625,0.3359375 L97.6049805,1.56201172 L114.085109,2.96089999 Z" id="neck-shadow" fill-opacity="0.06" fill="#000000" sketch:type="MSShapeGroup" mask="url(#mask-2)"></path>
                </g>
                <g id="mobile" transform="translate(289.000000, 497.000000)" sketch:type="MSShapeGroup">
                    <path d="M3.0011061,0 C1.34364097,0 0.08711721,1.35031676 0.193789974,3.00374459 L7.80621003,120.996255 C7.91323727,122.655178 9.34316503,124 11.0033731,124 L103.996627,124 C105.655344,124 107.128653,122.670581 107.289207,121.011525 L118.710793,2.9884746 C118.870518,1.33798565 117.663574,0 115.998894,0 L3.0011061,0 Z" fill="#D0011B"></path>
                    <path d="M2.95881693,3.73273111 C1.30475185,3.69750319 0.05274225,4.99973861 0.163515556,6.65843055 L7.80035162,121.010515 C7.91061437,122.661562 9.34316503,124 11.0033731,124 L103.996627,124 C105.655344,124 107.087659,122.655755 107.19581,120.99726 L114.49169,9.11504455 C114.599833,7.45667715 113.339373,6.08359264 111.69255,6.04851895 L2.95881693,3.73273111 Z" id="mobile-shadow" fill-opacity="0.16" fill="#000000"></path>
                </g>
                <g id="right-arm" transform="translate(169.000000, 549.000000)">
                    <mask id="mask-4" sketch:name="right-arm" fill="white">
                        <use xlink:href="#path-3"></use>
                    </mask>
                    <use fill="#DADADA" sketch:type="MSShapeGroup" xlink:href="#path-3"></use>
                    <path d="M16.7929688,102.396484 C16.7929688,102.396484 8.48828125,191.890625 8.48828125,196.03125 C8.48828125,200.171875 11.0351562,210.736328 15.1992188,214.677734 C19.3632812,218.619141 28.4375,228.740234 32.9257812,228.740234 C37.4140625,228.740234 64.7148438,225.447266 64.7148438,225.447266 C64.7148438,225.447266 74.3789062,217.248047 76.7988281,210.664063 C79.21875,204.080078 107.810059,159.03125 112.171387,143.154297 C116.532715,127.277344 131.904297,108.761719 140.162109,99.3867188 C148.419922,90.0117188 172.591797,82.7363281 176.15625,80.4677734 C179.720703,78.1992188 191.210938,67.1708984 194.883789,59.8798828 C198.556641,52.5888672 205.75,38.5898438 207.408203,34.5771484 C209.066406,30.5644531 209.778076,29.0830078 209.778076,29.0830078 C209.778076,29.0830078 208.955566,27.855957 208.181885,28.4694824 C207.408203,29.0830078 201.288818,33.9597168 201.288818,33.9597168 C201.288818,33.9597168 208.278076,25.2795409 209.028076,24.0581055 C209.778076,22.8366701 208.096191,19.5087891 208.096191,19.5087891 C208.096191,19.5087891 206.722412,17.2683105 204.272461,18.5273438 C201.82251,19.786377 193.431641,25.5949707 193.431641,25.5949707 C193.431641,25.5949707 205.364502,14.3005372 205.623291,13.6491699 C205.88208,12.9978026 204.616943,8.92236328 203.48584,8.26806641 C202.354736,7.61376953 199.516602,8.98754883 199.516602,8.98754883 L189.381104,15.5095215 C189.381104,15.5095215 199.479004,6.43115241 199.479004,5.82617188 C199.479004,5.22119134 198.088867,3.01855469 196.714844,2.62890625 C195.34082,2.23925781 190.192627,1.37988281 190.192627,1.37988281 L170.789551,12.7553711 L146.033691,30.4553223 C146.033691,30.4553223 144.098389,32.4904785 138.689697,33.2250977 C133.281006,33.9597168 127.388184,31.7832031 126.527344,28.4243164 C125.666504,25.0654297 123.73584,13.9111328 123.136719,12.5703125 C122.537598,11.2294922 121.354492,6.54931641 116.922852,7.40869141 C112.491211,8.26806641 111.63623,11.1918945 111.63623,11.1918945 L112.171387,39.0351562 L114.572266,67.5561523 C114.572266,67.5561523 87.6240234,109.711914 84.0039062,114.422852 C80.3837891,119.133789 68.5507812,132.181641 64.0200195,135.060547 C59.4892578,137.939453 53.5541992,140.546875 49.3608398,143.154297 C45.1674805,145.761719 39.0668945,150.553223 39.0668945,150.553223 C39.0668945,150.553223 45.5229492,142.588379 46.5258789,140.418945 C47.5288086,138.249512 48.3837891,115.567383 48.3837891,115.567383 L16.7929688,102.396484 Z" id="right-arm-shadow" fill-opacity="0.06" fill="#000000" sketch:type="MSShapeGroup" mask="url(#mask-4)"></path>
                </g>
                <g id="left-arm" transform="translate(317.000000, 551.000000)" sketch:type="MSShapeGroup">
                    <path d="M234.137695,97.8144556 C234.137695,97.8144556 239.25,112.982422 243.9375,123.183594 C248.625,133.384766 257.529297,169.365229 254.935547,177.320307 C252.341797,185.275386 239.342773,205.458003 234.137695,207.591792 C229.045021,209.679502 209.093706,218.340125 195.947266,215.560547 C181.527344,212.511714 168.25,216.5625 151.769531,194.369141 C135.289062,172.175781 70.9375,94.6210963 61.0273438,85.8808619 C51.1171875,77.1406275 44.328498,78.7424035 29.9941406,67.7587916 C24.5380859,63.5781237 6.31152344,26.4755859 3.95605469,22.1376953 C1.60058594,17.7998047 0.0302734375,15.8916016 0.0302734375,13.8095703 C0.0302734375,11.7275391 3.12402344,10.5068359 3.12402344,10.5068359 L6.28222656,11.0302734 C6.28222656,11.0302734 3.71191406,5.91796875 4.99707031,5.91796875 C6.28222656,5.91796875 8.70117187,1.55664062 10.7714844,3.73730469 C12.8417969,5.91796875 14.2900391,6.66796875 14.2900391,6.66796875 L18.0644531,10.1982422 L15.0576172,3.21386719 C15.0576172,3.21386719 17.3896484,-0.676757803 19.2216797,0.370117187 C21.0537109,1.41699218 28.8066406,7.09863315 32.0224609,9.85546875 C35.2382812,12.6123043 48.6728516,8.18652344 48.6728516,8.18652344 C48.6728516,8.18652344 58.921875,28.6035156 68.84375,39.0253893 C78.765625,49.447263 86.9296875,53.4560547 86.9296875,53.4560547 C86.9296875,53.4560547 87.171875,58.7451147 91.4707031,63.578125 C95.7695312,68.4111353 144.478516,105.276372 160.245117,118.972656 C176.011719,132.66894 180.325195,136.055664 180.325195,136.055664 L173.707031,123.592773 L234.137695,97.8144556 Z" fill="#DADADA"></path>
                    <path d="M87.3281258,59.3413086 C87.3281258,59.3413086 90.9980457,49.8525391 90.9980457,42.2978516 C90.9980457,34.7431641 91.6220692,30.3144531 90.9980457,26.1220703 C90.6969275,24.0990651 89.5091805,17.6299091 89.9213856,14.1201172 C90.3252526,10.6813202 90.9980457,7.3125 90.9980457,7.3125 C90.9980457,7.3125 90.4335945,5.046875 87.3281258,5.046875 C84.222657,5.046875 81.7685547,5.87597656 81.7685547,5.87597656 L80.1562508,26.1220703 C80.1562508,26.1220703 76.5410156,33.4267578 69.7597656,33.4267578 C62.9785156,33.4267578 57.2558594,33.4501953 57.2558594,33.4501953 C57.2558594,33.4501953 51.9335938,45.1123047 65.0195313,52.0957031 C78.1054688,59.0791016 87.3281258,59.3413086 87.3281258,59.3413086 Z" id="left-arm-thumb" fill="#DADADA"></path>
                    <path d="M163.587891,134.298828 C163.587891,134.298828 180.063477,143.522461 186.083008,149.006836 C192.102539,154.491211 196.266602,158.957031 196.266602,158.957031 C196.266602,158.957031 183.574219,141.155273 180.395996,135.649902 C177.217773,130.144531 173.902832,123.535645 173.902832,123.535645 L214.543945,106.005859 C214.543945,106.005859 225.676758,129.766602 227.870117,136.635742 C230.063477,143.504883 239.30957,169.209961 235.733398,179.708008 C232.157227,190.206055 232.732422,200.871094 219.681641,207.990234 C206.630859,215.109375 194.181152,215.21875 194.181152,215.21875 C194.181152,215.21875 180.00961,214.002442 173.902832,212.022949 C168.930345,210.411133 160.943359,204.444824 160.943359,204.444824 C160.943359,204.444824 152.166584,194.899856 148.130859,189.970215 C139.753498,179.737259 123.704102,158.957031 123.704102,158.957031 L87.6318359,115.682617 L62.8588867,87.5185547 C62.8588867,87.5185547 56.5850743,81.923649 51.7792969,79.8037109 C47.6033214,77.9615929 42.0225194,75.6896263 37.4765625,73.1245117 C33.5631551,70.9163213 30.3393555,68.2509766 30.3393555,68.2509766 C30.3393555,68.2509766 25.4047852,62.4638672 22.9243164,58.1865234 C20.4438477,53.9091797 1.51074219,17.4179688 1.51074219,17.4179688 C1.51074219,17.4179688 1.10058594,13.1914062 2.26660156,13.1914062 C3.43261719,13.1914062 5.91894531,12.5869141 6.56738281,13.578125 C7.21582031,14.5693359 14.0644531,24.8579099 15.8466797,26.4282227 C17.6289062,27.9985354 19.2431641,28.8706055 19.2431641,28.8706055 L5.00878906,9.27148438 C5.00878906,9.27148438 7.72705078,5.73242188 9.07373047,5.73242188 C10.4204102,5.73242188 14.0263672,12.0131836 17.1318359,14.6943359 C20.2373047,17.3754883 28.3881836,22.5224609 30.3393555,23.4326172 C32.2905273,24.3427734 33.8491211,24.9912109 33.8491211,24.9912109 C33.8491211,24.9912109 19.0444336,11.5126953 16.6948242,8.62255859 C14.3452148,5.73242188 16.9829102,3.57421875 16.9829102,3.57421875 L18.9716797,2.19580078 C18.9716797,2.19580078 26.4189453,10.3032227 27.6401367,11.0825195 C28.3895548,11.5607567 34.8650945,11.7654576 40.0380869,10.6499023 C43.294587,9.94763844 46.3164072,9.4921875 46.3164072,9.4921875 L48.9421396,8.62255859 C48.9421396,8.62255859 51.7792978,13.578125 52.9421396,16.4394531 C54.1049814,19.3007812 64.35254,33.607666 64.35254,33.607666 C64.35254,33.607666 70.2558571,33.8934008 72.8017588,32.9655762 C74.4340794,32.3706957 77.4575205,30.0036621 77.4575205,30.0036621 C77.4575205,30.0036621 80.2727447,26.1091524 80.2895518,26.0183105 C80.7475773,23.5426853 80.6499021,20.6518294 80.8352061,17.9396973 C81.1019326,14.0358534 81.5371103,10.6499023 81.5371103,10.6499023 L81.8645029,5.89550781 C81.8645029,5.89550781 86.7709961,4.77929688 87.6318359,5.89550781 C88.4926758,7.01171875 88.4052734,9.4921875 88.4052734,9.4921875 C88.4052734,9.4921875 85.6142578,18.559082 86.6230469,22.996582 C87.6318359,27.434082 87.2456055,38.1323242 84.9394531,46.8706055 C82.6333008,55.6088867 79.5146484,60.5786133 82.2270508,63.0151367 C84.9394531,65.4516602 124.38916,99.8994141 131.356445,106.005859 C138.32373,112.112305 163.587891,134.298828 163.587891,134.298828 Z" id="left-arm-shadow" fill-opacity="0.06" fill="#000000"></path>
                </g>
                <g id="hairs" transform="translate(189.000000, 124.000000)">
                    <mask id="mask-6" sketch:name="hairs-2" fill="white">
                        <use xlink:href="#path-5"></use>
                    </mask>
                    <use id="hairs-2" fill="#333333" sketch:type="MSShapeGroup" xlink:href="#path-5"></use>
                    <path d="M101.664063,336.667969 C101.664063,336.667969 76.5605469,318.345703 69.9316406,300.921875 C63.3027344,283.498047 65.9667969,210.21875 70.0371094,204.53125 C74.1074219,198.84375 82.9824219,171.474609 82.9824219,171.474609 C82.9824219,171.474609 82.6851939,208.630371 83.2353516,215.92627 C83.7855093,223.222168 83.7529297,227.26709 83.7529297,227.26709 L129.373047,231.797363 L172.84082,230.575684 L188.171387,228.574707 C188.171387,228.574707 189.729984,210.795898 188.950684,200.693848 C188.171383,190.591797 187.223633,185.418457 187.223633,185.418457 C187.223633,185.418457 194.283687,212.813965 195.287109,220.040527 C196.290531,227.26709 196.869141,229.39502 196.869141,229.39502 L211.039551,225.993164 C211.039551,225.993164 217.209957,210.509277 217.209961,197.963867 C217.209965,185.418457 211.987305,160.933594 211.987305,160.933594 C211.987305,160.933594 222.579098,197.502441 223.788086,214.039063 C224.997074,230.575684 228.922852,247.735352 228.922852,247.735352 L231.882813,267.084961 L228.568359,290.191406 L205.385742,337.014648 L208.089844,339.259766 L229.847656,339.248047 C229.847656,339.248047 275.264644,325.964844 283.27832,319.445312 C291.291996,312.925781 291.629883,307.988281 291.629883,307.988281 C291.629883,307.988281 285.530269,162.512695 278.365234,147.681641 C271.200199,132.850586 254.96484,92.40625 237.785156,84.8242188 C220.605473,77.2421875 204.97266,55.8046875 179.673828,66.4472656 C154.374996,77.0898438 139.435547,81.2304688 134.404297,77.0664062 C129.373047,72.9023437 97.9843748,54.6289062 75.8964844,59.2929688 C53.8085939,63.9570313 39.2792967,63.7617184 30.2539063,82.3828125 C21.2285158,101.003907 9.11914063,156.683109 9.11914063,171.050781 C9.11914063,185.418454 3.78125,272.910167 11.2363281,308.419922 C18.6914063,343.929676 75.046875,338.195312 75.046875,338.195312 L101.664063,336.667969 Z" id="hairs-shadow" fill-opacity="0.12" fill="#000000" sketch:type="MSShapeGroup" mask="url(#mask-6)"></path>
                </g>
            </g>
        </g>
    </g>
</svg>