<?xml version="1.0" encoding="UTF-8" standalone="no"?>
<svg width="515px" height="900px" viewBox="0 0 515 900" version="1.1" xmlns="http://www.w3.org/2000/svg" xmlns:xlink="http://www.w3.org/1999/xlink" xmlns:sketch="http://www.bohemiancoding.com/sketch/ns">
    <!-- Generator: Sketch 3.1 (8751) - http://www.bohemiancoding.com/sketch -->
    <title>mobile-shape-5</title>
    <desc>Created with Sketch.</desc>
    <defs>
        <path id="path-1" d="M42.2226563,0.29296875 C42.2226563,0.29296875 17.0546875,69.0820312 11.2148438,81.203125 C5.375,93.3242188 -3.80859375,103.839844 0.98046875,112.074219 C5.76953125,120.308594 80.2578153,200.726562 97.5664063,220.175781 C114.874997,239.625 151.421875,270.980469 151.421875,270.980469 L166.308599,282.691406 L207.937505,282.691406 L169.773438,242.953125 C169.773438,242.953125 131.531253,191.957031 119.316406,170.8125 C107.10156,149.667969 71.1601562,98.4648437 71.1601562,98.4648437 C71.1601562,98.4648437 65.6367188,91.6640625 76.7070284,73.3554688 C87.7773381,55.046875 100.425781,23.9296875 100.425781,23.9296875 L42.2226563,0.29296875 Z"></path>
        <path id="path-3" d="M158.918949,16.1337891 C146.262699,16.1337891 134.636715,14.1337891 111.398434,27.6025391 C88.1601528,41.0712891 66.8085937,55.6367188 66.8085937,55.6367188 C66.8085937,55.6367188 54.2460937,59.0312504 49.0117187,78.5742188 C43.7773437,98.1171871 16.8632812,225.828118 12.3710937,239.695312 C7.87890625,253.562507 0.04296875,270.21875 0.04296875,270.21875 C0.04296875,270.21875 -1.4921875,277.195305 17.6992187,286.222656 C36.890625,295.250007 73.2304722,312.347649 83.90625,312.347656 C94.5820278,312.347663 105.46875,311.601562 105.46875,311.601562 C105.46875,311.601562 105.464847,299.74218 111.398438,282.734375 C117.332028,265.72657 129.195308,228.785149 129.195312,228.785156 C129.195317,228.785163 133.570308,223.226555 137.78125,237.347656 C141.992192,251.468757 149.765621,344.691399 149.765625,389.234375 C149.765629,433.777351 133.062503,505.316399 128.875,516.039062 C124.687497,526.761726 113.472652,529.507805 138.597656,539.976562 C163.72266,550.44532 189.917965,565.496087 262.382812,565.496094 C334.84766,565.496101 346.363277,549.445305 366.601562,541.464844 C386.839848,533.484382 384.742183,463.671868 375.671875,407.585938 C366.601567,351.500007 343.343746,236.894524 337.808594,226.613281 C332.273442,216.332038 341.808594,210.191406 341.808594,210.191406 C341.808594,210.191406 347.042965,208.191407 337.273438,173.691406 C327.50391,139.191406 308.359371,68.6484375 295.097656,43.71875 C281.835942,18.7890625 276.554683,6.87109416 265.132812,6.87109375 C253.710942,6.87109334 220.682621,-14.1074221 158.918949,16.1337891 Z"></path>
        <path id="path-5" d="M50.6171875,225.218753 C70.4544228,243.900928 116.903952,247.339847 143.898438,247.339847 C202.440621,247.339847 246.050781,214.033194 246.050781,144.445316 C246.050781,100.317801 228.482011,34.4905608 199.589844,11.984375 C182.919857,-1.00107606 160.419036,0 139,0 C112.389522,0 75.5787281,8.10858552 56.9648438,27.359375 C34.6287896,50.4596946 -0.144532418,61.5239163 -0.144532418,99.480472 C-0.144532418,136.980566 27.4339669,203.38542 50.6171875,225.218753 Z"></path>
        <path id="path-7" d="M10.265625,21.3125 C10.265625,21.3125 20.640625,43.7382812 20.640625,61.046875 C20.640625,78.3554687 19.5546875,89.0449221 12.359375,90.5234375 C5.1640625,92.0019529 -0.48046875,94.0117187 -0.48046875,94.0117187 C-0.48046875,94.0117187 7.546875,110.621094 31.9726562,125.578125 C56.3984375,140.535156 62.3789062,146.328125 76.8476562,146.328125 C91.3164062,146.328125 104.179688,141.652344 109.414062,129.578125 C114.648438,117.503906 110.855469,92.6171875 110.855469,82.5429687 C110.855469,72.46875 98.6210938,71.421875 98.6210938,71.421875 C98.6210938,71.421875 83.1523438,77.3125 76.9648438,63.4921875 C70.7773438,49.671875 63.6367188,21.0585937 72.8710938,4.44921875 C82.1054688,-12.1601563 10.265625,21.3125 10.265625,21.3125 Z"></path>
        <path d="M123.32784,107.116497 L123.421875,107.055664 C123.421875,107.055664 115.585938,165.722656 111.421875,174.003906 C107.257812,182.285156 84.4023438,263.544922 76.5507813,290.041016 C68.6992188,316.537109 22.3613281,459.552734 22.3613281,459.552734 C22.3613281,459.552734 11.9511719,414.736328 -0.447265625,364.080078 C2.90039063,352.402344 22.3613281,297.835938 26.9785156,287.007812 C31.3581424,276.73681 74.6183283,149.648398 79.0583278,136.597837 C79.7767017,133.387083 80.4987741,129.442295 80.7705076,125.644532 C75.8975685,112.841388 77.7379204,104.372037 74.5940418,100.43916 C66.4311536,90.2276857 56.9199221,63.5078141 56.9199221,63.5078141 C56.7773949,62.1517582 54.9503131,59.1931365 56.0874103,55.5869934 C56.6287397,52.1539325 59.7729494,53.070801 59.7729494,53.070801 C59.7729494,53.070801 58.8917516,52.0501646 56.7895506,49.5756818 C54.6873495,47.1011989 56.0995595,45.4447598 57.4555665,41.2065436 C58.8115734,36.9683274 59.2746583,38.0017089 60.2502444,37.6425789 C61.197487,37.5430197 63.1747311,38.2776925 63.1747311,38.2776925 C63.1747311,38.2776925 64.616771,37.4123293 63.6933596,36.1064461 C62.7699483,34.8005629 62.6000977,35.7568366 61.2739258,32.5986326 C59.9477539,29.4404286 63.666992,23.331055 63.666992,23.331055 C64.4092608,22.7230364 68.8907495,23.7471669 68.8907495,23.7471669 C68.8907495,23.7471669 68.049701,19.311306 65.7314453,16.1171874 C63.4131897,12.9230687 65.7147388,11.3590731 66.385742,7.72802725 C67.0567452,4.09698144 70.5991216,4.88085939 70.5991216,4.88085939 C70.5991216,4.88085939 82.2207024,11.7148434 94.2998057,26.0390628 C102.251336,35.4685263 117.48571,46.3002732 122.373538,55.2631829 C124.910768,59.9157546 125.763186,62.7954101 125.644043,67.9223644 C125.311944,82.2131428 124.033206,87.4863301 123.996443,95.2467585 C122.840465,104.171414 123.754458,103.989866 123.32784,107.116497 Z" id="path-9"></path>
    </defs>
    <g id="Page-1" stroke="none" stroke-width="1" fill="none" fill-rule="evenodd" sketch:type="MSPage">
        <g id="mobile" sketch:type="MSLayerGroup" transform="translate(-2238.000000, -43.000000)">
            <g id="mobile-shape-5" transform="translate(2110.000000, 0.000000)">
                <rect id="bg-5" sketch:type="MSShapeGroup" x="0" y="0" width="700" height="1000"></rect>
                <g id="right-arm" transform="translate(129.000000, 659.000000)">
                    <mask id="mask-2" sketch:name="right-arm" fill="white">
                        <use xlink:href="#path-1"></use>
                    </mask>
                    <use fill="#DADADA" sketch:type="MSShapeGroup" xlink:href="#path-1"></use>
                    <path d="M76.5351562,8.40625 C76.5351562,8.40625 48.6992188,64.4589844 44.9550781,71.0996094 C41.2109375,77.7402344 33.90625,89.5371094 33.90625,95.1191406 C33.90625,100.701172 72.0703125,162.070312 88.4472656,186.798828 C104.824219,211.527344 179.232422,285.458984 179.232422,285.458984 L161.65625,285.458984 L69.7890625,202.455078 L8.91992187,133.757812 L-2.67578125,114.554688 L-3.54882812,96.4804688 L11.6074219,70.5527344 L43.6640625,-10.0078125 L76.5351562,8.40625 Z" id="right-arm-shadow" fill-opacity="0.06" fill="#000000" sketch:type="MSShapeGroup" mask="url(#mask-2)"></path>
                </g>
                <g id="t-shirt" transform="translate(159.000000, 377.000000)">
                    <mask id="mask-4" sketch:name="t-shirt" fill="white">
                        <use xlink:href="#path-3"></use>
                    </mask>
                    <use fill="#999999" sketch:type="MSShapeGroup" xlink:href="#path-3"></use>
                    <path d="M93.78125,36.5019531 L119.287109,26.6035156 C119.287109,26.6035156 125.244141,35.9003906 128.837891,38.7949219 C132.431641,41.6894531 143.75,52.9609375 152.472656,59.21875 C161.195312,65.4765625 183.054688,75.3398438 189.542969,78.4335938 C196.03125,81.5273438 205.603516,79.65625 208.150391,79.65625 C210.697266,79.65625 189.542969,126.621094 189.542969,178.566406 C189.542969,230.511719 196.626953,344.230469 196.626953,344.230469 C196.626953,344.230469 208.150391,423.417969 212.59375,453.449219 C217.037109,483.480469 217.390625,500.792969 221.578125,516.097656 C225.765625,531.402344 230.150391,545.505859 240.966797,549.042969 C251.783203,552.580078 262.361328,554.359375 295.394531,557.324219 C328.427734,560.289063 351.433594,557.324219 351.433594,557.324219 L311.443359,564.222656 L274.419922,567.863281 L240.966797,566.792969 L196.626953,562.257812 L174.863281,557.324219 L134.130859,541.320312 L120.695312,532.992188 C120.695312,532.992188 129.150391,527.876953 129.150391,525.107422 C129.150391,522.337891 142.189453,492.828125 142.189453,488.537109 C142.189453,484.246094 154.505859,419.117188 149.470703,398.449219 C144.435547,377.78125 135.433594,237.332031 135.433594,237.332031 C135.433594,237.332031 135.433594,202.660156 129.150391,205.929688 C120.695312,205.929688 88.546875,272.170898 86.3261719,281.035156 C84.1054688,289.899414 101.628906,314.015625 101.628906,314.015625 L75.9589844,315.259766 L21.21875,291.601562 L-0.54296875,277.015625 C-0.54296875,277.015625 5.0390625,270.386719 7.6328125,265.919922 C10.2265625,261.453125 21.1738281,189.988281 23.9648437,178.566406 C26.7558594,167.144531 44.3320312,69.2050781 44.3320312,69.2050781 L69.5605469,48.1171875 L93.78125,36.5019531 Z" id="t-shirt-shadow" fill-opacity="0.0899999961" fill="#000000" sketch:type="MSShapeGroup" mask="url(#mask-4)"></path>
                    <path d="M285.845703,67.9628906 C285.845703,67.9628906 322.890625,186.757812 327.380859,196.109375 C331.871094,205.460938 336.615234,222.1875 336.615234,222.1875 L343.373047,208.253906 C343.373047,208.253906 323.484375,151.060547 314.609375,130.019531 C305.734375,108.978516 285.845703,67.9628906 285.845703,67.9628906 Z" id="t-shirt-shadow-2" fill-opacity="0.0899999961" fill="#000000" sketch:type="MSShapeGroup" mask="url(#mask-4)"></path>
                </g>
                <g id="head" transform="translate(167.000000, 87.000000)">
                    <mask id="mask-6" sketch:name="head" fill="white">
                        <use xlink:href="#path-5"></use>
                    </mask>
                    <use fill="#DADADA" sketch:type="MSShapeGroup" xlink:href="#path-5"></use>
                    <path d="M137.277344,20.6191406 C137.277344,20.6191406 93.4121094,27.5527344 87.0507812,30.3203125 C80.6894531,33.0878906 67.8828125,75.1816406 80.921875,110.054688 C93.9609375,144.927734 129.472656,202.560547 119.632813,187.044922 C119.632813,187.044922 125.486324,213.574219 162.113281,220.158203 C198.740238,226.742187 218.640625,221.927734 218.640625,221.927734 L199.867188,244.212891 L180.222656,246.830078 L129.472656,251.517578 L60.7988281,251.167969 L6.08398438,191.195312 L6.43359375,119.183594 L42.8515625,18.5800781 L96.0664062,0.78515625 L137.277344,20.6191406 Z" id="head-shadow" fill-opacity="0.06" fill="#000000" sketch:type="MSShapeGroup" mask="url(#mask-6)"></path>
                </g>
                <g id="neck" transform="translate(283.000000, 306.000000)">
                    <mask id="mask-8" sketch:name="neck" fill="white">
                        <use xlink:href="#path-7"></use>
                    </mask>
                    <use fill="#DADADA" sketch:type="MSShapeGroup" xlink:href="#path-7"></use>
                    <path d="M73.1845703,4.2890625 C67.239502,3.93432615 56.0710449,2.75952148 56.0710449,2.75952148 L0.107421875,20.8691406 L14.0419922,73.5898438 L18.328125,77.8007812 C18.328125,77.8007812 21.2070312,86.4365234 19.1367188,89.0302734 C17.0664062,91.6240234 0.0498046875,97.1494141 0.0498046875,97.1494141 L13.921875,115.499023 L32.9921875,130.055664 L49.9042969,139.564453 L66.9394531,147.677734 L81.4091797,147.427734 L95.1748047,145.329102 C95.1748047,145.329102 72.1679688,135.605469 67.5556641,127.492188 C62.9433594,119.378906 47.4140625,97.5058594 44.8964844,74.2246094 C42.3789062,50.9433594 45.0947266,31.9765625 51.0556641,28.1386719 C57.0166016,24.3007812 71.1425781,21.9804687 71.1425781,21.9804687 C71.1425781,21.9804687 79.1296387,4.64379885 73.1845703,4.2890625 Z" id="neck-shadow" fill-opacity="0.06" fill="#000000" sketch:type="MSShapeGroup" mask="url(#mask-8)"></path>
                </g>
                <g id="mobile" transform="translate(536.000000, 175.000000)" sketch:type="MSShapeGroup">
                    <path d="M24.953334,48.2045941 C23.6363663,49.2094181 22.5811737,51.3729665 22.5964421,53.0312335 L23.838029,187.877524 C23.8533212,189.53838 24.9298558,190.07285 26.2502989,189.065374 L82.7904476,145.926201 C84.1074153,144.921377 85.162608,142.757829 85.1473396,141.099562 L83.9057527,6.25327089 C83.8904605,4.59241554 82.8139258,4.05794539 81.4934828,5.065421 L24.953334,48.2045941 Z" fill="#D0011B" transform="translate(54.051191, 97.375004) rotate(15.000000) translate(-54.051191, -97.375004) "></path>
                    <path d="M29.5945755,50.7049778 C28.2787503,51.704769 27.2120632,53.8497879 27.2120632,55.5055521 L27.2120633,186.591114 C27.2120633,188.242607 28.2666501,188.753802 29.5712643,187.729985 L82.0835945,146.520089 C83.3865452,145.497578 84.4207219,143.320973 84.3936276,141.666741 L82.297677,13.6993618 C82.2705223,12.0414433 81.1738127,11.5140112 79.8659967,12.5077167 L29.5945755,50.7049778 Z" id="mobile-shadow" fill-opacity="0.16" fill="#000000" transform="translate(55.818958, 100.436866) rotate(15.000000) translate(-55.818958, -100.436866) "></path>
                </g>
                <g id="left-arm" transform="translate(495.000000, 232.000000)">
                    <mask id="mask-10" sketch:name="left-arm" fill="white">
                        <use xlink:href="#path-9"></use>
                    </mask>
                    <use fill="#DADADA" sketch:type="MSShapeGroup" xlink:href="#path-9"></use>
                    <path d="M16.0732422,460.12793 C16.0732422,460.12793 65.9384766,295.486328 67.6953125,289.763672 C69.4521484,284.041016 97.8017578,183.72168 99.5341797,180.167969 C101.266602,176.614258 111.598633,133.611328 113.592773,121.148438 C115.586914,108.685547 118.867188,79.3388672 118.867188,69.9521484 C118.867188,60.5654297 96.3876953,27.0390625 87.9375,15.7333984 C79.4873047,4.42773438 76.2763672,5.3359375 76.2763672,5.3359375 C76.2763672,5.3359375 71.1743164,6.95117191 69.953125,9.03320312 C68.7319336,11.1152343 67.6728516,14.2172847 67.0683594,15.5581055 C66.4638672,16.8989262 65.8530273,19.1611328 65.8530273,19.1611328 C65.8530273,19.1611328 68.8251953,24.0092769 70.1220703,25.2563477 C71.4189453,26.5034184 79.5693359,33.3022456 81.0844727,34.6108398 C82.5996094,35.919434 84.2949219,37.097168 84.2949219,37.097168 C84.2949219,37.097168 68.574707,25.4887691 67.2138672,25.4887695 C65.8530273,25.48877 64.9140625,27.0332027 63.9106445,29.4462891 C62.9072266,31.8593754 61.6860352,35.1689453 61.6860352,35.1689453 C61.6860352,35.1689453 63.5180664,38.1401363 67.3388672,40.3969727 C71.159668,42.653809 76.5620117,46.7602535 77.7719727,47.6088867 C78.9819336,48.45752 80.2641602,49.6411133 80.2641602,49.6411133 C80.2641602,49.6411133 63.4213867,38.8959956 62.2119141,39.6464844 C61.0024414,40.3969731 59.0712891,43.9614253 58.4287109,45.2207031 C57.7861328,46.4799809 57.1123047,48.8657222 57.1123047,50.0375977 C57.1123047,51.2094731 58.5458984,52.2939453 58.5458984,52.2939453 C58.5458984,52.2939453 64.3623047,57.7465816 65.8505859,59.5668945 C67.3388672,61.3872075 72.8759766,67.8920898 72.8759766,67.8920898 C72.8759766,67.8920898 61.0458984,56.2514644 59.7958984,55.7280273 C58.5458984,55.2045903 56.9780273,57.6733398 56.9780273,57.6733398 L55.1577148,60.6918945 L60.7094727,79.043457 L69.5463867,95.7875977 L74.6499023,103.15918 L76.1962891,126.796875 L71.9345703,149.463867 L61.2915039,177.824707 L34.7382812,255.158203 L26.0961914,279.10498 L3.29589844,334.758301 L-4.02636719,364.438477 L3.47607422,390.03125 L16.0732422,460.12793 Z" id="left-arm-shadow" fill-opacity="0.06" fill="#000000" sketch:type="MSShapeGroup" mask="url(#mask-10)"></path>
                </g>
                <path d="M221.222656,249.123052 C226.808594,240.095708 234.527341,214.277349 234.527341,214.277349 C234.527341,214.277349 238.660156,195.21875 225.378906,189.425781 C212.097656,183.632812 202.660156,185.84375 210.402344,161.394531 C218.144531,136.945312 232.941406,109.125 244.363281,109.125 C255.785157,109.125 288.048831,108.425779 304.470703,108.425779 C320.892575,108.425779 321.035159,102.9375 321.035156,96.75 C324.126953,92.9960953 339.050777,86.6679703 349.613281,92.9960953 C360.175786,99.3242203 370.460933,100.097654 375.601563,108.425779 C378.671875,108.425779 370.496089,87.998048 361.515625,78.2753922 C352.535161,68.5527364 333.384273,45.4531255 310.867187,45.453125 C288.350102,45.4531245 273.199219,38.4765625 241.800781,51.3398437 C210.402344,64.203125 184.546874,81.5390648 174.128906,103.03125 C163.710938,124.523435 157.386719,148.999998 157.386719,189.425787 C157.386719,229.851575 170.929688,253.214844 180.953125,267.101568 C190.976562,280.988292 197.230469,286.558599 197.230469,286.558599 C197.230469,286.558599 202.103528,269.603516 202.103516,263.228521 C202.103511,260.655992 196.956055,258.14649 192.070313,258.14649 C187.18457,258.14649 187.092091,246.486692 186.349609,240.793951 C185.076172,231.030279 187.016486,222.271487 192.070313,222.27149 C201.890626,222.271495 204.249024,224.900396 208.988281,231.030279 C213.727539,237.160162 215.636719,258.150396 221.222656,249.123052 Z" id="Path-37" fill="#333333" sketch:type="MSShapeGroup"></path>
            </g>
        </g>
    </g>
</svg>