<svg id="mobile-defs" version="1.1" xmlns="http://www.w3.org/2000/svg" xmlns:xlink="http://www.w3.org/1999/xlink" xmlns:sketch="http://www.bohemiancoding.com/sketch/ns">
    
<defs>
        <path id="path-1" d="M-0.427734375,169.369141 L4.28320312,99.8242187 C4.28320312,99.8242187 6.32421875,78.7265696 14.2695312,62.0000033 C22.2148438,45.273437 29.8636427,29.6899541 57.3789062,12.1464842 C85.1660156,-5.5703121 172.984375,-2.75585935 214.34375,12.0292969 C255.703125,26.8144531 268.03125,39.7226556 277.923828,62.0000031 C284.078588,75.8600636 277.923828,171.568359 277.923828,171.568359 L259.650391,162.693359 L259.626953,95.0800781 C259.626953,95.0800781 257.550781,62.0000031 240.404297,48.7265618 C223.562732,35.6891651 210.130859,25.7558599 188.939453,20.171875 C167.748047,14.5878901 136.984375,12.1464838 110.542969,12.1464844 C84.1015625,12.1464849 62.1655607,23.0806411 50.1542969,33.9082026 C37.7675781,45.0742182 28.6679687,67.0449219 25.5507813,75.6992182 C22.4335938,84.3535145 20.0957031,157.679688 20.0957031,157.679688 L-0.427734375,169.369141 Z"></path>
        <path id="path-3" d="M71.53125,258.265625 C89.0816904,266.813993 115.645287,269.992188 136.550781,269.992188 C209.176226,269.992188 263,208.020875 263,136.5 C263,104.95946 252.240641,71.2161143 233.210938,48.7539062 C209.089159,20.2811341 172.097792,0.04296875 131.5,0.04296875 C58.8745554,0.04296875 0,64.9791249 0,136.5 C0,187.433335 28.1116639,237.117062 71.53125,258.265625 Z"></path>
        <path id="path-5" d="M161.852535,0.5625 C157.921871,-1.33300778 152.12793,4.35742188 152.12793,4.35742188 C152.12793,4.35742188 123.361328,16.6914062 112.335938,22.4257812 C101.310547,28.1601563 68.5078125,46.9570312 68.5078125,46.9570312 C68.5078125,46.9570312 64.6699219,48.8300781 62.0996094,55.7851563 C59.5292969,62.7402344 39.9394531,146.013672 36.671875,152.375 C33.4042969,158.736328 35.8066409,176.275391 33.433594,176.275391 C31.0605471,176.275391 26.9453127,178.21875 30.1894534,182.8125 C33.433594,187.40625 29.8164065,191.931641 27.1464846,197.119141 C24.4765627,202.306641 22.1855476,204.214844 18.8945315,208.681641 C15.6035153,213.148438 4.07226605,220.091797 4.07226605,220.091797 C4.07226605,220.091797 -6.859375,218.501953 8.25976563,229.423828 C23.3789063,240.345703 40.3867183,253.583984 61.7773438,259.515625 C83.1679692,265.447266 84.4355465,263.273437 88.9257813,265.970703 C93.416016,268.667969 99.2773433,267.470703 99.2773438,267.470703 C99.2773442,267.470703 107.708984,250.408203 107.708984,250.408203 C107.708984,250.408203 104.568359,284.779297 104.568359,290.966797 C104.56836,297.154297 93.4667965,343.873047 93.4667969,354.271484 C93.4667973,364.669922 93.2929683,390.0625 93.2929688,408.091797 C93.2929692,426.121094 78.6568828,473.564453 75.6933594,478.775391 C72.7298359,483.986328 63.4238277,482.345703 67.0410156,488.603516 C70.6582035,494.861328 80.7636715,501.933594 94.2363281,505.027344 C107.708985,508.121094 185.083999,526.589844 233.796875,523.296875 C282.509751,520.003906 346.132827,500.556641 354.658203,496.462891 C363.183579,492.369141 386.238266,482.25 386.238281,482.25 C386.238297,482.25 375.07228,473.677734 371.582031,464.873047 C368.091782,456.068359 347.3535,340.912109 347.353516,323.464844 C347.353531,306.017578 349.271499,297.771484 349.271484,288.466797 C349.27147,279.162109 346.876953,277.242188 346.876953,277.242188 C346.876953,277.242188 350.865249,282.232422 356.576172,282.232422 C362.287095,282.232422 392.917984,273.191406 413.166016,259.630859 C433.414048,246.070312 440.417984,238.779297 442.964844,234.101562 C445.511704,229.423828 442.148452,226.703125 437.833984,222.109375 C433.519516,217.515625 407.332046,138.701172 400.703125,123.068359 C394.074204,107.435547 368.060562,44.2285156 362.318359,37.0175781 C356.576157,29.8066406 357.025405,27.3398438 345.650391,23.5253906 C334.275376,19.7109375 310.797878,7.57421864 299.422863,4.35742177 C288.047848,1.14062489 287.970703,8.89257812 287.970703,8.89257812 C287.970703,8.89257812 165.7832,2.45800778 161.852535,0.5625 Z"></path>
        <path id="path-7" d="M28.0976563,4.125 C28.0976563,4.125 41.4296875,28.046875 31.890625,45.2109375 C22.3515625,62.375 8.4453125,71.3554688 2.953125,71.3554688 C-2.5390625,71.3554688 -0.5546875,94.8710938 6.328125,104.457031 C13.2109375,114.042969 24.7792969,128.152346 35.8535158,136.433596 C46.9277348,144.714846 60.1520087,145.656296 74.6289062,145.65625 C78.8037111,145.656237 89.6092669,143.415565 94.5820314,140.632814 C110.962638,131.466255 127.413599,117.613795 132.160156,111.902344 C138.347656,104.457031 140.316984,90.13315 138.470947,79.3376485 C138.133789,77.3659688 137.202149,74.8325292 137.202149,74.8325292 C137.202149,74.8325292 112.831386,72.2930343 107.269531,61.6328125 C101.175781,49.953125 100.476562,31.484375 100.476562,11.640625 C100.476563,-8.203125 28.0976563,4.125 28.0976563,4.125 Z"></path>
        <path id="path-9" d="M27.6601562,32.8251953 C27.6601562,32.8251953 46.7773437,87.078125 46.7773438,93.9140625 C46.7773438,100.552272 55.2083571,133.992437 50.8535156,152.545898 C46.7773438,169.912109 42.1474609,197.90332 13.2773438,246.472656 C5.71589356,259.193582 0.15625,260.988281 0.15625,260.988281 C0.15625,260.988281 4.08937645,273.992188 14.0234375,285.066406 C23.9574986,296.140625 25.7324219,297.59668 25.7324219,297.59668 C25.7324219,297.59668 57.6738281,263.038086 65.5888672,251.168945 C73.5039062,239.299805 97.6230469,179.677734 106.033203,155.314453 C114.443359,130.951172 116.378906,121.488281 115.070312,116.615234 C113.761719,111.742188 108.893555,101.420898 107.84668,94.8144531 C106.799805,88.2080078 94.7197266,29.1865251 91.1313477,19.311036 C87.5429688,9.43554688 82.8847656,0.272460938 82.8847656,0.272460938 C82.8847656,0.272460938 78.5288086,3.95849609 76.6967773,5.34228516 C74.8647461,6.72607422 66.5883713,13.3198242 62.65625,15.8266602 C58.7241287,18.3334961 51.6396484,22.300293 47.5024414,24.2768555 C43.3652344,26.253418 27.6601562,32.8251953 27.6601562,32.8251953 Z"></path>
        <path id="path-11" d="M101.220703,196.78125 C101.220703,196.78125 87.3105469,219.337891 82.8203125,224.523437 C78.3300781,229.708984 75.2148437,233.025391 75.2148437,233.025391 C75.2148437,233.025391 70.0292961,225.672848 67.1894531,212.111328 C64.3496101,198.549809 64.3051789,193.333981 62.3833039,172.711423 C60.4614289,152.088864 57.055175,116.139157 56.4521477,102.182614 C56.40116,101.002548 54.8822413,92.7771024 55.2949211,91.2617156 C57.0375484,84.8626759 65.5793203,81.2245072 68.3183625,76.7807586 C69.2550113,75.2611646 72.2974784,72.8519247 72.9243195,71.5024383 C74.5646481,67.9710787 71.8712302,62.6385876 72.3779339,61.6298824 C73.9309158,58.5383297 77.8701095,50.5009761 76.8901333,46.2358394 C75.910157,41.9707027 73.3571743,37.7512203 70.577145,42.1850582 C69.7176512,43.5558553 70.5804436,40.6362302 71.2690395,39.6635738 C72.8332443,37.4541011 72.7583015,32.2116695 72.3779305,30.3571773 C71.819824,27.6361396 70.7868649,25.0048824 69.1765144,25.0048824 C67.5661639,25.0048824 65.1096199,28.4077144 65.1096199,28.4077144 C65.1096199,28.4077144 67.1894566,22.1398922 67.1894539,19.3479 C67.1894511,16.5559078 73.129393,9.63476541 71.2690425,6.52929666 C69.4086919,3.42382791 65.6386714,-1.09008791 65.1096186,0.109374991 C63.4666953,3.8341939 48.4533405,19.050413 46.2812492,21.0566402 C41.3320304,25.6279293 15.0425464,47.1762702 9.86230491,47.1762702 C4.3231387,47.1762702 3.77895278,43.9794168 3.60815426,40.682862 C3.50631866,38.7173496 3.1821387,36.5122682 2.99145504,36.3498542 C2.05062963,35.2497334 0.926269509,37.5703132 0.511718729,46.2358405 C0.0971679499,54.9013679 -0.116210926,54.1259772 4.34130839,65.9033172 C9.28795074,78.9729831 9.862305,100.670779 9.86230469,102.780273 C9.86230355,110.497067 29.1328125,320.957031 29.1328125,320.957031 C29.1328125,320.957031 33.2290259,335.447513 39.3359374,340.394528 C45.6443905,345.504805 66.3789062,351.128906 66.3789062,351.128906 C66.3789062,351.128906 80.7353636,343.079301 86.6284561,336.613278 C104.347343,317.171749 137.214844,273.40625 137.214844,273.40625 L172.949219,228.34375 L101.220703,196.78125 Z"></path>
        <path id="path-13" d="M9.81454933,96.6300719 C13.5438978,99.9289412 30.0183646,97.9124892 34.4852908,97.9124892 C49.6731214,97.9124892 62.7287184,78.5950278 62.7287184,52.0853598 C62.7287184,25.5756918 49.6731214,1.91248919 34.4852908,1.91248919 C28.453551,1.91248919 17.0759311,4.0432609 12.542392,9.79056288 C5.66054747,18.5148814 2.65276567,32.6362212 2.65276567,49.1538413 C2.65276566,67.8666926 0.863877919,88.7125776 9.81454933,96.6300719 Z"></path>
</defs>

    <defs>

    <!-- Non mobile caracters -->
    <g class="non-mobile-shape" id="non-mobile-shape-1" stroke="none" stroke-width="1" fill="none" fill-rule="evenodd" sketch:type="MSPage">
        <g id="Group-2" sketch:type="MSLayerGroup" transform="translate(-1132.000000, -95.000000)">
            <g id="Oval-4" transform="translate(1132.000000, 96.000000)" sketch:type="MSShapeGroup">
                <path d="M0.884765625,443.011719 C0.884765625,443.011719 11.6933594,457.515625 35.7578125,468.833984 C59.8222656,480.152344 67.8808594,482.419922 67.8808594,482.419922 L70.4560547,470.658203 L0.884765625,443.011719 Z" id="Path-21" fill="#262626"></path>
                <path d="M97.3457031,247.816406 L96.3222656,366.960938 L284.798828,460.304688 L296.138672,448.636719 C296.138672,448.636719 256.207031,342.755859 256.207031,318.025391 C256.207031,293.294922 282.121094,242.931641 282.121094,242.931641 L97.3457031,247.816406 Z" id="Path-22" fill="#262626"></path>
                <path class="hiddenArm" d="M109.84375,269.074219 C130.912477,289.703147 157.460873,303.925781 188.542969,303.925781 C220.685644,303.925781 255.859654,292.233275 278.527344,269.074219 C299.481728,247.665607 309.1875,215.978513 309.1875,186 C309.1875,123.591823 259.902767,68.03125 198.046875,68.03125 C136.190983,68.03125 86.90625,123.591823 86.90625,186 C86.90625,217.048562 88.9840016,248.649906 109.84375,269.074219 Z" fill="#D8D8D8"></path>
                <path d="M139.496094,344.546875 C139.496094,344.546875 113.373047,356.876953 108.40625,362.191406 C103.439453,367.505859 91.5507813,371.484375 81.4316406,417.382812 C71.3125,463.28125 56.3320313,530.302734 53.8886719,537.060547 C51.4453125,543.818359 48.8515625,548.158203 46.328125,551.181641 C43.8046875,554.205078 46.8886719,558.392578 50.3886719,558.392578 C53.8886719,558.392578 64.671876,562.904297 86.5390625,562.904297 C108.406249,562.904297 115.782227,555.092773 115.782227,555.092773 L115.061523,577.90332 L76.5556641,645.506836 C76.5556641,645.506836 74.8115226,687.904297 72.1943359,707.259766 C69.5771493,726.615234 61.8847657,774.334961 57.8867188,780.516602 C53.8886718,786.698242 48.3144532,788.355469 54.8339844,796.881836 C61.3535156,805.408203 102.969731,825.162109 145.105469,825.162109 C187.241206,825.162109 260.25977,812.861328 275.688477,807.725586 C291.117183,802.589844 305.786138,794.912109 308.803711,793.179688 C311.821284,791.447266 313.879888,789.189453 309.355469,786.398438 C304.83105,783.607422 278.485356,739.975586 275.344727,724.37207 C272.204097,708.768555 256.922856,635.936523 257.969727,602.821289 C259.016597,569.706055 268.79688,524.098633 271.227539,518.8125 C273.658198,513.526367 291.179688,509.329102 284.986323,488.339844 C278.792959,467.350586 287.730469,471.716797 287.730464,470.716797 C287.730459,469.716797 284.986323,458.060547 284.986323,458.060547 C284.986323,458.060547 273.052739,390.34375 267.643555,376.267578 C262.23437,362.191406 259.320317,345.769531 252.999023,342.378906 C246.67773,338.988281 220.750981,334.625977 216.848633,334.625977 C212.946284,334.625977 207.758789,335.672852 207.758789,335.672852 L139.496094,344.546875 Z" id="Path-17" fill="#999999"></path>
                <path d="M149.976562,291.541016 C149.976562,291.541016 151.023438,326.705078 151.023438,331.798828 C151.023438,336.892578 141.972656,341.998047 138.03125,345.068359 C134.089844,348.138672 163.216797,388.095703 176.953125,400.785156 C190.689453,413.474609 210.054685,423.441406 216.417969,427.384766 C222.781252,431.328125 225.875,433.271484 225.875,433.271484 C225.875,433.271484 219.848635,380.312988 214.683594,360.083984 C209.351032,339.198881 209.296877,335.845703 207.822266,335.845703 C204.963455,335.845703 198.138936,331.548811 197.644531,322.910156 C197.056341,312.632812 201.312498,291.541016 201.312498,291.541016 L149.976562,291.541016 Z" id="Path-16" fill="#D8D8D8"></path>
                <path class="rightArm" d="M66.7109375,558.039062 C66.7109375,558.039062 68.6289062,619.490234 68.6289062,622.910156 C68.6289062,626.330078 69.8964844,642.175781 74.0136719,647.09375 C78.1308594,652.011719 93.0566406,652.082029 95.953125,655.001951 C98.8496094,657.921873 118.923828,645.509766 126.205078,642.392578 C133.486328,639.275391 281.9375,574.843749 281.9375,574.843749 C281.9375,574.843749 278.277273,531.876241 273.589844,535.593748 C241.592292,560.970376 127.044924,592.076174 122.671875,592.076173 C117.658203,592.076173 118.785156,585.11328 118.785156,574.843748 L118.785156,554.15625 L66.7109375,558.039062 Z" id="Path-18" fill="#D8D8D8"></path>
                <path class="head" d="M110.828125,361.164063 C110.828125,310.960938 109.246094,293.144531 121.0625,274.300781 C132.878906,255.457031 186.59766,238.107422 211.976563,216.392578 C237.355465,194.677734 259.492191,167.740234 268.041016,148.267578 C276.58984,128.794922 278.880859,125.050781 278.880859,125.050781 C278.880859,125.050781 276.414066,138.464844 280.951172,150.978516 C285.488278,163.492188 293.037113,166.958984 299.271484,172.693359 C305.505856,178.427734 308.123051,184.859375 308.123047,193.734375 C308.123043,202.609375 318.218754,183.964844 321.359375,156.269531 C324.499996,128.574219 325.873051,101.611328 316.998047,88.0957031 C308.123043,74.5800781 304.414066,69.3457031 299.470703,69.3457031 C294.52734,69.3457031 292.306641,72.765625 292.306641,72.765625 C292.306641,72.765625 296.548832,63.1035156 282.294922,43.7832031 C268.041012,24.4628906 260.37582,7.86328125 238.816406,4.74609375 C217.256992,1.62890625 166.136719,-3.92968751 144.994141,2.43359374 C123.851563,8.79687499 60.3222655,41.7851563 50.7246094,99.4121122 C41.1269533,157.039068 46.1875,200.364716 50.7246094,236.817828 C55.2617188,273.270941 54.5570783,334.619885 43.7695313,382.826159 C38.9648438,404.29685 13.1542969,433.34375 9.83984375,436.308581 C6.52539063,439.273413 0.41796875,442.554675 0.41796875,442.554675 C0.41796875,442.554675 0.685546875,445.195312 7.17578125,449.335925 C13.6660156,453.476538 36.7089844,464.275403 50.7246094,467.740234 C64.7402344,471.205066 70.2519531,471.205078 70.2519531,471.205078 C70.2519531,471.205078 100.747559,474.816907 117.430176,472.580566 C134.112793,470.344226 144.994141,463.318848 144.994141,463.318848 C144.994141,463.318848 110.828125,411.367188 110.828125,361.164063 Z" id="Path-20" fill="#303030"></path>
                <path class="leftArm" d="M284.646851,471.40271 C284.658808,471.42279 284.733358,471.834645 284.862151,472.595417 C287.017993,485.331991 304.295751,595.348391 297.800781,603.041016 C290.916016,611.195312 277.074219,605.681641 277.074219,605.681641 L130.583984,594.958984 L113.753906,594.0625 L112.660156,574.662109 C112.660156,574.662109 126.990234,560.449219 133.177734,560.449219 C139.365234,560.449219 159.234375,561.148438 166.886719,565.160156 C174.539062,569.171875 268.511719,574.185547 268.511719,574.185547 L266.117676,539.833008 L270.770508,518.869629 C270.770508,518.869629 282.733887,508.261963 283.897095,505.974854 C285.060303,503.687744 285.496338,502.238892 285.971069,499.838379 C286.445801,497.437866 285.561035,493.55127 285.561035,492.54834 C285.561035,491.54541 283.235474,483.378662 282.92041,481.149414 C282.275879,478.856079 282.540161,473.273315 284.135864,471.897827" id="Path-333" fill="#D8D8D8"></path>
            </g>
        </g>
    </g>

    <!-- Mobile caracters -->
    <g class="mobile-shape" id="mobile-shape-1" stroke="none" stroke-width="1" fill="none" fill-rule="evenodd" sketch:type="MSPage">
        <g id="Group" sketch:type="MSLayerGroup" transform="translate(-1132.000000, -95.000000)">
            <g id="Oval-4" transform="translate(1132.000000, 96.000000)" sketch:type="MSShapeGroup">
                <path d="M0.884765625,443.011719 C0.884765625,443.011719 11.6933594,457.515625 35.7578125,468.833984 C59.8222656,480.152344 67.8808594,482.419922 67.8808594,482.419922 L70.4560547,470.658203 L0.884765625,443.011719 Z" id="Path-21" fill="#262626"></path>
                <path d="M97.3457031,247.816406 L96.3222656,366.960938 L284.798828,460.304688 L296.138672,448.636719 C296.138672,448.636719 256.207031,342.755859 256.207031,318.025391 C256.207031,293.294922 282.121094,242.931641 282.121094,242.931641 L97.3457031,247.816406 Z" id="Path-22" fill="#262626"></path>
                <path d="M250.216797,632.972656 C250.216797,632.972656 304.082031,569.613281 329.880859,534.439453 C355.679688,499.265625 376.162109,460.544922 376.162109,460.544922 L358.5625,448.705078 C358.5625,448.705078 284.087891,534.917969 265.115234,551.947266 C246.142578,568.976562 238.640625,575.257812 238.640625,575.257812 L250.216797,632.972656 Z" id="Path-19" fill="#D8D8D8" transform="translate(307.500000, 541.000000) rotate(-4.000000) translate(-307.500000, -541.000000) "></path>
                <path d="M109.84375,269.074219 C130.912477,289.703147 157.460873,303.925781 188.542969,303.925781 C220.685644,303.925781 255.859654,292.233275 278.527344,269.074219 C299.481728,247.665607 309.1875,215.978513 309.1875,186 C309.1875,123.591823 259.902767,68.03125 198.046875,68.03125 C136.190983,68.03125 86.90625,123.591823 86.90625,186 C86.90625,217.048562 88.9840016,248.649906 109.84375,269.074219 Z" fill="#D8D8D8"></path>
                <path d="M139.496094,344.546875 C139.496094,344.546875 113.373047,356.876953 108.40625,362.191406 C103.439453,367.505859 91.5507813,371.484375 81.4316406,417.382812 C71.3125,463.28125 56.3320313,530.302734 53.8886719,537.060547 C51.4453125,543.818359 48.8515625,548.158203 46.328125,551.181641 C43.8046875,554.205078 46.8886719,558.392578 50.3886719,558.392578 C53.8886719,558.392578 64.671876,562.904297 86.5390625,562.904297 C108.406249,562.904297 115.782227,555.092773 115.782227,555.092773 L115.061523,577.90332 L76.5556641,645.506836 C76.5556641,645.506836 74.8115226,687.904297 72.1943359,707.259766 C69.5771493,726.615234 61.8847657,774.334961 57.8867188,780.516602 C53.8886718,786.698242 48.3144532,788.355469 54.8339844,796.881836 C61.3535156,805.408203 102.969731,825.162109 145.105469,825.162109 C187.241206,825.162109 260.25977,812.861328 275.688477,807.725586 C291.117183,802.589844 305.786138,794.912109 308.803711,793.179688 C311.821284,791.447266 313.879888,789.189453 309.355469,786.398438 C304.83105,783.607422 278.485356,739.975586 275.344727,724.37207 C272.204097,708.768555 256.922856,635.936523 257.969727,602.821289 C259.016597,569.706055 268.79688,524.098633 271.227539,518.8125 C273.658198,513.526367 291.179688,509.329102 284.986323,488.339844 C278.792959,467.350586 287.730469,471.716797 287.730464,470.716797 C287.730459,469.716797 284.986323,458.060547 284.986323,458.060547 C284.986323,458.060547 273.052739,390.34375 267.643555,376.267578 C262.23437,362.191406 259.320317,345.769531 252.999023,342.378906 C246.67773,338.988281 220.750981,334.625977 216.848633,334.625977 C212.946284,334.625977 207.758789,335.672852 207.758789,335.672852 L139.496094,344.546875 Z" id="Path-17" fill="#999999"></path>
                <path class="tablet" d="M318.901155,347.127977 C316.746607,347.609582 314.857933,349.78768 314.68366,351.980607 L303.31634,495.019393 C303.14163,497.217822 304.697907,498.460665 306.817403,497.787413 L384.182597,473.212587 C386.290891,472.542894 388.149552,470.217836 388.335051,468.007304 L399.664949,332.992696 C399.849992,330.787591 398.244165,329.392481 396.098845,329.872023 L318.901155,347.127977 Z" id="Rectangle-3" fill="#282828"></path>
                <path d="M149.976562,291.541016 C149.976562,291.541016 151.023438,326.705078 151.023438,331.798828 C151.023438,336.892578 141.972656,341.998047 138.03125,345.068359 C134.089844,348.138672 163.216797,388.095703 176.953125,400.785156 C190.689453,413.474609 210.054685,423.441406 216.417969,427.384766 C222.781252,431.328125 225.875,433.271484 225.875,433.271484 C225.875,433.271484 219.848635,380.312988 214.683594,360.083984 C209.351032,339.198881 209.296877,335.845703 207.822266,335.845703 C204.963455,335.845703 198.138936,331.548811 197.644531,322.910156 C197.056341,312.632812 201.312498,291.541016 201.312498,291.541016 L149.976562,291.541016 Z" id="Path-16" fill="#D8D8D8"></path>
                <path class="visibleArm" d="M66.3203125,563.550781 C66.3203125,563.550781 63.6289062,619.490234 63.6289062,622.910156 C63.6289062,626.330078 64.8964844,642.175781 69.0136719,647.09375 C73.1308594,652.011719 90.5546875,654.023438 93.4511719,656.943359 C96.3476562,659.863281 118.923828,645.509766 126.205078,642.392578 C133.486328,639.275391 230.751953,564.599609 261.808594,536.427734 C292.865234,508.255859 308.392578,496.939453 308.392578,496.939453 C308.392578,496.939453 347.468262,472.633301 354.947754,465.154785 C359.273714,460.82939 364.01113,455.215209 367.56543,450.391602 C370.156438,446.875295 371.729492,442.324118 371.729492,441.335938 C371.729492,438.992188 369.685547,438.695313 369.685547,438.695313 C369.685547,438.695313 367.734086,441.403304 365.078125,445.816895 C362.918457,449.405762 356.794922,456.061523 354.375977,457.9375 C353.026187,458.984309 350.272283,460.904345 349.629395,461.182129 C348.368899,461.726774 348.807617,460.010254 348.807617,460.010254 C348.807617,460.010254 360.525879,449.23291 364.253418,443.760254 C366.227064,440.862608 368.278121,437.292636 370.453125,431.603027 C371.674805,428.407227 372.538574,421.721684 372.538574,420.936523 C372.538574,419.852051 371.045898,416.182617 369.685547,417.379883 C368.965135,418.013928 368.19043,420.936523 366.915039,425.251465 C365.877688,428.761063 363.859893,432.635853 361.825684,435.557617 C357.501465,441.768555 350.866211,448.82129 348.807617,450.391602 C346.749023,451.961913 342.763672,454.234376 344.683105,451.899902 C345.795669,450.546769 353.782701,441.744089 358.652344,434.621094 C362.183978,429.455251 362.949163,425.606311 363.704102,424.030273 C365.216437,420.873068 366.230356,417.946137 366.915039,415.603516 C367.900249,412.232655 368.19043,409.984305 368.19043,409.26416 C368.19043,407.906739 366.997559,401.866699 365.078125,404.771484 C364.368891,405.844808 363.704102,404.771484 360.165039,414.943848 C358.42642,419.941177 350.42041,432.050293 348.807617,434.621094 C344.822068,440.974082 340.54248,443.760254 340.54248,443.760254 C340.54248,443.760254 339.442871,441.701172 341.254395,439.477539 C343.803319,436.348751 348.195801,430.494629 350.42041,426.237793 C351.53783,424.099587 355.009425,418.323388 356.794922,413.47168 C358.564072,408.66439 358.652344,404.771484 358.652344,404.771484 C358.652344,404.771484 358.053711,400.996582 356.794922,400.996582 C355.536133,400.996582 354.375977,400.592285 354.375977,400.592285 C354.375977,400.592285 352.752441,403.619629 351.59082,407.906739 C349.34523,416.194374 337.581266,426.36281 334.433594,430.496093 C329.573323,436.878231 318.532715,444.033691 313.272461,442.20166 C308.012207,440.369629 308.769531,437.895508 308.769531,435.557617 C308.769531,433.219727 309.887207,414.943848 309.887207,414.943848 C309.887207,414.943848 310.46875,412.69336 308.267578,410.736328 C306.066406,408.779297 303.847656,407.906739 303.847656,407.906739 C303.847656,407.906739 302.588379,407.275391 302.588379,409.26416 C302.588379,411.25293 301.722168,416.30127 300.474609,418.115723 C299.227051,419.930176 285.760254,445.752152 285.760254,452.509765 C285.760254,456.610351 284.273926,464.893066 276.007812,471.423828 C274.793846,472.38294 273.08196,475.807883 268.394531,479.525391 C236.396979,504.902019 130.80469,582.869141 126.431641,582.869141 C121.417969,582.86914 114.486328,585.113282 114.486328,574.84375 C114.486328,564.574218 115.533203,553.779297 115.533203,553.779297 L66.3203125,563.550781 Z" id="Path-18" fill="#D8D8D8"></path>
                <path class="head" d="M110.828125,361.164063 C110.828125,310.960938 109.246094,293.144531 121.0625,274.300781 C132.878906,255.457031 186.59766,238.107422 211.976563,216.392578 C237.355465,194.677734 259.492191,167.740234 268.041016,148.267578 C276.58984,128.794922 278.880859,125.050781 278.880859,125.050781 C278.880859,125.050781 276.414066,138.464844 280.951172,150.978516 C285.488278,163.492188 293.037113,166.958984 299.271484,172.693359 C305.505856,178.427734 308.123051,184.859375 308.123047,193.734375 C308.123043,202.609375 318.218754,183.964844 321.359375,156.269531 C324.499996,128.574219 325.873051,101.611328 316.998047,88.0957031 C308.123043,74.5800781 304.414066,69.3457031 299.470703,69.3457031 C294.52734,69.3457031 292.306641,72.765625 292.306641,72.765625 C292.306641,72.765625 296.548832,63.1035156 282.294922,43.7832031 C268.041012,24.4628906 260.37582,7.86328125 238.816406,4.74609375 C217.256992,1.62890625 166.136719,-3.92968751 144.994141,2.43359374 C123.851563,8.79687499 60.3222655,41.7851563 50.7246094,99.4121122 C41.1269533,157.039068 46.1875,200.364716 50.7246094,236.817828 C55.2617188,273.270941 54.5570783,334.619885 43.7695313,382.826159 C38.9648438,404.29685 13.1542969,433.34375 9.83984375,436.308581 C6.52539063,439.273413 0.41796875,442.554675 0.41796875,442.554675 C0.41796875,442.554675 0.685546875,445.195312 7.17578125,449.335925 C13.6660156,453.476538 36.7089844,464.275403 50.7246094,467.740234 C64.7402344,471.205066 70.2519531,471.205078 70.2519531,471.205078 C70.2519531,471.205078 100.747559,474.816907 117.430176,472.580566 C134.112793,470.344226 144.994141,463.318848 144.994141,463.318848 C144.994141,463.318848 110.828125,411.367188 110.828125,361.164063 Z" id="Path-20" fill="#303030"></path>
            </g>
        </g>
    </g>

    <g class="mobile-shape" id="mobile-shape-2" stroke="none" stroke-width="1" fill="none" fill-rule="evenodd" sketch:type="MSPage">
        <g id="mobile" sketch:type="MSLayerGroup" transform="translate(-496.000000, -86.000000)">
            <g id="2" transform="translate(441.000000, 0.000000)">
                <rect id="Rectangle-16" sketch:type="MSShapeGroup" x="0" y="0" width="700" height="1000"></rect>
                <g id="right-earplug" transform="translate(211.000000, 254.000000)" sketch:type="MSShapeGroup">
                    <path d="M25.5800781,0.677734375 C25.5800781,0.677734375 10.4570312,-1.51953125 6.0625,2.24804688 C1.66796875,6.015625 -2.03125,21.2441393 2.015625,38.5742188 C6.0625,55.9042982 4.43554616,54.8554675 17.6953125,60.4160156 C30.9550788,65.9765638 25.5800781,0.677734375 25.5800781,0.677734375 Z" fill="#D0011B"></path>
                    <path d="M25.5800781,0.677734375 C25.5800781,0.677734375 10.4570312,-1.51953125 6.0625,2.24804688 C1.66796875,6.015625 -2.03125,21.2441393 2.015625,38.5742188 C6.0625,55.9042982 4.43554616,54.8554675 17.6953125,60.4160156 C30.9550788,65.9765638 25.5800781,0.677734375 25.5800781,0.677734375 Z" id="right-earplug-shadow" fill-opacity="0.159999996" fill="#000000"></path>
                </g>
                <g id="earplug-top" transform="translate(223.000000, 87.000000)">
                    <g id="mask">
                        <mask id="mask-2" sketch:name="earplug-top" fill="white">
                            <use xlink:href="#path-1"></use>
                        </mask>
                        <use id="earplug-top" fill="#D0011B" sketch:type="MSShapeGroup" xlink:href="#path-1"></use>
                        <path d="M259.754395,157.520508 C259.754395,157.520508 261.033691,162.486816 264.947754,163.359375 C268.861816,164.231934 271.499023,164.493652 271.499023,164.493652 C271.499023,164.493652 272.738281,101.276855 272.738281,96.5024414 C272.738281,91.7280273 269.912109,65.7939458 263.607422,58.2978521 C257.302734,50.8017583 226.286621,24.8120116 206.228516,18.5283199 C186.17041,12.2446282 185.061523,12.0166016 141.978027,8.68701174 C116.319119,6.70403334 93.0427588,8.73729298 73.8896484,15.8129883 C63.6859531,19.582519 53.6100665,23.263529 45.8466778,27.7900389 C29.154282,37.5226824 19.868164,47.8261717 19.868164,47.8261717 L15.6367187,52.4321288 C15.6367187,52.4321288 -2.56510263,108.464751 -0.0717773939,107.275883 C0.766792534,106.876035 -2.87916121,149.384954 -0.897460917,155.565922 C1.21312233,162.148878 9.04927438,132.177607 13.1943357,122.917484 C15.2598282,118.303146 14.8263299,95.2697434 18.4721677,75.0556677 C21.1680408,60.1086004 26.899507,54.5336957 29.5664063,50.7880858 C30.4739774,49.5134191 36.8144512,39.4365233 43.1142559,34.8149413 C49.4140606,30.1933592 73.7851871,18.893166 77.0302734,18.5283196 C96.5846983,16.3298075 114.263184,27.7900391 114.263184,27.7900391 L192.063965,37.78125 L246.211426,67.9824219 L256.211914,114.938477 L257.302734,152.177246 L259.754395,157.520508 Z" id="earplug-top-shadow" fill-opacity="0.190000013" fill="#000000" sketch:type="MSShapeGroup" mask="url(#mask-2)"></path>
                    </g>
                </g>
                <g id="head" transform="translate(220.000000, 134.000000)">
                    <mask id="mask-4" sketch:name="head" fill="white">
                        <use xlink:href="#path-3"></use>
                    </mask>
                    <use fill="#DADADA" sketch:type="MSShapeGroup" xlink:href="#path-3"></use>
                    <path d="M115.130859,0.513671875 C115.130859,0.513671875 13.1049753,137.502968 99.484375,228.070312 C117.613709,247.078614 152.630739,246.907621 189.085938,262.041016 C399.236328,349.279297 -39.1992188,252.96875 -39.1992188,252.96875 L-73.1289062,168.255859 L-13.1630859,87.1689453 L82.2001953,4.76367188 L115.130859,0.513671875 Z" id="head-shadow" fill-opacity="0.0599999987" fill="#000000" sketch:type="MSShapeGroup" mask="url(#mask-4)"></path>
                </g>
                <g id="body" transform="translate(141.000000, 458.000000)">
                    <mask id="mask-6" sketch:name="body" fill="white">
                        <use xlink:href="#path-5"></use>
                    </mask>
                    <use fill="#999999" sketch:type="MSShapeGroup" xlink:href="#path-5"></use>
                    <path d="M19.4208984,228.688477 C19.4208984,228.688477 12.0551758,225.205078 9.72314453,224.07666 C7.39111328,222.948242 4.70117187,222.11377 3.44775391,222.11377 C2.19433594,222.11377 0.815917969,221.705322 2.72949219,223.553223 C4.64306641,225.401123 16.0361328,234.728027 16.0361328,234.728027 L19.4208984,228.688477 Z" id="body-shadow-1" fill-opacity="0.19" fill="#000000" sketch:type="MSShapeGroup" mask="url(#mask-6)"></path>
                    <path d="M92.9693775,266.86377 C90.1815226,266.313339 87.3212891,264.967773 87.3212891,264.967773 L90.9243164,260.193359 C90.9243164,260.193359 97.6499023,264.232422 98.2983398,265.136719 C98.9467773,266.041016 98.6157227,266.86377 97.2255859,266.86377 C96.6839308,266.86377 94.7490931,267.215154 92.9693775,266.86377 Z" id="body-shadow-2" fill-opacity="0.19" fill="#000000" sketch:type="MSShapeGroup" mask="url(#mask-6)"></path>
                    <path d="M380.643311,274.852783 C380.643311,274.852783 357.989624,280.054321 356.752319,280.456421 C355.515015,280.858521 354.204224,281.802856 356.236938,281.988159 C358.057464,282.154119 368.098861,279.397502 371.862297,278.334444 C372.30094,278.210541 380.595826,275.534815 380.840942,275.464233 C380.984985,275.534815 380.643311,274.852783 380.643311,274.852783 Z" id="body-shadow-3" fill-opacity="0.19" fill="#000000" sketch:type="MSShapeGroup" mask="url(#mask-6)"></path>
                    <path d="M150.646484,9.7890625 C119.789459,17.6217818 89.2792969,40.6484375 83.0917969,43.765625 C76.9042969,46.8828125 72.8339844,48.8339844 69.9140625,54.7441406 C66.9941406,60.6542969 46.7324219,140.320312 46.7324219,147.181641 C46.7324219,154.042969 44.5097656,170.429687 44.5097656,173.279297 C44.5097656,176.128906 39.7724609,179.511719 38.4003906,179.511719 C37.0283203,179.511719 35.4238281,181.030273 36.9121094,183.000977 C38.4003906,184.97168 38.7685547,189.131836 35.9765625,192.922852 C33.1845703,196.713867 22.4775391,212.591797 17.0166016,215.720703 C11.5556641,218.849609 8.15429688,220.233398 8.15429688,220.233398 C8.15429688,220.233398 22.6943359,225.456055 27.1367188,228.323242 C31.5791016,231.19043 64.3046875,244.961914 67.8349609,246.782227 C71.3652344,248.602539 91.8027344,257.500977 94.9599609,260.344727 C98.1171875,263.188477 99.9140625,264.839844 99.9140625,264.839844 L109.125977,240.09375 L112.040039,209.147461 C112.040039,209.147461 112.686523,255.668945 110.90625,267.986328 C109.125977,280.303711 110.916016,287.112305 107.775391,298.441406 C104.634766,309.770508 99.9707031,344.578125 98.4990234,348.131836 C97.0273437,351.685547 98.0537109,397.31543 98.0537109,402.101562 C98.0537109,406.887695 95.5644531,430.924805 91.4238281,445.03418 C87.2832031,459.143555 81.2529297,477.19043 79.5947266,480.132812 C77.9365234,483.075195 75.1347656,483.708984 73.5,484.907227 C71.8652344,486.105469 75.4814453,492.451172 82.1123047,497.3125 C88.7431641,502.173828 118.079102,509.165039 121.631836,510.473633 C125.18457,511.782227 190.671875,524.875977 197.551758,526.43457 C204.431641,527.993164 244.671875,525.375977 250.219727,525.375977 C255.767578,525.375977 323.1875,512.475586 331.789062,509.084961 C340.390625,505.694336 346.201172,504.12793 346.201172,504.12793 C346.201172,504.12793 332.963867,498.306641 330.858398,480.18457 C328.75293,462.0625 301.03125,410.97168 301.03125,390.954102 C301.03125,370.936523 295.143555,300.560547 291.566406,278.076172 C287.989258,255.591797 279.035156,120.267578 281.142578,97.6972656 C283.25,75.1269531 296.617188,40.2617188 296.617188,40.2617188 C296.617188,40.2617188 277.098633,63.3222656 273.109375,65.8398438 C269.120117,68.3574219 247.537109,81.1699219 240.180664,81.1699219 C232.824219,81.1699219 206.692383,85.5722656 193.042969,75.1269531 C179.393555,64.6816406 170.768555,52.0673828 170.768555,52.0673828 C170.768555,52.0673828 155.601562,35.4814453 154.379883,25.6699219 C153.158203,15.8583984 153.686523,9.86230469 153.686523,9.86230469" id="body-shadow-4" fill-opacity="0.09" fill="#000000" sketch:type="MSShapeGroup" mask="url(#mask-6)"></path>
                    <path d="M355.586914,281.894531 C355.586914,281.894531 351.032227,285.674805 347.857422,278.120117 C344.682617,270.56543 344.362305,219.40918 342.006836,200.176758 C339.651367,180.944336 334.049805,141.900391 332.317383,136.589844 C330.584961,131.279297 329.636719,128.051758 329.636719,128.051758 C329.636719,128.051758 333.723633,130.994141 336.602539,138.660156 C339.481445,146.326172 351.141602,196.412109 353.364258,205.548828 C355.586914,214.685547 357.50293,250.65625 358.811523,256.128906 C360.120117,261.601562 359.208008,269.930664 364.331055,271.924805 C369.454102,273.918945 384.004883,268.183594 391.669922,264.543945 C399.334961,260.904297 426.681641,244.026367 426.681641,244.026367 C426.681641,244.026367 401.744141,262.172852 396.707031,264.405273 C391.669922,266.637695 386.737305,270.820312 378.15918,273.4375 C369.581055,276.054688 365.854492,276.292969 358.811523,278.120117 C351.768555,279.947266 355.586914,281.894531 355.586914,281.894531 Z" id="body-shadow-5" fill-opacity="0.09" fill="#000000" sketch:type="MSShapeGroup" mask="url(#mask-6)"></path>
                </g>
                <g id="neck" transform="translate(298.000000, 388.000000)">
                    <mask id="mask-8" sketch:name="neck" fill="white">
                        <use xlink:href="#path-7"></use>
                    </mask>
                    <use fill="#DADADA" sketch:type="MSShapeGroup" xlink:href="#path-7"></use>
                    <path d="M54.2763672,-4.63964844 C61.5791064,-4.63964844 80.6160626,-2.47290896 91.1669922,1.06542969 C98.8995783,3.6586143 99.7509766,7.921875 99.7509766,7.921875 C99.7509766,7.921875 81.0223477,10.8877114 74.8242188,19.1464844 C67.6287505,28.7341744 70.0897525,46.0328822 71.9863281,55.640625 C75.5166016,73.5244141 85.1298836,82.7607422 99.7509766,89.8154297 C114.37207,96.8701172 148.208984,100.696289 148.208984,100.696289 L132.331055,146.624023 L54.2763672,152.46875 L-6.15820312,115.080078 L-18.6220703,83.5351562 L-12.7773438,57.1015625 L19.390625,40.2880859 L24.59375,-2.78417969 C24.59375,-2.78417969 41.621582,-4.63964844 54.2763672,-4.63964844 Z" id="neck-shadow" fill-opacity="0.0599999987" fill="#000000" sketch:type="MSShapeGroup" mask="url(#mask-8)"></path>
                </g>
                <g id="left-arm" transform="translate(494.000000, 700.000000)">
                    <mask id="mask-10" sketch:name="left-arm" fill="white">
                        <use xlink:href="#path-9"></use>
                    </mask>
                    <use fill="#DADADA" sketch:type="MSShapeGroup" xlink:href="#path-9"></use>
                    <path d="M50.7109375,16.6777344 C50.7109375,16.6777344 73.7871094,110.720703 73.7871094,121.095703 C73.7871094,131.470703 65.5976562,167.957031 58.1542969,186.929688 C50.7109375,205.902344 10.7441406,274.679688 8.67382812,277.75 C6.60351563,280.820312 -5.98242188,260.080078 -5.98242188,260.080078 L28.390625,208.808594 L49.5253906,134.876953 L32.7988281,61.015625 L22.15625,26.9921875 L50.7109375,16.6777344 Z" id="left-arm-shadow" fill-opacity="0.06" fill="#000000" sketch:type="MSShapeGroup" mask="url(#mask-10)"></path>
                </g>
                <g id="mobile" transform="translate(56.000000, 471.000000)" sketch:type="MSShapeGroup">
                    <path d="M3.9069949,-0.0754937138 C1.19693645,-0.586084437 -0.723491731,1.21206615 -0.38037321,3.95701432 L12.3803732,106.042986 C12.7225836,108.780669 15.1868979,111.451265 17.8910815,112.009271 L71.1089185,122.990729 C73.8101882,123.548134 75.840197,121.762758 75.6433256,119.006558 L68.3566744,16.9934421 C68.1596886,14.2356402 65.8017391,11.5858349 63.0930051,11.0754937 L3.9069949,-0.0754937138 Z" fill="#D0011B"></path>
                    <path d="M3.8995249,3.95065409 C1.19359202,3.42562233 -0.712404238,5.21859588 -0.357456795,7.95676186 L12.3574568,106.043238 C12.7123236,108.780782 15.1890073,111.46651 17.8887715,112.041869 L69.1112285,122.958131 C71.8112225,123.533539 73.834745,121.769057 73.6301879,119.007537 L66.3698121,20.9924628 C66.1655705,18.2352017 63.8088821,15.5748577 61.1004751,15.0493459 L3.8995249,3.95065409 Z" id="mobile-shadow" class="fillHighlight" fill-opacity="0.160000011" fill="#000000"></path>
                </g>
                <g id="right-arm" transform="translate(59.000000, 490.000000)">
                    <mask id="mask-12" sketch:name="right-arm" fill="white">
                        <use xlink:href="#path-11"></use>
                    </mask>
                    <use fill="#DADADA" sketch:type="MSShapeGroup" xlink:href="#path-11"></use>
                    <path d="M117.527342,196.956055 L80.4628892,246.448242 C80.4628892,246.448242 83.5546861,256.499023 86.333983,265.210938 C89.1132799,273.922852 93.9882813,296.249023 93.9882813,299.989258 C93.9882813,303.729492 87.5156236,303.298828 87.5156236,303.298828 C87.5156236,303.298828 78.5107422,305.845703 72.0556641,288.933594 C65.6005859,272.021484 48.2285156,203.300781 48.2285156,196.956055 C48.2285156,190.611328 39.6035156,103.137695 41.2617188,96.4316406 C42.9199219,89.7255859 60.942383,75.2324219 63.2861328,71.8652344 C65.6298826,68.4980469 73.1845705,54.9658203 74.3828125,50.9755859 C75.5810545,46.9853516 73.6210938,43.53125 73.6210938,43.53125 L71.2619629,40.5275879 C71.2619629,40.5275879 68.8281252,46.4975586 67.7492676,48.3803711 C66.67041,50.2631836 61.9130861,58.8618164 59.8876953,60.5383301 C57.8623045,62.2148438 70.7473146,38.8537598 71.0046387,36.114502 C71.2619627,33.3752441 70.3127443,29.1411133 69.8547363,28.4462891 C69.3967283,27.7514648 67.3481445,25.0400391 67.3481445,25.0400391 L66.5280762,25.6040039 C66.5280762,25.6040039 55.492676,48.9909668 54.121582,50.751709 C52.7504881,52.5124512 55.2409668,46.7346191 55.2409668,46.7346191 C55.2409668,46.7346191 65.7075197,20.6491699 66.527832,18.1408691 C67.3481443,15.6325684 70.2138674,9.43310547 70.2138672,8.47924805 C70.213867,7.52539062 66.671631,1.8112793 66.1352539,1.8112793 C65.5988768,1.8112793 62.3085938,6.50024414 62.3085938,6.50024414 C62.3085938,6.50024414 38.5917971,33.1079102 35.5878906,35.1899414 C32.5839842,37.2719727 15.9711914,49.9042969 12.8771973,49.9042969 C9.78320313,49.9042969 4.00390625,47.9821777 3.26806641,47.6113281 C2.53222656,47.2404785 4.74389648,59.8713379 8.81054688,67.760498 C12.8771973,75.6496582 18.2109379,195.437988 17.4692383,201.58252 C16.7275386,207.727051 24.1342773,287.978027 24.1342773,287.978027 L28.1811523,323.416016 C28.1811523,323.416016 38.9169936,337.112305 43.5727539,339.723633 C48.2285142,342.334961 62.6596693,347.220703 65.0039062,347.220703 C67.3481432,347.220703 97.7812514,325.402344 103.303223,321.918457 C108.825194,318.43457 176.673828,226.018555 176.673828,226.018555 L117.527342,196.956055 Z" id="right-arm-shadow" fill-opacity="0.06" fill="#000000" sketch:type="MSShapeGroup" mask="url(#mask-12)"></path>
                </g>
                <g id="earplug-string" transform="translate(123.000000, 339.000000)" stroke="#D0011B" stroke-width="4" sketch:type="MSShapeGroup">
                    <path d="M351.976562,0.017578125 C351.976562,0.017578125 280.052734,257.621094 261.035156,284.783203 C253.722169,295.228074 249.096077,372.849656 224.527344,451.345703 C206.324219,509.503906 154.238281,532.908203 154.238281,532.908203 C154.238281,532.908203 123.728516,545.794922 105.304688,536.746094 C86.8808594,527.697266 59.6601563,500.853516 50.4375,471.761719 C41.7318298,444.300694 1.20117187,349.748291 1.20117187,349.371582 C1.20117187,348.994873 0.528497357,347.226858 0.103759766,347.382568" id="earplug-string-left"></path>
                    <path d="M119.242676,7.8828125 C113.303376,12.2563738 136.974385,82.9378254 147.822266,104.949219 C159.837891,129.330078 212.310543,236.775391 229.455078,257.197266 C246.599613,277.619141 260.511723,286.609375 260.511723,286.609375" id="earplug-string-right"></path>
                </g>
                <g id="left-earplug" transform="translate(450.000000, 242.000000)">
                    <mask id="mask-14" sketch:name="left-earplug" fill="white">
                        <use xlink:href="#path-13"></use>
                    </mask>
                    <use fill="#D0011B" sketch:type="MSShapeGroup" transform="translate(32.985291, 50.412489) rotate(4.000000) translate(-32.985291, -50.412489) " xlink:href="#path-13"></use>
                    <path d="M34.6859112,2.07922363 C34.6859112,2.07922363 41.7304669,1.52270508 45.6445294,5.23852539 C49.5585919,8.9543457 45.8955078,10.9990234 45.8955078,10.9990234 C45.8955078,10.9990234 33.3662109,17.3769531 29.7792969,22.7753906 C26.1923828,28.1738281 17.765625,52.0537109 21.2148438,69.0136719 C24.6640625,85.9736328 24.1513672,84.9013672 28.1875,90.4619141 C32.2236328,96.0224609 41.5917969,96.171875 41.5917969,96.171875 C41.5917969,96.171875 34.5781249,100.295898 30.6464844,100.295898 C26.7148438,100.295898 2.96386796,99.6494141 1.40527344,96.2822266 C-0.153321089,92.9150391 0.893554688,47.4003906 0.893554688,47.4003906 L9.09375,11.2666016 L26.1923828,0.309570312 L34.6859112,2.07922363 Z" id="left-earplug-shadow" fill-opacity="0.160000011" fill="#000000" sketch:type="MSShapeGroup" mask="url(#mask-14)"></path>
                </g>
                <g id="hairs" transform="translate(254.000000, 131.000000)" stroke="#999999" sketch:type="MSShapeGroup">
                    <path d="M13.5,38.5 L13.5,32.5" id="Line" stroke-linecap="round" stroke-linejoin="round"></path>
                    <path d="M16.5,36.5 L16.5,30.5" id="Line-2" stroke-linecap="round" stroke-linejoin="round"></path>
                    <path d="M18.5,37.5 L18.5,31.5" id="Line-3" stroke-linecap="round" stroke-linejoin="round"></path>
                    <path d="M28.5,37.5 L28.5,31.5" id="Line-4" stroke-linecap="round" stroke-linejoin="round"></path>
                    <path d="M31.5,27.5 L31.5,21.5" id="Line-5" stroke-linecap="round" stroke-linejoin="round"></path>
                    <path d="M33.5,37.5 L33.5,31.5" id="Line-6" stroke-linecap="round" stroke-linejoin="round"></path>
                    <path d="M23.5,32.5 L23.5,26.5" id="Line-7" stroke-linecap="round" stroke-linejoin="round"></path>
                    <path d="M25.5,31.5 L25.5,25.5" id="Line-2" stroke-linecap="round" stroke-linejoin="round"></path>
                    <path d="M28.5,29.5 L28.5,23.5" id="Line-3" stroke-linecap="round" stroke-linejoin="round"></path>
                    <path d="M30.5,30.5 L30.5,24.5" id="Line-4" stroke-linecap="round" stroke-linejoin="round"></path>
                    <path d="M40.5,30.5 L40.5,24.5" id="Line-5" stroke-linecap="round" stroke-linejoin="round"></path>
                    <path d="M43.5,20.5 L43.5,14.5" id="Line-6" stroke-linecap="round" stroke-linejoin="round"></path>
                    <path d="M45.5,30.5 L45.5,24.5" id="Line-7" stroke-linecap="round" stroke-linejoin="round"></path>
                    <path d="M35.5,25.5 L35.5,19.5" id="Line-8" stroke-linecap="round" stroke-linejoin="round"></path>
                    <path d="M49.5,24.5 L49.5,18.5" id="Line-3" stroke-linecap="round" stroke-linejoin="round"></path>
                    <path d="M52.5,22.5 L52.5,16.5" id="Line-4" stroke-linecap="round" stroke-linejoin="round"></path>
                    <path d="M54.5,23.5 L54.5,17.5" id="Line-5" stroke-linecap="round" stroke-linejoin="round"></path>
                    <path d="M64.5,23.5 L64.5,17.5" id="Line-6" stroke-linecap="round" stroke-linejoin="round"></path>
                    <path d="M67.5,13.5 L67.5,7.5" id="Line-7" stroke-linecap="round" stroke-linejoin="round"></path>
                    <path d="M69.5,23.5 L69.5,17.5" id="Line-8" stroke-linecap="round" stroke-linejoin="round"></path>
                    <path d="M59.5,18.5 L59.5,12.5" id="Line-9" stroke-linecap="round" stroke-linejoin="round"></path>
                    <path d="M113.5,22.5 L113.5,16.5" id="Line-4" stroke-linecap="round" stroke-linejoin="round"></path>
                    <path d="M116.5,20.5 L116.5,14.5" id="Line-5" stroke-linecap="round" stroke-linejoin="round"></path>
                    <path d="M118.5,21.5 L118.5,15.5" id="Line-6" stroke-linecap="round" stroke-linejoin="round"></path>
                    <path d="M128.5,21.5 L128.5,15.5" id="Line-7" stroke-linecap="round" stroke-linejoin="round"></path>
                    <path d="M131.5,11.5 L131.5,5.5" id="Line-8" stroke-linecap="round" stroke-linejoin="round"></path>
                    <path d="M133.5,21.5 L133.5,15.5" id="Line-9" stroke-linecap="round" stroke-linejoin="round"></path>
                    <path d="M123.5,16.5 L123.5,10.5" id="Line-10" stroke-linecap="round" stroke-linejoin="round"></path>
                    <path d="M127.5,31.5 L127.5,25.5" id="Line-5" stroke-linecap="round" stroke-linejoin="round"></path>
                    <path d="M130.5,29.5 L130.5,23.5" id="Line-6" stroke-linecap="round" stroke-linejoin="round"></path>
                    <path d="M132.5,30.5 L132.5,24.5" id="Line-7" stroke-linecap="round" stroke-linejoin="round"></path>
                    <path d="M142.5,30.5 L142.5,24.5" id="Line-8" stroke-linecap="round" stroke-linejoin="round"></path>
                    <path d="M145.5,20.5 L145.5,14.5" id="Line-9" stroke-linecap="round" stroke-linejoin="round"></path>
                    <path d="M147.5,30.5 L147.5,24.5" id="Line-10" stroke-linecap="round" stroke-linejoin="round"></path>
                    <path d="M137.5,25.5 L137.5,19.5" id="Line-11" stroke-linecap="round" stroke-linejoin="round"></path>
                    <path d="M147.5,41.5 L147.5,35.5" id="Line-6" stroke-linecap="round" stroke-linejoin="round"></path>
                    <path d="M150.5,39.5 L150.5,33.5" id="Line-7" stroke-linecap="round" stroke-linejoin="round"></path>
                    <path d="M152.5,40.5 L152.5,34.5" id="Line-8" stroke-linecap="round" stroke-linejoin="round"></path>
                    <path d="M162.5,40.5 L162.5,34.5" id="Line-9" stroke-linecap="round" stroke-linejoin="round"></path>
                    <path d="M165.5,30.5 L165.5,24.5" id="Line-10" stroke-linecap="round" stroke-linejoin="round"></path>
                    <path d="M167.5,40.5 L167.5,34.5" id="Line-11" stroke-linecap="round" stroke-linejoin="round"></path>
                    <path d="M157.5,35.5 L157.5,29.5" id="Line-12" stroke-linecap="round" stroke-linejoin="round"></path>
                    <path d="M193.5,83.5 L193.5,77.5" id="Line-7" stroke-linecap="round" stroke-linejoin="round"></path>
                    <path d="M196.5,81.5 L196.5,75.5" id="Line-8" stroke-linecap="round" stroke-linejoin="round"></path>
                    <path d="M198.5,82.5 L198.5,76.5" id="Line-9" stroke-linecap="round" stroke-linejoin="round"></path>
                    <path d="M208.5,82.5 L208.5,76.5" id="Line-10" stroke-linecap="round" stroke-linejoin="round"></path>
                    <path d="M211.5,72.5 L211.5,66.5" id="Line-11" stroke-linecap="round" stroke-linejoin="round"></path>
                    <path d="M213.5,82.5 L213.5,76.5" id="Line-12" stroke-linecap="round" stroke-linejoin="round"></path>
                    <path d="M203.5,77.5 L203.5,71.5" id="Line-13" stroke-linecap="round" stroke-linejoin="round"></path>
                    <path d="M201.5,101.5 L201.5,95.5" id="Line-8" stroke-linecap="round" stroke-linejoin="round"></path>
                    <path d="M204.5,99.5 L204.5,93.5" id="Line-9" stroke-linecap="round" stroke-linejoin="round"></path>
                    <path d="M206.5,100.5 L206.5,94.5" id="Line-10" stroke-linecap="round" stroke-linejoin="round"></path>
                    <path d="M216.5,100.5 L216.5,94.5" id="Line-11" stroke-linecap="round" stroke-linejoin="round"></path>
                    <path d="M219.5,90.5 L219.5,84.5" id="Line-12" stroke-linecap="round" stroke-linejoin="round"></path>
                    <path d="M221.5,100.5 L221.5,94.5" id="Line-13" stroke-linecap="round" stroke-linejoin="round"></path>
                    <path d="M211.5,95.5 L211.5,89.5" id="Line-14" stroke-linecap="round" stroke-linejoin="round"></path>
                    <path d="M75.5,6.5 L75.5,1.5" id="Line" stroke-linecap="square"></path>
                    <path d="M78.5,8.5 L78.5,3.5" id="Line-2" stroke-linecap="square"></path>
                    <path d="M72.5,10.5 L72.5,5.5" id="Line-3" stroke-linecap="square"></path>
                    <path d="M76.5,13.5 L76.5,8.5" id="Line-4" stroke-linecap="square"></path>
                    <path d="M81.5,15.5 L81.5,10.5" id="Line-5" stroke-linecap="square"></path>
                    <path d="M87.5,12.5 L87.5,7.5" id="Line-6" stroke-linecap="square"></path>
                    <path d="M90.5,7.5 L90.5,1.5" id="Line-7" stroke-linecap="square"></path>
                    <path d="M94.5,16.5 L94.5,11.5" id="Line-4" stroke-linecap="square"></path>
                    <path d="M98.5,19.5 L98.5,14.5" id="Line-5" stroke-linecap="square"></path>
                    <path d="M103.5,21.5 L103.5,16.5" id="Line-6" stroke-linecap="square"></path>
                    <path d="M109.5,18.5 L109.5,13.5" id="Line-7" stroke-linecap="square"></path>
                    <path d="M112.5,13.5 L112.5,7.5" id="Line-8" stroke-linecap="square"></path>
                    <path d="M107.5,26.5 L107.5,21.5" id="Line-5" stroke-linecap="square"></path>
                    <path d="M111.5,29.5 L111.5,24.5" id="Line-6" stroke-linecap="square"></path>
                    <path d="M116.5,31.5 L116.5,26.5" id="Line-7" stroke-linecap="square"></path>
                    <path d="M122.5,28.5 L122.5,23.5" id="Line-8" stroke-linecap="square"></path>
                    <path d="M125.5,23.5 L125.5,17.5" id="Line-9" stroke-linecap="square"></path>
                    <path d="M156.5,43.5 L156.5,38.5" id="Line-6" stroke-linecap="square"></path>
                    <path d="M160.5,46.5 L160.5,41.5" id="Line-7" stroke-linecap="square"></path>
                    <path d="M165.5,48.5 L165.5,43.5" id="Line-8" stroke-linecap="square"></path>
                    <path d="M171.5,45.5 L171.5,40.5" id="Line-9" stroke-linecap="square"></path>
                    <path d="M174.5,40.5 L174.5,34.5" id="Line-10" stroke-linecap="square"></path>
                    <path d="M176.5,54.5 L176.5,49.5" id="Line-7" stroke-linecap="square"></path>
                    <path d="M180.5,57.5 L180.5,52.5" id="Line-8" stroke-linecap="square"></path>
                    <path d="M185.5,59.5 L185.5,54.5" id="Line-9" stroke-linecap="square"></path>
                    <path d="M191.5,56.5 L191.5,51.5" id="Line-10" stroke-linecap="square"></path>
                    <path d="M194.5,51.5 L194.5,45.5" id="Line-11" stroke-linecap="square"></path>
                    <path d="M169.5,44.5 L169.5,39.5" id="Line-8" stroke-linecap="square"></path>
                    <path d="M173.5,47.5 L173.5,42.5" id="Line-9" stroke-linecap="square"></path>
                    <path d="M178.5,49.5 L178.5,44.5" id="Line-10" stroke-linecap="square"></path>
                    <path d="M184.5,46.5 L184.5,41.5" id="Line-11" stroke-linecap="square"></path>
                    <path d="M187.5,41.5 L187.5,35.5" id="Line-12" stroke-linecap="square"></path>
                    <path d="M179.5,71.5 L179.5,66.5" id="Line-9" stroke-linecap="square"></path>
                    <path d="M183.5,74.5 L183.5,69.5" id="Line-10" stroke-linecap="square"></path>
                    <path d="M188.5,76.5 L188.5,71.5" id="Line-11" stroke-linecap="square"></path>
                    <path d="M194.5,73.5 L194.5,68.5" id="Line-12" stroke-linecap="square"></path>
                    <path d="M197.5,68.5 L197.5,62.5" id="Line-13" stroke-linecap="square"></path>
                    <path d="M192.5,88.5 L192.5,83.5" id="Line-10" stroke-linecap="square"></path>
                    <path d="M196.5,91.5 L196.5,86.5" id="Line-11" stroke-linecap="square"></path>
                    <path d="M201.5,93.5 L201.5,88.5" id="Line-12" stroke-linecap="square"></path>
                    <path d="M207.5,90.5 L207.5,85.5" id="Line-13" stroke-linecap="square"></path>
                    <path d="M210.5,85.5 L210.5,79.5" id="Line-14" stroke-linecap="square"></path>
                    <path d="M56.5,28.5 L56.5,23.5" id="Line-11" stroke-linecap="square"></path>
                    <path d="M60.5,31.5 L60.5,26.5" id="Line-12" stroke-linecap="square"></path>
                    <path d="M65.5,33.5 L65.5,28.5" id="Line-13" stroke-linecap="square"></path>
                    <path d="M71.5,30.5 L71.5,25.5" id="Line-14" stroke-linecap="square"></path>
                    <path d="M74.5,25.5 L74.5,19.5" id="Line-15" stroke-linecap="square"></path>
                    <path d="M104.5,5.5 L104.5,0.400980473" id="Line" stroke-linecap="square"></path>
                    <path d="M152.5,19.5 L152.5,14.5" id="Line" stroke-linecap="square"></path>
                    <path d="M157.5,22.5 L157.5,19.3377224" id="Line" stroke-linecap="square"></path>
                    <path d="M217.5,113.5 L217.5,108.5" id="Line" stroke-linecap="square"></path>
                    <path d="M213.5,111.5 L213.5,106.5" id="Line-2" stroke-linecap="square"></path>
                    <path d="M223.5,110.5 L223.5,105.5" id="Line-3" stroke-linecap="square"></path>
                    <path d="M219.5,109.5 L219.5,104.5" id="Line-4" stroke-linecap="square"></path>
                    <path d="M210.5,117.5 L210.5,112.5" id="Line-5" stroke-linecap="square"></path>
                    <path d="M193.5,61.5 L193.5,56.5" id="Line-3" stroke-linecap="square"></path>
                    <path d="M203.5,60.5 L203.5,55.5" id="Line-4" stroke-linecap="square"></path>
                    <path d="M199.5,59.5 L199.5,54.5" id="Line-5" stroke-linecap="square"></path>
                    <path d="M190.5,67.5 L190.5,62.5" id="Line-6" stroke-linecap="square"></path>
                    <path d="M80.5,27.5 L80.5,22.5" id="Line-4" stroke-linecap="square"></path>
                    <path d="M90.5,26.5 L90.5,21.5" id="Line-5" stroke-linecap="square"></path>
                    <path d="M86.5,25.5 L86.5,20.5" id="Line-6" stroke-linecap="square"></path>
                    <path d="M77.5,33.5 L77.5,28.5" id="Line-7" stroke-linecap="square"></path>
                    <path d="M95.5,27.5 L95.5,22.5" id="Line-5" stroke-linecap="square"></path>
                    <path d="M105.5,26.5 L105.5,21.5" id="Line-6" stroke-linecap="square"></path>
                    <path d="M101.5,25.5 L101.5,20.5" id="Line-7" stroke-linecap="square"></path>
                    <path d="M92.5,33.5 L92.5,28.5" id="Line-8" stroke-linecap="square"></path>
                    <path d="M4.5,46.5 L4.5,41.5" id="Line-6" stroke-linecap="square"></path>
                    <path d="M14.5,45.5 L14.5,40.5" id="Line-7" stroke-linecap="square"></path>
                    <path d="M10.5,44.5 L10.5,39.5" id="Line-8" stroke-linecap="square"></path>
                    <path d="M1.5,52.5 L1.5,47.5" id="Line-9" stroke-linecap="square"></path>
                    <path d="M55.5,12.5 L55.5,8.37689438" id="Line" stroke-linecap="square"></path>
                </g>
            </g>
        </g>
    </g>

    </defs>
</svg>