<?xml version="1.0" encoding="UTF-8" standalone="no"?>
<svg width="400px" height="833px" viewBox="0 0 400 833" version="1.1" xmlns="http://www.w3.org/2000/svg" xmlns:xlink="http://www.w3.org/1999/xlink" xmlns:sketch="http://www.bohemiancoding.com/sketch/ns">
    <!-- Generator: Sketch 3.1 (8751) - http://www.bohemiancoding.com/sketch -->
    <title>mobile-shape-3</title>
    <desc>Created with Sketch.</desc>
    <defs>
        <path id="path-1" d="M17.2167969,188.972656 C17.2167969,188.972656 71.0820312,125.613281 96.8808594,90.4394531 C122.679687,55.265625 143.162109,16.5449219 143.162109,16.5449219 L125.5625,4.70507812 C125.5625,4.70507812 51.0878906,90.9179688 32.1152344,107.947266 C13.1425781,124.976562 5.640625,131.257812 5.640625,131.257812 L17.2167969,188.972656 Z"></path>
        <path id="path-3" d="M22.84375,201.074219 C43.9124767,221.703147 70.4608729,235.925781 101.542969,235.925781 C133.685644,235.925781 168.859654,224.233275 191.527344,201.074219 C212.481728,179.665607 222.1875,147.978513 222.1875,118 C222.1875,55.5918233 172.902767,0.03125 111.046875,0.03125 C49.190983,0.03125 -0.09375,55.5918233 -0.09375,118 C-0.09375,149.048562 1.98400162,180.649906 22.84375,201.074219 Z"></path>
        <path id="path-5" d="M11.9765625,-0.458984375 C11.9765625,-0.458984375 13.0234375,34.7050781 13.0234375,39.7988281 C13.0234375,44.8925781 3.97265625,49.9980469 0.03125,53.0683594 C-3.91015625,56.1386719 25.2167969,96.0957031 38.953125,108.785156 C52.6894531,121.474609 72.0546853,131.441406 78.4179688,135.384766 C84.7812522,139.328125 87.875,141.271484 87.875,141.271484 C87.875,141.271484 81.848635,88.3129883 76.6835938,68.0839844 C71.3510316,47.198881 71.2968772,43.8457031 69.8222656,43.8457031 C66.9634553,43.8457031 60.1389361,39.5488111 59.6445312,30.9101562 C59.0563414,20.6328125 63.3124984,-0.458984375 63.3124984,-0.458984375 L11.9765625,-0.458984375 Z"></path>
        <path id="path-7" d="M1.62011719,156.201172 C1.62011719,156.201172 -0.37109375,218.490234 -0.37109375,221.910156 C-0.37109375,225.330078 0.896484375,241.175781 5.01367188,246.09375 C9.13085937,251.011719 26.5546875,253.023438 29.4511719,255.943359 C32.3476562,258.863281 54.9238281,244.509766 62.2050781,241.392578 C69.4863281,238.275391 166.751953,163.599609 197.808594,135.427734 C228.865234,107.255859 244.392578,95.9394531 244.392578,95.9394531 C244.392578,95.9394531 283.468262,71.6333008 290.947754,64.1547852 C295.273714,59.82939 300.01113,54.2152093 303.56543,49.3916016 C306.156438,45.8752949 307.729492,41.3241184 307.729492,40.3359375 C307.729492,37.9921875 305.685547,37.6953125 305.685547,37.6953125 C305.685547,37.6953125 303.734086,40.4033039 301.078125,44.8168946 C298.918457,48.4057617 292.794922,55.0615235 290.375977,56.9375 C289.026187,57.9843088 286.272283,59.9043446 285.629395,60.1821289 C284.368899,60.7267736 284.807617,59.0102539 284.807617,59.0102539 C284.807617,59.0102539 296.525879,48.2329102 300.253418,42.7602539 C302.227064,39.8626081 304.278121,36.2926361 306.453125,30.6030274 C307.674805,27.4072266 308.538574,20.721684 308.538574,19.9365235 C308.538574,18.8520508 307.045898,15.1826172 305.685547,16.3798828 C304.965135,17.0139279 304.19043,19.9365235 302.915039,24.2514649 C301.877688,27.761063 299.859893,31.6358533 297.825684,34.5576172 C293.501465,40.7685547 286.866211,47.8212897 284.807617,49.3916016 C282.749023,50.9619134 278.763672,53.2343757 280.683105,50.8999023 C281.795669,49.5467685 289.782701,40.7440886 294.652344,33.6210938 C298.183978,28.4552511 298.949163,24.606311 299.704102,23.0302735 C301.216437,19.8730676 302.230356,16.9461366 302.915039,14.6035157 C303.900249,11.2326547 304.19043,8.98430548 304.19043,8.26416019 C304.19043,6.90673879 302.997559,0.866699248 301.078125,3.7714844 C300.368891,4.84480762 299.704102,3.7714844 296.165039,13.9438477 C294.42642,18.9411768 286.42041,31.050293 284.807617,33.6210938 C280.822068,39.9740816 276.54248,42.7602539 276.54248,42.7602539 C276.54248,42.7602539 275.442871,40.7011719 277.254395,38.4775391 C279.803319,35.348751 284.195801,29.4946289 286.42041,25.237793 C287.53783,23.099587 291.009425,17.3233882 292.794922,12.4716797 C294.564072,7.66439039 294.652344,3.77148441 294.652344,3.7714844 C294.652344,3.7714844 294.053711,-0.00341793993 292.794922,-0.00341793993 C291.536133,-0.00341793993 290.375977,-0.407714815 290.375977,-0.407714815 C290.375977,-0.407714815 288.752441,2.61962894 287.59082,6.90673879 C285.34523,15.1943739 273.581266,25.3628102 270.433594,29.4960934 C265.573323,35.8782313 254.532715,43.0336911 249.272461,41.2016598 C244.012207,39.3696286 244.769531,36.8955078 244.769531,34.5576172 C244.769531,32.2197266 245.887207,13.943848 245.887207,13.943848 C245.887207,13.943848 246.46875,11.6933597 244.267578,9.73632844 C242.066406,7.77929719 239.847656,6.90673859 239.847656,6.90673859 C239.847656,6.90673859 238.588379,6.27539094 238.588379,8.26416047 C238.588379,10.25293 237.722168,15.3012695 236.474609,17.115723 C235.227051,18.9301764 221.760254,44.7521525 221.760254,51.5097653 C221.760254,55.6103512 220.273926,63.8930661 212.007812,70.4238282 C210.793846,71.3829398 209.08196,74.8078832 204.394531,78.5253907 C172.396979,103.902019 66.8046898,181.869141 62.4316406,181.869141 C57.4179688,181.86914 52.3212891,184.695313 52.3212891,174.425781 L52.3212891,152.552734 L1.62011719,156.201172 Z"></path>
        <path id="path-9" d="M110.828125,361.164063 C110.828125,310.960938 109.246094,293.144531 121.0625,274.300781 C132.878906,255.457031 186.59766,238.107422 211.976563,216.392578 C237.355465,194.677734 259.492191,167.740234 268.041016,148.267578 C276.58984,128.794922 278.880859,125.050781 278.880859,125.050781 C278.880859,125.050781 276.414066,138.464844 280.951172,150.978516 C285.488278,163.492188 293.037113,166.958984 299.271484,172.693359 C305.505856,178.427734 308.123051,184.859375 308.123047,193.734375 C308.123043,202.609375 318.218754,183.964844 321.359375,156.269531 C324.499996,128.574219 325.873051,101.611328 316.998047,88.0957031 C308.123043,74.5800781 304.414066,69.3457031 299.470703,69.3457031 C294.52734,69.3457031 292.306641,72.765625 292.306641,72.765625 C292.306641,72.765625 296.548832,63.1035156 282.294922,43.7832031 C268.041012,24.4628906 260.37582,7.86328125 238.816406,4.74609375 C217.256992,1.62890625 166.136719,-3.92968751 144.994141,2.43359374 C123.851563,8.79687499 60.3222655,41.7851563 50.7246094,99.4121122 C41.1269533,157.039068 46.1875,200.364716 50.7246094,236.817828 C55.2617188,273.270941 54.5570783,334.619885 43.7695313,382.826159 C38.9648438,404.29685 13.1542969,433.34375 9.83984375,436.308581 C6.52539063,439.273413 0.41796875,442.554675 0.41796875,442.554675 C0.41796875,442.554675 0.685546875,445.195312 7.17578125,449.335925 C13.6660156,453.476538 36.7089844,464.275403 50.7246094,467.740234 C64.7402344,471.205066 70.2519531,471.205078 70.2519531,471.205078 C70.2519531,471.205078 100.747559,474.816907 117.430176,472.580566 C134.112793,470.344226 144.994141,463.318848 144.994141,463.318848 C144.994141,463.318848 110.828125,411.367188 110.828125,361.164063 Z"></path>
    </defs>
    <g id="Page-1" stroke="none" stroke-width="1" fill="none" fill-rule="evenodd" sketch:type="MSPage">
        <g id="mobile" sketch:type="MSLayerGroup" transform="translate(-1221.000000, -139.000000)">
            <g id="mobile-shape-3" transform="translate(1070.000000, 0.000000)">
                <rect id="bg-3" sketch:type="MSShapeGroup" x="0" y="0" width="700" height="1000"></rect>
                <g id="hairs-back" transform="translate(152.000000, 383.000000)" sketch:type="MSShapeGroup">
                    <path d="M96.3457031,4.81640625 L95.3222656,123.960938 L283.798828,217.304688 L295.138672,205.636719 C295.138672,205.636719 255.207031,99.7558594 255.207031,75.0253906 C255.207031,50.2949219 281.121094,-0.068359375 281.121094,-0.068359375 L96.3457031,4.81640625 Z" fill="#222222"></path>
                    <path d="M-0.115234375,200.011719 C-0.115234375,200.011719 10.6933594,214.515625 34.7578125,225.833984 C58.8222656,237.152344 66.8808594,239.419922 66.8808594,239.419922 L69.4560547,227.658203 L-0.115234375,200.011719 Z" id="hairs-back-2" fill="#262626"></path>
                </g>
                <g id="left-arm" transform="translate(384.000000, 584.000000)">
                    <mask id="mask-2" sketch:name="left-arm" fill="white">
                        <use xlink:href="#path-1"></use>
                    </mask>
                    <use fill="#DADADA" sketch:type="MSShapeGroup" transform="translate(74.500000, 97.000000) rotate(-4.000000) translate(-74.500000, -97.000000) " xlink:href="#path-1"></use>
                    <path d="M98.1679688,41.1582031 C98.1679688,41.1582031 64.4707031,99.0859375 48.2910156,117.753906 C32.1113281,136.421875 18.0253906,144.949219 18.0253906,144.949219 L13.5136719,107.832031 L52.7460938,78.1933594 L86.9199219,40.8789062 L98.1679688,41.1582031 Z" id="left-arm-shadow" fill-opacity="0.06" fill="#000000" sketch:type="MSShapeGroup" mask="url(#mask-2)"></path>
                </g>
                <g id="head" transform="translate(238.000000, 208.000000)">
                    <mask id="mask-4" sketch:name="head" fill="white">
                        <use xlink:href="#path-3"></use>
                    </mask>
                    <use fill="#DADADA" sketch:type="MSShapeGroup" xlink:href="#path-3"></use>
                    <path d="M100.314453,105.449219 C100.314453,105.449219 59.1386719,173.251953 100.314453,202.087891 C141.490234,230.923828 189.820312,207.367188 189.820312,207.367188 L154.949219,232.96875 L123.742188,239.076172 L95.7441406,239.076172 L56.4296875,234.458984 L27.140625,215.835938 L15.4511719,190.410156 L100.314453,105.449219 Z" id="head-shadow" fill-opacity="0.06" fill="#000000" sketch:type="MSShapeGroup" mask="url(#mask-4)"></path>
                </g>
                <g id="t-shirt" transform="translate(196.000000, 475.000000)" sketch:type="MSShapeGroup">
                    <path d="M94.4960938,9.546875 C94.4960938,9.546875 68.3730469,21.8769531 63.40625,27.1914062 C58.4394531,32.5058594 46.5507813,36.484375 36.4316406,82.3828125 C26.3125,128.28125 11.3320313,195.302734 8.88867188,202.060547 C6.4453125,208.818359 3.8515625,213.158203 1.328125,216.181641 C-1.1953125,219.205078 1.88867188,223.392578 5.38867188,223.392578 C8.88867188,223.392578 19.671876,227.904297 41.5390625,227.904297 C63.406249,227.904297 70.7822266,220.092773 70.7822266,220.092773 L70.0615234,242.90332 L31.5556641,310.506836 C31.5556641,310.506836 29.8115226,352.904297 27.1943359,372.259766 C24.5771493,391.615234 16.8847657,439.334961 12.8867188,445.516602 C8.8886718,451.698242 3.3144532,453.355469 9.83398438,461.881836 C16.3535156,470.408203 57.9697314,490.162109 100.105469,490.162109 C142.241206,490.162109 215.25977,477.861328 230.688477,472.725586 C246.117183,467.589844 260.786138,459.912109 263.803711,458.179688 C266.821284,456.447266 268.879888,454.189453 264.355469,451.398438 C259.83105,448.607422 233.485356,404.975586 230.344727,389.37207 C227.204097,373.768555 211.922856,300.936523 212.969727,267.821289 C214.016597,234.706055 223.79688,189.098633 226.227539,183.8125 C228.658198,178.526367 246.179688,174.329102 239.986323,153.339844 C233.792959,132.350586 242.730469,136.716797 242.730464,135.716797 C242.730459,134.716797 239.986323,123.060547 239.986323,123.060547 C239.986323,123.060547 228.052739,55.34375 222.643555,41.2675781 C217.23437,27.1914062 214.320317,10.7695312 207.999023,7.37890625 C201.67773,3.98828125 175.750981,-0.374023438 171.848633,-0.374023438 C167.946284,-0.374023438 162.758789,0.672851562 162.758789,0.672851562 L94.4960938,9.546875 Z" fill="#999999"></path>
                    <path d="M20.6330566,222.126953 C20.6330566,222.126953 14.5205078,222.129883 11.1794434,222.448242 C7.83837891,222.766602 6.49926758,222.772461 5.61376953,222.772461 C4.72827148,222.772461 6.09643555,223.15918 10.3027344,223.729248 C14.5090332,224.299316 20.5981445,225.86377 20.5981445,225.86377 L20.6330566,222.126953 Z" id="t-shirt-shadow-1" fill-opacity="0.22" fill="#000000"></path>
                    <path d="M28.2695313,135.546875 C28.2695313,135.546875 25.8271484,152.133789 23.5703125,161.607422 C21.3134766,171.081055 18.0869141,190.972656 15.1201172,199.061523 C12.1533203,207.150391 10.1005859,210.925781 7.79199219,213.757812 C5.48339844,216.589844 2.81347656,217.462891 4.36035156,219.183594 C5.90722656,220.904297 12.6357417,219.845703 16.3408203,219.845703 C20.0458989,219.845703 43.8090806,217.814455 52.5473619,218.499025 C61.2856431,219.183595 69.8291001,219.183595 69.8291001,219.183595 C69.8291001,219.183595 51.3461914,216.209474 48.7641587,215.047365 C46.1821261,213.885256 28.507812,211.638672 31.2119141,194.954102 C33.9160161,178.269531 39.2382827,147.269531 44.2978516,137.162109 C49.3574205,127.054688 28.2695313,135.546875 28.2695313,135.546875 Z" id="t-shirt-shadow-2" fill-opacity="0.0899999961" fill="#000000"></path>
                    <path d="M50.5488281,222.125 C50.5488281,222.125 45.5605469,300.861328 42.7675781,323.972656 C39.9746094,347.083984 33.6660156,395.845703 27.9082031,420.423828 C22.1503906,445.001953 18.578125,446.724609 15.3105469,450.515625 C12.0429688,454.306641 13.5878906,458.539062 17.9277344,462.832031 C22.2675781,467.125 69.1992199,493.142578 82.0410156,496.435547 C94.8828114,499.728516 204.095703,482.304688 204.095703,482.304688 C204.095703,482.304688 167.27929,481.734375 157.707031,467.625 C148.134772,453.515625 116.681642,458.925781 116.681641,359.496094 C116.681639,260.066406 122.023439,209.628906 127.361328,204.617188 C132.699218,199.605469 133.257806,186.4375 149.4375,186.4375 C165.617194,186.4375 208.246087,174.224609 208.246094,174.224609 C208.2461,174.224609 165.826173,186.785156 136.734375,181.726562 C107.642577,176.667969 109.724611,142.9375 113.203125,119.976562 C116.681639,97.015625 102.863282,61.2695313 94.1621094,48.0566406 C85.4609364,34.84375 82.8925793,25.515625 77.9257812,25.515625 C72.9589832,25.515625 62.234375,29.8535156 62.234375,29.8535156 C62.234375,29.8535156 79.2871105,105.623047 79.2871094,121.755859 C79.2871082,137.888672 81.5078136,209.566406 78.484375,221.091797 C75.4609364,232.617188 58.6308594,230.802734 58.6308594,230.802734 L50.5488281,222.125 Z" id="t-shirt-shadow-3" fill-opacity="0.0899999961" fill="#000000"></path>
                    <path d="M198.992188,25.1328125 C198.992188,25.1328125 210.892578,65.1240234 217.824219,90.4394531 C224.755859,115.754883 230.391602,131.493164 230.391602,136.62207 C230.391602,141.750977 235.899414,137.051758 235.899414,137.051758 L238.02832,131.555664 C238.02832,131.555664 224.887695,78.4716797 216.864258,61.3349609 C208.84082,44.1982422 198.992188,25.1328125 198.992188,25.1328125 Z" id="t-shirt-shadow-4" fill-opacity="0.0899999961" fill="#000000"></path>
                </g>
                <g id="mobile" transform="translate(454.000000, 470.000000)" sketch:type="MSShapeGroup">
                    <path d="M15.9011552,17.1279771 C13.7466067,17.609582 11.8579327,19.78768 11.6836604,21.9806071 L0.316339634,165.019393 C0.141630079,167.217822 1.69790722,168.460665 3.81740262,167.787413 L81.1825974,143.212587 C83.2908906,142.542894 85.1495522,140.217836 85.3350514,138.007304 L96.6649486,2.99269584 C96.8499924,0.787590818 95.2441652,-0.607519276 93.0988448,-0.127977079 L15.9011552,17.1279771 Z" fill="#D0011B"></path>
                    <path d="M16.2457975,21.2674985 C14.0885988,21.7400048 12.1904775,23.900903 12.0049883,26.1087177 L0.334855512,165.014329 C0.149919919,167.215554 1.7030692,168.441109 3.79996437,167.752977 L80.5047252,142.581014 C82.6033876,141.892303 84.4560004,139.544915 84.6417913,137.34815 L95.5984417,7.79834144 C95.7846179,5.59702199 94.1895285,4.19494178 92.0295898,4.66804816 L16.2457975,21.2674985 Z" id="mobile-shadow" fill-opacity="0.16" fill="#000000"></path>
                </g>
                <g id="neck" transform="translate(289.000000, 432.000000)">
                    <mask id="mask-6" sketch:name="neck" fill="white">
                        <use xlink:href="#path-5"></use>
                    </mask>
                    <use fill="#DADADA" sketch:type="MSShapeGroup" xlink:href="#path-5"></use>
                    <path d="M60.1582031,8.72851562 C60.1582031,8.72851562 38.7939453,11.953125 36.9414063,19.3510742 C35.0888672,26.7490234 34.1455078,60.3999023 35.543457,65.878418 C36.9414063,71.3569336 53.5166033,108.866211 62.8393555,120.009277 C72.1621077,131.152344 88.1035156,141.641113 88.1035156,141.641113 L30.8056641,115.513184 L10.4848633,83.8691406 L-4.43017578,53.4194336 L8.4375,16.1743164 L10.1445312,-3.74804688 L54.3798828,-7.71142578 L65.9594727,-2.31445313 L64.3134766,8.74755859 L60.1582031,8.72851562 Z" id="neck-shadow" fill-opacity="0.06" fill="#000000" sketch:type="MSShapeGroup" mask="url(#mask-6)"></path>
                </g>
                <g id="right-arm" transform="translate(215.000000, 541.000000)">
                    <mask id="mask-8" sketch:name="right-arm" fill="white">
                        <use xlink:href="#path-7"></use>
                    </mask>
                    <use fill="#DADADA" sketch:type="MSShapeGroup" xlink:href="#path-7"></use>
                    <path d="M33.8896488,153.967773 C33.8896488,153.967773 32.4238281,194.964844 35.2148438,199.976563 C38.0058594,204.988281 47.0781242,207.304688 53.3359375,205.210938 C59.5937508,203.117188 131.154298,153.486328 147.111328,138.677734 C163.068358,123.869141 224.681642,69.4550781 226.376953,67.7104492 C228.072265,65.9658203 230.808595,58.4750977 230.808594,56.9165039 C230.808593,55.3579102 233.998536,38.7172852 235.083496,35.7949219 C236.168456,32.8725586 239.489747,21.6630859 240.486816,19.7929688 C241.483886,17.9228516 243.501954,14.3081055 243.501953,12.4501953 C243.501952,10.5922852 244.685547,6.79736328 244.685547,6.79736328 L249.041992,13.2470703 L248.405273,37.3134766 L249.175781,40.0615234 L266.48877,32.1464844 L284.017578,10.8720703 L288.499023,2.81396484 C288.499023,2.81396484 291.214845,1.63623047 291.732422,2.76464844 C292.249999,3.89306641 290.909669,10.6689453 289.333496,13.8032227 C287.757323,16.9375 277.594239,32.7783212 276.334961,34.2866211 C275.075683,35.794921 273.828126,40.4887704 274.563965,41.9165039 C275.299804,43.3442374 277.288575,42.8759775 278.018555,41.46875 C278.748534,40.0615225 285.933594,29.9389648 285.933594,29.9389648 L294.055176,15.8295898 L296.44873,10.6884766 C296.44873,10.6884766 299.109864,4.81738276 299.981934,7.29785156 C300.854003,9.77832036 299.426271,17.2861337 297.9375,20.1796875 C296.448729,23.0732413 291.581056,32.9277353 289.679199,35.1206055 C287.777343,37.3134757 281.824708,45.4990243 280.865234,46.7519531 C279.905761,48.0048819 278.728028,49.5986337 278.728027,50.6220703 C278.728026,51.6455069 280.56006,51.6513681 281.720215,50.7353516 C282.88037,49.819335 291.205566,40.8457031 291.205566,40.8457031 L296.608887,34.3461914 L300.784668,26.7363281 L303.221191,20.6357422 C303.221191,20.6357422 303.578614,18.2573242 304.171387,18.2573242 C304.764159,18.2573243 305.113282,19.0112314 305.113281,21.9477539 C305.11328,24.8842764 302.84131,32.4570322 301.411621,34.1259766 C299.981933,35.794921 297.392579,41.8842782 296.040527,43.3178711 C294.688476,44.7514639 288.109376,51.692872 286.063477,53.6816406 C284.017577,55.6704093 283.93213,59.5961923 283.932129,59.5961914 C283.932128,59.5961905 285.488282,61.0424814 286.993652,58.9794922 C288.499022,56.916503 298.7417,47.751954 298.741699,47.2519531 C298.741698,46.7519522 302.92334,40.746582 302.92334,40.746582 C302.92334,40.746582 305.478028,39.9956064 304.824707,41.6567383 C304.171386,43.3178702 298.670411,53.1108407 297.639648,54.6259766 C296.608886,56.1411124 284.765138,67.5688486 283.242676,69.0463867 C281.720214,70.5239249 268.309082,81.5126953 268.309082,81.5126953 L241.532715,99.8408203 L210.078125,125.723145 L177.450684,154.974121 L110.410156,210.320801 L59.0761719,247.373047 C59.0761719,247.373047 44.0395509,250.319337 40.8232422,251.26709 C37.6069335,252.214843 24.9453117,248.379395 21.2236328,249.341797 C17.501954,250.304198 5.45263672,243.099122 3.66455078,235.727539 C1.87646484,228.355956 3.94970703,174.265625 3.94970703,174.265625 L5.71142568,155.698241 L33.8896488,153.967773 Z" id="right-arm-shadow" fill-opacity="0.06" fill="#000000" sketch:type="MSShapeGroup" mask="url(#mask-8)"></path>
                </g>
                <g id="hairs" transform="translate(151.000000, 140.000000)">
                    <mask id="mask-10" sketch:name="hairs" fill="white">
                        <use xlink:href="#path-9"></use>
                    </mask>
                    <use fill="#333333" sketch:type="MSShapeGroup" xlink:href="#path-9"></use>
                    <path d="M141.484375,469.847662 C141.484375,469.847662 90.234375,465.167975 90.234375,428.019537 C90.234375,390.8711 68.4375,295.324225 99.9726562,241.050787 C131.507812,186.77735 201.550776,184.847662 217.953125,157.628912 C234.355474,130.410162 239.738281,94.6054672 233.808594,74.8554672 C227.878906,55.1054672 225.446753,42.0970093 205.335938,21.1132816 C193.726562,9.00000043 164.383534,10.9200279 148.410156,9.00000042 C120.509087,5.64624382 95.0910147,17.4149478 85.875,27.5625 C71.3828119,43.5195313 41.3476568,90.5781203 36.1601562,117.749997 C30.9726557,144.921873 50.0507812,214.578131 45.8632812,241.050781 C41.6757812,267.523431 33.3007813,398.425772 20.484375,411.894531 C7.66796875,425.36329 -16.7109375,447.394531 -16.7109375,447.394531 L49.2617188,477.054688 L99.9726562,479.054688 L141.484375,469.847662 Z" id="hairs-shadow" fill-opacity="0.12" fill="#000000" sketch:type="MSShapeGroup" mask="url(#mask-10)"></path>
                    <path d="M284.140625,104.669922 C284.140625,104.669922 277.453125,126.976562 277.453125,130.722656 C277.453125,134.46875 276.410156,150.123047 278.603516,153.613281 C280.796875,157.103516 287.128906,164.107422 292.863281,168.595703 C298.597657,173.083984 300.984375,179.494141 304.251953,185.425781 C307.519532,191.357422 306.671875,197.044922 306.671875,197.044922 C306.671875,197.044922 312.753908,185.798828 312.753906,176.003906 C312.753905,166.208984 314.650392,129.535156 314.650391,119.962891 C314.650389,110.390625 310.829963,92.8730469 303.378906,89.7792969 C295.927849,86.6855469 284.140625,104.669922 284.140625,104.669922 Z" id="hairs-shadow-2" fill-opacity="0.12" fill="#000000" sketch:type="MSShapeGroup" mask="url(#mask-10)"></path>
                </g>
            </g>
        </g>
    </g>
</svg>