<?xml version="1.0" encoding="UTF-8" standalone="no"?>
<svg width="458px" height="907px" viewBox="0 0 458 907" version="1.1" xmlns="http://www.w3.org/2000/svg" xmlns:xlink="http://www.w3.org/1999/xlink" xmlns:sketch="http://www.bohemiancoding.com/sketch/ns">
    <!-- Generator: Sketch 3.1 (8751) - http://www.bohemiancoding.com/sketch -->
    <title>mobile-shape-1</title>
    <desc>Created with Sketch.</desc>
    <defs>
        <path id="path-1" d="M125.328125,286.250001 C189.945441,286.250001 250.65625,224.349295 250.65625,151.999993 C250.65625,118.936072 256.375,88.507812 225.8125,44.2109375 C195.25,-0.0859369832 160.415069,-0.0859369832 125.328125,-0.0859369832 C60.7108093,-0.0859369832 0,79.6506978 0,152 C0,224.349302 60.7108093,286.250001 125.328125,286.250001 Z"></path>
        <path id="path-3" d="M0.0156249946,268.066392 C0.0156249946,268.066392 156.277338,187.51173 171.85351,140.755863 C187.429682,93.9999962 216.82226,31.6269531 216.82226,31.6269531 C216.82226,31.6269531 211.570312,17.734375 180.914062,9.359375 C150.257812,0.984375 106.281247,-7.20312499 83.6249971,9.35937501 C60.9687471,25.921875 -15.2304675,70.6484439 5.08203156,151.839848 C25.3945307,233.031251 0.0156249946,268.066392 0.0156249946,268.066392 Z"></path>
        <path id="path-5" d="M0.357422345,117.869144 C0.357422345,117.869144 31.28125,165.929688 54.734375,177.609375 C78.1875,189.289062 98.929688,187.18359 110.328125,187.18359 C121.726563,187.18359 141.726563,164.128903 141.726563,164.128903 C141.726563,164.128903 131.558594,153.312496 131.558594,126.187496 C131.558594,99.0624963 140.054687,60.921875 110.328125,33.1953125 C80.6015625,5.46875 65.6425786,3.35546884 61.8125005,3.35546884 C57.9824223,3.35546885 54.2460937,-16.1132796 29.0742187,42.0898454 C3.90234375,100.29297 0.357422345,117.869144 0.357422345,117.869144 Z"></path>
        <path id="path-7" d="M95.5078125,0.330078125 C92.2332061,-0.767901776 90.7558594,72.46875 90.7558594,72.46875 C90.7558594,72.46875 82.7231445,99.8959948 80.0419922,103.310547 C77.3608398,106.725099 72.8911133,107.412109 65.9233398,106.015625 C58.9555664,104.619141 50.1592921,94.5152398 42.9980469,86.6113281 C35.8368016,78.7074164 31.4726562,67.9921875 31.4726562,67.9921875 L0.45703125,62.6767578 C0.45703125,62.6767578 13.9692383,86.6113268 25.6445312,103.310547 C37.3198241,120.009767 51.625,131.581544 54.015625,133.769531 C56.40625,135.957518 69.2163086,142.691406 70.2514648,142.691406 C71.2866211,142.691406 87.734684,147.149581 95.5078125,136.933594 C98.9057617,132.467772 132.93457,86.6113281 132.93457,86.6113281 C132.93457,86.6113281 106.292776,3.94629093 95.5078125,0.330078125 Z"></path>
        <path id="path-9" d="M31.9882813,4.4765625 C31.9882813,4.4765625 79.4400015,-5.03004136 130.578125,4.56738292 C135.564106,5.50313448 146.630686,9.61840615 151.574219,11.0722657 C208.050781,27.6816407 215.117188,23.1367202 222.539063,44.8164062 C229.960938,66.4960923 283.257813,203.050781 283.257813,203.050781 C283.257813,203.050781 295.492188,210.128908 279.164063,216.964844 C262.835938,223.80078 270.458006,223.120121 235.400389,230.011723 C200.342772,236.903324 217.458006,246.928715 217.458006,246.928715 L239.015625,254.414062 C239.015625,254.414062 256.367188,314.210939 263,346.171875 C269.632813,378.132811 279.402344,483.308595 279.402344,500.824219 C279.402344,518.339842 287.875,521.132814 263.445313,526.667969 C239.015625,532.203124 135.214844,561.808595 72.3359375,534.890625 C9.45703125,507.972655 13.5078125,508.488283 19.484375,493.667969 C25.4609375,478.847655 36.2343751,422.222658 36.234375,406.40625 C36.2343749,390.589842 38.3281251,326.82422 38.328125,313.308594 C38.3281249,299.792967 43.8710938,198.437501 37.9296875,183.875 C31.9882812,169.312499 8.1093751,171.714849 2.57421875,164.875004 C-2.9609376,158.035159 2.57421875,126.878908 2.57421875,126.878906 C2.57421875,126.878905 6.0625,60.8164058 10.109375,44.9023438 C14.15625,28.9882817 14.1616209,18.9868162 16.5283203,13.7851562 C18.8950197,8.58349628 19.3071287,7.64453106 22.8613281,6.5390625"></path>
        <path id="path-11" d="M293.641588,105.073241 L309.978516,140.828125 C309.978516,140.828125 316.386719,148.130859 292.228516,135.244141 C268.070313,122.357422 152.310547,83.6699219 133.666016,75.6445312 C115.021484,67.6191406 108.435547,65.3496094 99.7597656,53.3574219 C91.0839844,41.3652344 89.2109375,33.7128906 89.2109375,25.3847656 C89.2109375,17.0566406 90.2578125,9.77539062 90.2578125,9.77539062 C90.2578125,9.77539062 83.1035156,3.54101562 80.8828125,6.65820312 C78.6621094,9.77539062 75.3457031,17.0566409 75.3457031,21.2207031 C75.3457031,25.3847654 80.9316406,45.8554671 78.1386719,45.8554687 C75.3457031,45.8554704 49.9902344,28.0839844 41.1152344,18.9296875 C32.2402344,9.77539063 27.3554688,0.02734375 27.3554688,0.02734375 C27.3554688,0.02734375 17.0742188,-1.51757813 22.2148438,6.4140625 C27.3554688,14.3457031 34.3320294,27.3593757 43.8828125,36.6074219 C53.4335956,45.855468 46.2089844,45.9589844 46.2089844,45.9589844 C46.2089844,45.9589844 27.794922,33.6855467 20.4335938,21.7304688 C13.0722655,9.77539083 11.1523438,4.38867167 8.10546875,8.26171875 C5.05859375,12.1347658 10.03125,20.6728516 10.03125,20.6728516 C10.03125,20.6728516 22.3554686,38.4931648 28.9501953,44.5644531 C35.544922,50.6357414 35.1718748,53.4794929 33.9863281,53.4794922 C32.8007814,53.4794914 34.7441405,56.7597664 30.2539062,54.1542969 C25.763672,51.5488274 11.4443359,35.1542976 8.42675781,28.4423828 C5.40917972,21.730468 3.56542954,18.6894539 2.03027344,21.1494141 C0.495117338,23.6093743 1.81542969,27.796875 1.81542969,27.796875 C1.81542969,27.796875 3.75781209,34.4960945 11.3994141,44.3251953 C19.041016,54.1542961 21.0947262,55.7050789 23.1767578,57.8632812 C25.2587895,60.0214836 23.375,61.96875 23.375,61.96875 C23.375,61.96875 20.8642579,64.8828132 14.6455078,55.4208984 C8.42675774,45.9589836 2.92675781,36.2705078 2.92675781,36.2705078 C2.92675781,36.2705078 -0.649414051,35.5205086 0.583007812,39.9228516 C1.81542968,44.3251946 6.34082037,55.363282 12.3369141,61.8828125 C18.3330078,68.402343 24.0380841,76.7890632 44.6669922,86.7226562 C65.2959003,96.6562493 73.7578106,93.7763679 91.8447266,103.623047 C109.931642,113.469726 204.787108,150.291985 215.407227,156.287109 C226.027346,162.282233 293.93849,189.025384 304.982422,196.428711 C316.026354,203.832038 336.178724,213.055657 339.65625,215.847656 C343.133776,218.639655 356.254883,216.260742 356.254883,216.260742 C356.254883,216.260742 370.689467,217.568352 370.689453,195.148438 C370.68944,172.728523 374.402357,137.607423 366.724609,113.041016 C359.046862,88.4746086 358.873047,86.9277344 358.873047,86.9277344 L293.641588,105.073241 Z"></path>
    </defs>
    <g id="Page-1" stroke="none" stroke-width="1" fill="none" fill-rule="evenodd" sketch:type="MSPage">
        <g id="mobile" sketch:type="MSLayerGroup" transform="translate(-89.000000, -54.000000)">
            <g id="mobile-shape-1">
                <rect id="bg-1" sketch:type="MSShapeGroup" x="0" y="0" width="700" height="1000"></rect>
                <g id="head" transform="translate(124.000000, 128.000000)">
                    <mask id="mask-2" sketch:name="head" fill="white">
                        <use xlink:href="#path-1"></use>
                    </mask>
                    <use fill="#DADADA" sketch:type="MSShapeGroup" xlink:href="#path-1"></use>
                    <path d="M67.1601563,98.5039062 C67.1601563,98.5039062 68.8789062,197.722656 112.570312,221.984375 C156.261719,246.246094 202.5,256.835938 249.078125,215.054688 C295.65625,173.273438 185.105469,278.101562 185.105469,278.101562 L125.527344,297.59375 L34.3554688,264.1875 L-23.8710938,187.117188 L-7.8203125,114.722656 L67.1601563,98.5039062 Z" id="head-shadow" fill-opacity="0.0599999987" fill="#000000" sketch:type="MSShapeGroup" mask="url(#mask-2)"></path>
                </g>
                <g id="hair-1" transform="translate(89.000000, 55.000000)">
                    <mask id="mask-4" sketch:name="hair-1" fill="white">
                        <use xlink:href="#path-3"></use>
                    </mask>
                    <use fill="#333333" sketch:type="MSShapeGroup" xlink:href="#path-3"></use>
                    <path d="M-2.67382812,269.201172 C-2.67382812,269.201172 12.7050781,246.519531 16.5195312,236.097656 C20.3339844,225.675781 27.6386719,185.222656 25.5683594,170.810547 C23.4980469,156.398438 14.8789062,94.3085937 60.765625,76.3378906 C106.652344,58.3671875 149.865234,76.0742188 160.634766,85.0371094 C171.404297,94 179.126953,95.1552732 183.651367,92.1894531 C188.175781,89.2236331 201.366211,57.4287109 201.366211,57.4287109 L215.902344,26.8242188 L220.526367,28.6445312 L171.858398,153.820312 L142.40332,184.833984 L85.1230469,226.162109 L8.10351562,266.640625 L-3.65039062,272.875 L-2.67382812,269.201172 Z" id="hair-1-shadow" fill-opacity="0.12" fill="#000000" sketch:type="MSShapeGroup" mask="url(#mask-4)"></path>
                </g>
                <g id="hair-2" transform="translate(262.000000, 79.000000)">
                    <mask id="mask-6" sketch:name="hair-2" fill="white">
                        <use xlink:href="#path-5"></use>
                    </mask>
                    <use fill="#333333" sketch:type="MSShapeGroup" xlink:href="#path-5"></use>
                    <path d="M50.1035156,0.943359375 C50.1035156,0.943359375 28.6660156,63.8476563 26.3984375,72.9785156 C24.1308594,82.109375 44.3007812,117.980469 67.1328125,133.160156 C89.9648438,148.339844 99.4121098,164.414062 127.478516,164.414062 C155.544921,164.414062 176.982422,162.693359 176.982422,162.693359 L112.601562,190.238281 L69.15625,188.621094 L34.2851562,176.755859 L-2.15820312,131.240234 L-1.28515625,110.769531 L28.0039062,26.265625 L50.1035156,0.943359375 Z" id="hair-2-shadow" fill-opacity="0.12" fill="#000000" sketch:type="MSShapeGroup" mask="url(#mask-6)"></path>
                </g>
                <g id="neck" transform="translate(288.000000, 344.000000)" fill="#DADADA" sketch:type="MSShapeGroup">
                    <path d="M18.2578125,49.8359375 C18.2578125,49.8359375 34.8203125,67.4765625 26.5390625,84.734375 C18.2578125,101.992188 0.203125,81.9375 0.203125,81.9375 C0.203125,81.9375 4.390625,109.617188 4.390625,153.726562 C4.390625,197.835938 23.234375,277.109375 23.234375,324.289062 C23.234375,371.46875 7.1875,563.203125 7.1875,563.203125 C7.1875,563.203125 151.234375,605.78125 188.921875,596.007812 C226.609375,586.234375 240.984375,577.257812 240.984375,577.257812 C240.984375,577.257812 205.296875,330.015625 205.296875,251.804688 C205.296875,173.59375 208.5,127.8125 185.148438,110.554688 C161.796875,93.296875 99.078125,73.2421875 99.078125,73.2421875 C99.078125,73.2421875 80.0839844,66.2099609 75.0234375,54.3984375 C69.9628906,42.5869141 57.859375,-0.265625 57.859375,-0.265625 L18.2578125,49.8359375 Z"></path>
                </g>
                <g id="right-arm" transform="translate(190.000000, 573.000000)">
                    <mask id="mask-8" sketch:name="right-arm" fill="white">
                        <use xlink:href="#path-7"></use>
                    </mask>
                    <use fill="#DADADA" sketch:type="MSShapeGroup" xlink:href="#path-7"></use>
                    <path d="M97.1064453,11.8955078 C97.1064453,11.8955078 95.2910156,73.8349609 92.4121094,84.6523438 C89.5332031,95.4697266 85.7011719,104.019531 81.6533203,107.823242 C77.6054687,111.626953 62.9960938,112.40625 56.1914062,105.561523 C49.3867188,98.7167969 29.2236328,80.0927734 23.6396484,57.4580078 C18.0556641,34.8232422 -16.0537109,37.4101562 -16.0537109,37.4101562 L-1.48535156,89.1474609 L36.5390625,126.298828 L58.9589844,142.525391 L73.4296875,149.330078 L92.4121094,146.201172 L102.572266,137.326172 L124.806641,122.606445 L126.289062,23.9521484 L97.1064453,11.8955078 Z" id="right-arm-shadow" fill-opacity="0.06" fill="#000000" sketch:type="MSShapeGroup" mask="url(#mask-8)"></path>
                </g>
                <g id="mobile" transform="translate(143.000000, 487.000000)" sketch:type="MSShapeGroup">
                    <path d="M19.7462136,6.77206241 C16.0203827,5.74767304 13,8.05565818 13,11.9171578 L13,134.338015 C13,138.203962 16.0201962,142.168311 19.7462136,143.192752 L96.2537864,164.227938 C99.9796173,165.252327 103,162.944342 103,159.082842 L103,36.6619854 C103,32.7960383 99.9798038,28.8316886 96.2537864,27.8072479 L19.7462136,6.77206241 Z" fill="#D0011B" transform="translate(58.000000, 85.500000) rotate(-10.000000) translate(-58.000000, -85.500000) "></path>
                    <path d="M19.4448107,10.0534206 C15.7499756,8.93178761 12.7669566,11.1575471 12.7820403,15.0220148 L13.2483442,134.4893 C13.2634328,138.355012 16.2931242,142.325077 20.0189131,143.357675 L94.5628005,164.017438 C98.2869938,165.049594 101.238698,162.757281 101.155477,158.890907 L98.6187644,41.0377903 C98.5356059,37.174329 95.467863,33.1315714 91.7781019,32.0114787 L19.4448107,10.0534206 Z" id="mobile-shadow" fill-opacity="0.160000011" fill="#000000" transform="translate(57.275665, 87.150860) rotate(-10.000000) translate(-57.275665, -87.150860) "></path>
                </g>
                <g id="t-shirt" transform="translate(259.000000, 414.000000)">
                    <mask id="mask-10" sketch:name="t-shirt" fill="white">
                        <use xlink:href="#path-9"></use>
                    </mask>
                    <use fill="#999999" sketch:type="MSShapeGroup" xlink:href="#path-9"></use>
                    <path d="M265.067871,217.826172 C265.067871,217.826172 278.336914,213.937988 280.471191,213.164551 C282.605469,212.391113 285.984375,211.263184 284.338379,212.871094 C282.692383,214.479004 276.367676,217.046387 274.297363,218.180664 C272.227051,219.314941 266.286621,222.132812 266.286621,222.132812 L265.067871,217.826172 Z" id="t-shirt-shadow-1" fill-opacity="0.22" fill="#000000" sketch:type="MSShapeGroup" mask="url(#mask-10)"></path>
                    <path d="M199.650391,236.679688 C199.650391,236.679688 195.052734,237.63916 193.767578,238.281738 C192.482422,238.924316 194.625,239.977051 197.137695,239.453613 C199.650391,238.930176 201.016602,238.936035 201.016602,238.936035 L199.650391,236.679688 Z" id="t-shirt-shadow-2" fill-opacity="0.22" fill="#000000" sketch:type="MSShapeGroup" mask="url(#mask-10)"></path>
                    <path d="M188.095703,86.3066406 C188.095703,86.3066406 184.257812,144.279297 188.619141,178.208984 C192.980469,212.138672 193.647461,229.673828 193.647461,231.930664 C193.647461,234.1875 192.088867,235.908203 192.088867,237.368164 C192.088867,238.828125 192.736328,239.184082 192.736328,239.184082 C192.736328,239.184082 192.802735,236.973629 194.341309,235.464351 C195.879883,233.955074 202.150879,231.319088 204.161621,230.948238 C206.172363,230.577389 215.499513,227.354488 221.434572,226.10107 C227.369631,224.847652 242.313966,220.181148 247.803713,218.840328 C253.293459,217.499508 261.610353,215.716793 264.329103,215.030758 C267.047853,214.344723 273.021484,212.633789 273.021484,212.633789 C273.021484,212.633789 216.107422,225.80127 213.882812,205.012207 C211.658203,184.223145 201.191407,114.714844 201.191406,103.287109 C201.191406,91.859375 201.413086,88.7822266 198.795898,82.7226563 C196.178711,76.6630859 196.413086,51.4882813 197.604492,48.8945313 C198.795898,46.3007813 188.095703,86.3066406 188.095703,86.3066406 Z" id="t-shirt-shadow-3" fill-opacity="0.0900000036" fill="#000000" sketch:type="MSShapeGroup" mask="url(#mask-10)"></path>
                    <path d="M125.248047,38.9257812 C125.248047,38.9257812 119.676758,48.3466797 111.848633,55.5761719 C104.020508,62.8056641 91.6494141,73.1123047 84.9150391,75.3681641 C78.1806641,77.6240234 63.0371094,81.9628906 56.3427734,79.8691406 C49.6484375,77.7753906 48.2329102,74.7705078 47.4858398,71.5166016 C46.7387695,68.2626953 45.7675781,59.6137695 45.7675781,54.6767578 C45.7675781,49.7397461 46.6391602,38.5449219 46.6391602,32.9853516 C46.6391602,27.4257812 50.8383789,15.0234375 50.8383789,15.0234375 L55.1474609,3.89111328 C55.1474609,3.89111328 48.7963867,4.50732422 40.090332,6.15917969 C31.3842773,7.81103516 24.3295898,10.046875 22.7099609,14.7084961 C21.090332,19.3701172 19.2128906,39.8569336 18.6953125,42.5498047 C18.1777344,45.2426758 16.6508789,58.5581055 15.996582,65.3334961 C15.3422852,72.1088867 11.9301758,117.509277 11.9301758,122.065918 C11.9301758,126.622559 10.2929688,141.963379 10.2929688,141.963379 C10.2929688,141.963379 6.67138672,153.179199 11.3339844,159.361328 C15.996582,165.543457 16.937011,166.759277 23.5615234,169.681641 C30.1860359,172.604004 36.2221673,179.541504 36.9575195,183.723145 C37.6928718,187.904785 37.2133789,171.777344 37.2133789,171.777344 C37.2133789,171.777344 35.9482434,156.667969 35.9482422,150.98877 C35.948241,145.30957 37.2133796,134.631836 37.2133796,134.631836 C37.2133796,134.631836 40.5151367,168.504395 41.6113288,174.639648 C42.7075209,180.774902 44.6440423,206.761719 44.644043,212.077637 C44.6440437,217.393555 47.1777337,273.311035 46.4726562,285.384766 C45.7675788,297.458496 45.0795891,339.64502 45.0795898,345.43457 C45.0795905,351.224121 45.0073235,391.571777 45.0073242,396.924805 C45.0073249,402.277832 44.6049798,419.62793 43.5146484,426.147461 C42.4243171,432.666992 37.0737298,470.954102 35.2910156,478.532227 C33.5083015,486.110352 24.6596673,496.13916 26.671875,501.367676 C28.6840827,506.596191 83.1357453,536.157715 105.681152,540.126953 C128.226559,544.096191 206.073242,540.36084 206.073242,540.36084 C206.073242,540.36084 129.601566,529.089844 122.447266,446.5625 C115.292966,364.035156 91.6084016,216.360352 93.0273438,183.09375 C94.4462859,149.827148 93.7812531,120.032227 109.514648,84.171875 C125.248044,48.3115234 125.248047,38.9257812 125.248047,38.9257812 Z" id="t-shirt-shadow-4" fill-opacity="0.09" fill="#000000" sketch:type="MSShapeGroup" mask="url(#mask-10)"></path>
                </g>
                <g id="left-arm" transform="translate(165.000000, 545.000000)">
                    <mask id="mask-12" sketch:name="left-arm" fill="white">
                        <use xlink:href="#path-11"></use>
                    </mask>
                    <use fill="#DADADA" sketch:type="MSShapeGroup" xlink:href="#path-11"></use>
                    <path d="M328.935059,95.0629883 C328.935059,95.0629883 343.62207,125.854492 346.850586,155.678711 C350.079102,185.50293 351.811523,202.939453 350.514648,209.557617 C349.217773,216.175781 343.772461,216.920898 335.552734,214.390625 C327.333008,211.860352 221.055664,162.506836 221.055664,162.506836 L78.9990234,100.176758 C78.9990234,100.176758 36.3876953,86.6845703 28.1992187,82.2705078 C20.0107422,77.8564453 9.22851562,61.7519531 9.22851562,61.7519531 L0.668945312,42.9365234 L0.212890625,39.2172852 C0.212890625,39.2172852 0.779296875,37.5454102 1.59667969,37.5454102 C2.4140625,37.5454102 2.21923828,39.1567383 3.63525391,41.8955078 C5.05126953,44.6342773 6.32568359,47.8198242 7.45361328,49.5092773 C8.58154297,51.1987305 11.0449219,55.4116211 12.5161133,57.362793 C13.9873047,59.3139648 17.5092773,62.4487305 19.2797852,62.4487305 C21.050293,62.4487305 23.3183594,62.4804687 23.3183594,61.5761719 C23.3183594,60.671875 11.1489258,45.1435547 11.1489258,45.1435547 L3.05322266,33.5585937 L1.25878906,29.4321289 C1.25878906,29.4321289 1.27636719,21.7114258 2.70996094,23.3691406 C4.14355469,25.0268555 8.03173828,33.1713867 9.59033203,35.7451172 C11.1489258,38.3188476 19.4301758,48.1386719 22.5273438,51.3608398 C25.6245117,54.5830078 30.1933594,56.3623047 31.9755859,55.4902344 C33.7578125,54.618164 32.4233398,50.6225586 32.4233398,50.6225586 L22.8212891,41.2299805 L10.1279297,24.8789062 L6.67041016,16.7280273 C6.67041016,16.7280273 7.65673828,7.58642578 9.40283203,10.1542969 C11.1489258,12.722168 13.675293,21.8662119 20.3891602,28.8056641 C27.1030273,35.7451163 31.3725586,40.4804697 36.2021484,43.8828125 C41.0317383,47.2851553 45.4057617,47.4677744 46.8652344,46.3056641 C48.324707,45.1435538 48.487793,42.2856455 46.984375,40.7514648 C45.480957,39.2172842 35.5854492,29.4541016 35.5854492,29.4541016 L29.3276367,19.8320312 L22.7963867,9.99755859 C22.7963867,9.99755859 20.6420898,3.66650388 22.5668945,2.9921875 C24.4916992,2.31787112 26.0185547,2.08544922 26.0185547,2.08544922 C26.0185547,2.08544922 27.8505859,7.58203125 30.4619141,11.3706055 C33.0732422,15.1591797 41.1015625,25.6884766 45.059082,29.4541016 C49.0166016,33.2197266 61.9277344,43.6010742 66.0283203,46.3056641 C70.1289062,49.0102539 75.1958008,50.3994141 77.9755859,50.3994141 C80.7553711,50.3994141 81.6020508,46.8095703 79.4267578,40.184082 C77.2514648,33.5585938 73.5380859,22.050293 73.5380859,22.050293 L75.184082,14.1230469 L77.6708984,9.53466797 C77.6708984,9.53466797 80.2441406,7.43701172 83.0737305,9.40380859 C85.9033203,11.3706055 86.6450195,12.8671875 86.6450195,12.8671875 C86.6450195,12.8671875 83.7280273,26.3735352 85.6416016,32.7954102 C87.5551758,39.2172852 95.6625977,56.5507812 97.7998047,60.2143555 C99.9370117,63.8779297 104.772949,71.3808594 116.494629,77.9555664 C128.216309,84.5302734 238.231445,122.712891 253.549805,130.826172 C268.868164,138.939453 304.141602,153.008789 308.055664,153.008789 C311.969727,153.008789 318.135254,149.27832 314.959961,144.686523 C311.784668,140.094727 302.90332,125.319824 302.90332,125.319824 L297.014648,112.408691 L293.65625,105.162109 L306.558105,101.495117 L326.797363,95.7636719" id="left-arm-shadow" fill-opacity="0.06" fill="#000000" sketch:type="MSShapeGroup" mask="url(#mask-12)"></path>
                </g>
                <g id="neck-2" transform="translate(307.000000, 366.000000)" sketch:type="MSShapeGroup">
                    <path d="M9.79785128,49.0620117 C9.79785128,49.0620117 0.64453125,68.2949219 0.64453125,83.7773438 C0.64453125,99.2597656 -1.34374988,117.357422 5.23828137,120.998047 C11.8203126,124.638672 36.3984372,120.998047 57.7089841,99.640625 C79.019531,78.2832031 89.3063962,61.2143555 89.3063962,54.456543 C89.3063962,53.456543 60.1152344,45.0429688 60.1152344,45.0429688 L9.79785128,49.0620117 Z" fill="#DADADA"></path>
                    <path d="M27.6035156,-0.395996094 C27.6035156,-0.395996094 26.1699219,23.1030273 28.1762695,29.2910156 C30.1826172,35.4790039 36.4692387,47.1367188 38.8569336,49.9169922 C41.2446285,52.6972656 56.1874994,61.6967773 63.9458008,65.3549805 C71.7041021,69.0131836 81.1376948,71.1713867 81.9985352,71.1713867 C82.8593756,71.1713867 70.6635742,85.4145508 70.6635742,85.4145508 C70.6635742,85.4145508 54.7509766,103.900391 47.8012695,108.207031 C47.8012695,108.207031 36.4067383,116.817871 24.28125,120.470215 C24.28125,120.470215 14.6694336,123.044922 7.14648437,122.047363 C7.14648437,122.047363 1.1875,122.047363 0.536621094,108.207031 C0.536621094,108.207031 -0.0947265625,95.5883789 0.536621094,87.4667969 C0.536621094,87.4667969 0.536621104,75.3544922 3.20263664,67.7216797 C3.20263664,67.7216797 6.02294938,55.7636719 7.73584,54.5483398 C7.73584,54.5483398 8.37744109,51.6044922 9.78906218,48.9765625 C9.78906218,48.9765625 9.50537109,45.8325195 8.37744141,40.1362305 C7.24951172,34.4399414 2.09375,24.2797852 2.09375,24.2797852 L20.3208008,1.359375 L27.6035156,-0.395996094 Z" id="neck-shadow" fill-opacity="0.06" fill="#000000"></path>
                </g>
            </g>
        </g>
    </g>
</svg>