<?xml version="1.0" encoding="UTF-8" standalone="no"?>
<svg width="414px" height="900px" viewBox="0 0 414 900" version="1.1" xmlns="http://www.w3.org/2000/svg" xmlns:xlink="http://www.w3.org/1999/xlink" xmlns:sketch="http://www.bohemiancoding.com/sketch/ns">
    <!-- Generator: Sketch 3.1 (8751) - http://www.bohemiancoding.com/sketch -->
    <title>no-mobile-shape-5</title>
    <desc>Created with Sketch.</desc>
    <defs></defs>
    <g id="Page-1" stroke="none" stroke-width="1" fill="none" fill-rule="evenodd" sketch:type="MSPage">
        <g id="no-mobile" sketch:type="MSLayerGroup" transform="translate(-2258.000000, -43.000000)">
            <g id="no-mobile-shape-5" transform="translate(2130.000000, 0.000000)" sketch:type="MSShapeGroup">
                <rect id="bg-5" x="0" y="0" width="700" height="1000"></rect>
                <path d="M171.222656,659.292969 C171.222656,659.292969 146.054688,728.082031 140.214844,740.203125 C134.375,752.324219 125.191406,762.839844 129.980469,771.074219 C134.769531,779.308594 209.257815,859.726562 226.566406,879.175781 C243.874997,898.625 280.421875,929.980469 280.421875,929.980469 L295.308599,941.691406 L336.937505,941.691406 L298.773438,901.953125 C298.773438,901.953125 260.531253,850.957031 248.316406,829.8125 C236.10156,808.667969 200.160156,757.464844 200.160156,757.464844 C200.160156,757.464844 194.636719,750.664062 205.707028,732.355469 C216.777338,714.046875 229.425781,682.929688 229.425781,682.929688 L171.222656,659.292969 Z" id="right-arm" fill="#DADADA"></path>
                <path d="M317.556645,394.607422 C304.900395,394.607422 294.710938,391.695313 271.472656,405.164063 C248.234375,418.632813 225.808594,432.636719 225.808594,432.636719 C225.808594,432.636719 213.246094,436.03125 208.011719,455.574219 C202.777344,475.117187 175.863281,602.828118 171.371094,616.695312 C166.878906,630.562507 159.042969,647.21875 159.042969,647.21875 C159.042969,647.21875 157.507812,654.195305 176.699219,663.222656 C195.890625,672.250007 232.230472,689.347649 242.90625,689.347656 C253.582028,689.347663 264.46875,688.601562 264.46875,688.601562 C264.46875,688.601562 264.464847,676.74218 270.398438,659.734375 C276.332028,642.72657 288.195308,605.785149 288.195312,605.785156 C288.195317,605.785163 292.570308,600.226555 296.78125,614.347656 C300.992192,628.468757 308.765621,721.691399 308.765625,766.234375 C308.765629,810.777351 292.062503,882.316399 287.875,893.039063 C283.687497,903.761726 272.472652,906.507805 297.597656,916.976563 C322.72266,927.44532 348.917965,942.496087 421.382812,942.496094 C493.84766,942.496101 505.363277,926.445305 525.601562,918.464844 C545.839848,910.484382 543.742183,840.671868 534.671875,784.585938 C525.601567,728.500007 502.343746,613.894524 496.808594,603.613281 C491.273442,593.332038 500.808594,587.191406 500.808594,587.191406 C500.808594,587.191406 506.042965,585.191407 496.273438,550.691406 C486.50391,516.191406 467.359371,445.648437 454.097656,420.71875 C440.835942,395.789063 435.554683,383.871094 424.132812,383.871094 C412.710942,383.871093 379.017582,363.447266 317.556645,394.607422 Z" id="t-shirt" fill="#999999"></path>
                <path d="M217.617188,312.218753 C237.454423,330.900928 283.903952,334.339847 310.898438,334.339847 C369.440621,334.339847 413.050781,301.033194 413.050781,231.445316 C413.050781,187.317801 395.482011,121.490561 366.589844,98.984375 C349.919857,85.9989239 327.419036,87 306,87 C279.389522,87 242.578728,95.1085855 223.964844,114.359375 C201.62879,137.459695 166.855468,148.523916 166.855468,186.480472 C166.855468,223.980566 194.433967,290.38542 217.617188,312.218753 Z" id="head" fill="#DADADA"></path>
                <path d="M293.265625,327.3125 C293.265625,327.3125 303.640625,349.738281 303.640625,367.046875 C303.640625,384.355469 302.152344,396.523438 295.359375,396.523438 C288.566406,396.523438 282.519531,400.011719 282.519531,400.011719 C282.519531,400.011719 290.546875,416.621094 314.972656,431.578125 C339.398438,446.535156 345.378906,452.328125 359.847656,452.328125 C374.316406,452.328125 387.179688,447.652344 392.414062,435.578125 C397.648438,423.503906 393.855469,398.617188 393.855469,388.542969 C393.855469,378.46875 381.621094,377.421875 381.621094,377.421875 C381.621094,377.421875 366.152344,383.3125 359.964844,369.492188 C353.777344,355.671875 346.636719,327.058594 355.871094,310.449219 C365.105469,293.839844 293.265625,327.3125 293.265625,327.3125 Z" id="neck" fill="#DADADA"></path>
                <path d="M221.222656,249.123052 C226.808594,240.095708 234.527341,214.277349 234.527341,214.277349 C234.527341,214.277349 238.660156,195.21875 225.378906,189.425781 C212.097656,183.632812 202.660156,185.84375 210.402344,161.394531 C218.144531,136.945312 232.941406,109.125 244.363281,109.125 C255.785157,109.125 288.048831,108.425779 304.470703,108.425779 C320.892575,108.425779 321.035159,102.9375 321.035156,96.75 C324.126953,92.9960953 339.050777,86.6679703 349.613281,92.9960953 C360.175786,99.3242203 370.460933,100.097654 375.601563,108.425779 C378.671875,108.425779 370.496089,87.998048 361.515625,78.2753922 C352.535161,68.5527364 333.384273,45.4531255 310.867188,45.453125 C288.350102,45.4531245 273.199219,38.4765625 241.800781,51.3398437 C210.402344,64.203125 184.546874,81.5390648 174.128906,103.03125 C163.710938,124.523435 157.386719,148.999998 157.386719,189.425787 C157.386719,229.851575 170.929688,253.214844 180.953125,267.101568 C190.976562,280.988292 197.230469,286.558599 197.230469,286.558599 C197.230469,286.558599 200.342785,265.536133 200.342774,259.161138 C200.342769,256.58861 198.894531,254.288091 194.008789,254.288091 C189.123047,254.288091 187.092091,246.486692 186.349609,240.793951 C185.076172,231.030279 187.016486,222.271487 192.070313,222.27149 C201.890626,222.271495 204.249024,224.900396 208.988281,231.030279 C213.727539,237.160162 215.636719,258.150396 221.222656,249.123052 Z" id="hairs" fill="#333333"></path>
            </g>
        </g>
    </g>
</svg>