<?xml version="1.0" encoding="UTF-8" standalone="no"?>
<svg width="458px" height="907px" viewBox="0 0 458 907" version="1.1" xmlns="http://www.w3.org/2000/svg" xmlns:xlink="http://www.w3.org/1999/xlink" xmlns:sketch="http://www.bohemiancoding.com/sketch/ns">
    <!-- Generator: Sketch 3.1 (8751) - http://www.bohemiancoding.com/sketch -->
    <title>no-mobile-shape-1</title>
    <desc>Created with Sketch.</desc>
    <defs></defs>
    <g id="Page-1" stroke="none" stroke-width="1" fill="none" fill-rule="evenodd" sketch:type="MSPage">
        <g id="no-mobile" sketch:type="MSLayerGroup" transform="translate(-109.000000, -54.000000)">
            <g id="no-mobile-shape-1" sketch:type="MSShapeGroup">
                <rect id="bg-1" x="0" y="0" width="700" height="1000"></rect>
                <path d="M269.328125,414.250001 C333.945441,414.250001 394.65625,352.349295 394.65625,279.999993 C394.65625,246.936072 400.375,216.507812 369.8125,172.210938 C339.25,127.914063 304.415069,127.914063 269.328125,127.914063 C204.710809,127.914063 144,207.650698 144,280 C144,352.349302 204.710809,414.250001 269.328125,414.250001 Z" id="head" fill="#DADADA"></path>
                <path d="M109.015625,323.066392 C109.015625,323.066392 265.277338,242.51173 280.85351,195.755863 C296.429682,148.999996 325.82226,86.6269531 325.82226,86.6269531 C325.82226,86.6269531 320.570312,72.734375 289.914062,64.359375 C259.257812,55.984375 215.281247,47.796875 192.624997,64.359375 C169.968747,80.921875 93.7695325,125.648444 114.082032,206.839848 C134.394531,288.031251 109.015625,323.066392 109.015625,323.066392 Z" id="hairs-1" fill="#333333"></path>
                <path d="M282.357422,196.869144 C282.357422,196.869144 313.28125,244.929688 336.734375,256.609375 C360.1875,268.289062 380.929688,266.18359 392.328125,266.18359 C403.726563,266.18359 423.726563,243.128903 423.726563,243.128903 C423.726563,243.128903 413.558594,232.312496 413.558594,205.187496 C413.558594,178.062496 422.054687,139.921875 392.328125,112.195313 C362.601562,84.46875 347.642579,82.3554688 343.8125,82.3554688 C339.982422,82.3554689 336.246094,62.8867204 311.074219,121.089845 C285.902344,179.29297 282.357422,196.869144 282.357422,196.869144 Z" id="hairs-2" fill="#333333"></path>
                <path d="M326.257812,393.835938 C326.257812,393.835938 342.820312,411.476563 334.539062,428.734375 C326.257812,445.992188 308.203125,425.9375 308.203125,425.9375 C308.203125,425.9375 312.390625,453.617188 312.390625,497.726563 C312.390625,541.835938 331.234375,621.109375 331.234375,668.289062 C331.234375,715.46875 315.1875,907.203125 315.1875,907.203125 C315.1875,907.203125 459.234375,949.78125 496.921875,940.007812 C534.609375,930.234375 548.984375,921.257812 548.984375,921.257812 C548.984375,921.257812 513.296875,674.015625 513.296875,595.804688 C513.296875,517.59375 516.5,471.8125 493.148438,454.554688 C469.796875,437.296875 407.078125,417.242188 407.078125,417.242188 C407.078125,417.242188 388.083984,410.209961 383.023438,398.398438 C377.962891,386.586914 365.859375,343.734375 365.859375,343.734375 L326.257812,393.835938 Z" id="body" fill="#DADADA"></path>
                <path d="M299.828125,572.130859 C296.553518,571.032879 284.21875,638.852922 284.21875,638.852922 C284.21875,638.852922 279.257324,659.913575 276.576172,663.328127 C273.89502,666.742679 297.734684,714.032392 305.507813,703.816405 C308.905762,699.350583 342.93457,659.611328 342.93457,659.611328 C342.93457,659.611328 310.613089,575.747072 299.828125,572.130859 Z" id="right-arm" fill="#DADADA"></path>
                <path d="M310.988281,418.476563 C310.988281,418.476563 358.440001,408.969959 409.578125,418.567383 C414.564106,419.503134 425.630686,423.618406 430.574219,425.072266 C487.050781,441.681641 494.117188,437.13672 501.539063,458.816406 C508.960938,480.496092 562.257813,617.050781 562.257813,617.050781 C562.257813,617.050781 574.492188,624.128908 558.164063,630.964844 C541.835938,637.80078 535.55078,649.29981 501.539061,649.299809 C467.527342,649.299807 490.799803,660.645512 490.799803,660.645512 L518.015625,668.414062 C518.015625,668.414062 535.367188,728.210939 542,760.171875 C548.632813,792.132811 558.402344,897.308595 558.402344,914.824219 C558.402344,932.339842 566.875,935.132814 542.445313,940.667969 C518.015625,946.203124 414.214844,975.808595 351.335938,948.890625 C288.457031,921.972655 292.507813,922.488283 298.484375,907.667969 C304.460938,892.847655 315.234375,836.222658 315.234375,820.40625 C315.234375,804.589842 317.328125,740.82422 317.328125,727.308594 C317.328125,713.792967 322.871094,612.437501 316.929688,597.875 C310.988281,583.312499 287.109375,585.714849 281.574219,578.875004 C276.039062,572.035159 281.574219,540.878908 281.574219,540.878906 C281.574219,540.878905 285.0625,474.816406 289.109375,458.902344 C293.15625,442.988282 295.52832,427.785156 295.52832,427.785156 L301.861328,420.539063 L308.416016,418.567383" id="t-shirt" fill="#999999"></path>
                <path d="M478.641588,650.073241 L499.406246,700.464844 C499.406246,700.464844 493.369137,702.488281 461.662106,689.425781 C429.955074,676.363281 331.792969,666.066406 313.148438,658.041016 C294.503906,650.015625 277.940429,677.391602 296.027345,687.238281 C314.11426,697.08496 390.741205,718.33886 401.361324,724.333984 C411.981444,730.329108 466.33984,742.371094 481.40234,747.121094 C496.46484,751.871094 501.572265,753.688477 509.15625,757.474609 C516.740234,761.260742 531.011719,761.115234 531.011719,761.115234 C531.011719,761.115234 548.087904,762.447259 548.08789,740.027344 C548.087877,717.607429 552.302734,677.472656 548.08789,658.041016 C543.873047,638.609375 543.873047,631.927734 543.873047,631.927734 L478.641588,650.073241 Z" id="left-arm" fill="#DADADA"></path>
                <path d="M336.797851,415.062012 C336.797851,415.062012 327.644531,434.294922 327.644531,449.777344 C327.644531,465.259766 325.65625,483.357422 332.238281,486.998047 C338.820313,490.638672 356.142578,486.800781 377.486328,460.525391 C398.830078,434.25 416.306396,427.214355 416.306396,420.456543 C416.306396,419.456543 387.115234,411.042969 387.115234,411.042969 L336.797851,415.062012 Z" id="neck" fill="#DADADA"></path>
                <path d="M279.02832,657.723633 C279.02832,657.723633 253.804687,707.21289 280.310547,709.283203 C306.816406,711.353515 441.433592,706.466797 453.449219,706.466797 C465.464846,706.466797 496.265625,700.582031 496.265625,700.582031 C496.265625,700.582031 486.925779,677.447266 470.1875,673.457031 C453.449221,669.466797 444.619139,665.015625 433.826172,669.236328 C423.033205,673.457031 432.361326,677.564453 382.601563,677.564453 C332.841799,677.564454 279.02832,657.723633 279.02832,657.723633 Z" id="right-arm-2" fill="#DADADA"></path>
            </g>
        </g>
    </g>
</svg>