<?xml version="1.0" encoding="UTF-8" standalone="no"?>
<svg width="435px" height="823px" viewBox="0 0 435 823" version="1.1" xmlns="http://www.w3.org/2000/svg" xmlns:xlink="http://www.w3.org/1999/xlink" xmlns:sketch="http://www.bohemiancoding.com/sketch/ns">
    <!-- Generator: Sketch 3.1 (8751) - http://www.bohemiancoding.com/sketch -->
    <title>no-mobile-shape-4</title>
    <desc>Created with Sketch.</desc>
    <defs></defs>
    <g id="Page-1" stroke="none" stroke-width="1" fill="none" fill-rule="evenodd" sketch:type="MSPage">
        <g id="no-mobile" sketch:type="MSLayerGroup" transform="translate(-1702.000000, -124.000000)">
            <g id="no-mobile-shape-4" transform="translate(1560.000000, 0.000000)" sketch:type="MSShapeGroup">
                <rect id="bg-4" x="0" y="0" width="700" height="1000"></rect>
                <path d="M232.203125,415.902344 L437.339844,420.488281 L457.582031,374.425781 L432.457031,285.535156 L238.484375,256.222656 L220.339844,348.160156 L232.203125,415.902344 Z" id="hairs-back" fill="#222222"></path>
                <path d="M143.261719,639.560547 C143.261719,639.560547 171.271484,693.253906 173.711914,701.058594 C176.152344,708.863281 189.117931,739.853516 183.089741,760.371094 C180.689261,768.541379 177.796875,802.591797 171.271484,828.890625 C164.746094,855.189453 150.669922,918.279297 150.669922,918.279297 L177.388672,918.279297 C177.388672,918.279297 190.228516,869.019531 197.246094,844.09375 C204.263672,819.167969 214.23156,773.740579 218.84668,760.371094 C227.256836,736.007813 226.550781,729.953125 225.242188,725.080078 C223.933594,720.207031 219.893555,711.420898 218.84668,704.814453 C217.799805,698.208008 200.834473,649.436036 197.246094,639.560547 C193.657715,629.685058 194.603027,618.881348 194.603027,618.881348 C194.603027,618.881348 192.060547,620.804688 190.228516,622.188477 C188.396484,623.572266 177.644035,630.835938 173.711914,633.342773 C169.779793,635.849609 158.850586,631.795898 154.958984,633.342773 C151.067383,634.889648 143.261719,639.560547 143.261719,639.560547 Z" id="right-arm" fill="#DADADA" transform="translate(184.500000, 768.500000) scale(-1, 1) translate(-184.500000, -768.500000) "></path>
                <path d="M496.261719,634.560547 C496.261719,634.560547 521.271484,691.162109 523.711914,698.966797 C526.152344,706.771484 542.246094,735.511719 542.246094,763.617188 C542.246094,775.550361 536.089741,818.667969 534.089741,836.615234 C532.089741,854.5625 516.25,921.433594 516.25,921.433594 L543.603027,921.433594 C543.603027,921.433594 558.181641,868.835938 562.242188,845.130859 C566.302734,821.425781 572.256432,783.348616 574.242188,763.617188 C576.886719,737.339844 575.550781,729.953125 574.242187,725.080078 C572.933594,720.207031 568.893555,711.420898 567.84668,704.814453 C566.799805,698.208008 553.834473,644.436036 550.246094,634.560547 C546.657715,624.685058 547.603027,613.881348 547.603027,613.881348 C547.603027,613.881348 545.060547,615.804688 543.228516,617.188477 C541.396484,618.572266 530.644035,625.835938 526.711914,628.342773 C522.779793,630.849609 511.850586,626.795898 507.958984,628.342773 C504.067383,629.889648 496.261719,634.560547 496.261719,634.560547 Z" id="left-arm" fill="#DADADA"></path>
                <path d="M273.296875,408.519531 C273.296875,408.519531 238.050781,421.03125 223.488281,430.851563 C208.925781,440.671875 205.601562,443.066406 200.808594,452.929688 C196.015625,462.792969 163.125,608.816406 158.585937,622.984375 C154.046875,637.152344 147.464844,645.082031 147.464844,645.082031 C147.464844,645.082031 160.332031,654.457031 178.382812,662.484375 C196.433594,670.511719 218.71875,675.488281 224.953125,675.488281 C231.1875,675.488281 251.285156,678.980469 251.285156,678.980469 C251.285156,678.980469 238.769531,807.628906 234.582031,835.960938 C230.394531,864.292969 227.253906,905.027344 227.253906,905.027344 C227.253906,905.027344 219.832031,914.40625 239.375,924.523438 C258.917969,934.640625 351.484375,957.320312 427.160156,940.921875 C502.835938,924.523438 514.09375,926.011719 514.09375,915.519531 C514.09375,905.027344 503.765625,860.199219 503.765625,832.5625 C503.765625,804.925781 491.25,678.441406 491.25,678.441406 C491.25,678.441406 504.554687,675.648438 519.375,669.066406 C534.195312,662.484375 546.6875,659.996094 557.015625,655.203125 C567.34375,650.410156 576.066406,646.109375 576.066406,646.109375 C576.066406,646.109375 552.085938,574.367188 545.105469,559.804688 C538.125,545.242188 520.421875,469.472656 520.421875,459.144531 C520.421875,448.816406 510.09375,437.046875 503.464844,431.859375 C496.835938,426.671875 460.765625,398.285156 437.855469,398.285156 C414.945312,398.285156 273.296875,408.519531 273.296875,408.519531 Z" id="t-shirt" fill="#999999"></path>
                <ellipse id="head" fill="#DADADA" cx="341" cy="319" rx="109" ry="99"></ellipse>
                <path d="M288.113281,404.121094 L272.15625,407.960938 C272.15625,407.960938 272.949219,427.804688 289,448.996094 C305.050781,470.1875 326.589844,485.285156 337.664062,491.078125 C348.738281,496.871094 370.682103,485.963465 383.539062,472.933594 C390.074219,466.310547 413.457031,433.453125 413.457031,416.496094 C413.457031,399.539062 405.285156,389.769531 390.074219,389.769531 C374.863281,389.769531 288.113281,404.121094 288.113281,404.121094 Z" id="neck" fill="#DADADA"></path>
                <path d="M199.796875,426.964844 C199.796875,426.964844 207.949219,445.785156 250.277344,452.613281 C292.605469,459.441406 299.910156,460.859375 299.910156,460.859375 C299.910156,460.859375 263.246094,420.382812 263.246094,393.908203 C263.246094,367.433594 268.654297,345.298828 272.841797,339.564453 C277.029297,333.830078 346.576172,288.583984 346.576172,288.583984 L394.685547,308.625 C394.685547,308.625 415.099609,329.583984 417.890625,355.535156 C420.681641,381.486328 427.613281,393.550781 416.667969,423.082031 C405.722656,452.613281 397.371094,461.605469 397.371094,461.605469 C397.371094,461.605469 421.798828,465.546875 447.923828,457.021484 C474.048828,448.496094 491.958984,435.771484 491.958984,435.771484 C491.958984,435.771484 500.833984,353.359375 497.716797,302.658203 C494.599609,251.957031 486.726562,200.714844 456.716797,174.857422 C426.707031,149 374.794922,124.353516 359.185547,124.353516 C343.576172,124.353516 331.015625,129.738281 328.816406,129.738281 C326.617188,129.738281 321.927734,130.34375 309.460938,130.34375 C296.994141,130.34375 286.175781,126.576172 272.066406,134.205078 C257.957031,141.833984 226.876953,154.769531 209.603516,201.482422 C192.330078,248.195312 179.304687,346.542969 199.796875,426.964844 Z" id="hairs" fill="#333333"></path>
                <path d="M268.242188,274.251953 L272.580078,347.207031 C272.580078,347.207031 312.90625,353.488281 334.623047,353.488281 C356.339844,353.488281 378.3125,351.720703 391.78125,348.080078 C405.25,344.439453 411.263672,341.542969 411.263672,341.542969 L417.439453,261.306641 L268.242188,274.251953 Z" id="hairs-2" fill="#333333"></path>
            </g>
        </g>
    </g>
</svg>