<?xml version="1.0" encoding="UTF-8" standalone="no"?>
<svg width="478px" height="868px" viewBox="0 0 478 868" version="1.1" xmlns="http://www.w3.org/2000/svg" xmlns:xlink="http://www.w3.org/1999/xlink" xmlns:sketch="http://www.bohemiancoding.com/sketch/ns">
    <!-- Generator: Sketch 3.1 (8751) - http://www.bohemiancoding.com/sketch -->
    <title>no-mobile-shape-2</title>
    <desc>Created with Sketch.</desc>
    <defs></defs>
    <g id="Page-1" stroke="none" stroke-width="1" fill="none" fill-rule="evenodd" sketch:type="MSPage">
        <g id="no-mobile" sketch:type="MSLayerGroup" transform="translate(-682.000000, -130.000000)">
            <g id="no-mobile-shape-2" transform="translate(560.000000, 0.000000)" sketch:type="MSShapeGroup">
                <rect id="bg-2" x="0" y="0" width="700" height="1000"></rect>
                <path d="M281.53125,392.265625 C299.08169,400.813993 325.645287,403.992188 346.550781,403.992188 C419.176226,403.992188 473,342.020875 473,270.5 C473,238.95946 462.240641,205.216114 443.210938,182.753906 C419.089159,154.281134 382.097792,134.042969 341.5,134.042969 C268.874555,134.042969 210,198.979125 210,270.5 C210,321.433335 238.111664,371.117062 281.53125,392.265625 Z" id="head" fill="#DADADA"></path>
                <path d="M142.265625,720.052734 C142.265625,720.052734 165.777344,780.078125 165.777344,786.914062 C165.777344,793.552272 178.208357,824.992437 173.853516,843.545898 C169.777344,860.912109 165.147461,888.90332 136.277344,937.472656 C128.715894,950.193582 123.15625,951.988281 123.15625,951.988281 C123.15625,951.988281 127.089376,964.992188 137.023438,976.066406 C146.957499,987.140625 164.751953,976.066406 164.751953,976.066406 C164.751953,976.066406 180.673828,954.038086 188.588867,942.168945 C196.503906,930.299805 220.623047,870.677734 229.033203,846.314453 C237.443359,821.951172 235.378906,814.488281 234.070312,809.615234 C232.761719,804.742188 227.893555,794.420898 226.84668,787.814453 C225.799805,781.208008 213.719727,722.186525 210.131348,712.311036 C206.542969,702.435547 202.603027,695.881348 202.603027,695.881348 C202.603027,695.881348 200.060547,697.804688 198.228516,699.188477 C196.396484,700.572266 185.644035,707.835938 181.711914,710.342773 C177.779793,712.849609 166.850586,708.795898 162.958984,710.342773 C159.067383,711.889648 142.265625,720.052734 142.265625,720.052734 Z" id="right-arm" fill="#DADADA" transform="translate(179.000000, 838.500000) scale(-1, 1) translate(-179.000000, -838.500000) "></path>
                <path d="M287.416011,457.852539 C287.416011,457.852539 254.361328,474.691406 243.335937,480.425781 C232.310547,486.160156 199.507812,504.957031 199.507812,504.957031 C199.507812,504.957031 195.669922,506.830078 193.099609,513.785156 C190.529297,520.740234 170.939453,604.013672 167.671875,610.375 C164.404297,616.736328 161.306641,639.355469 158.933594,639.355469 C156.560547,639.355469 152.445313,641.298828 155.689453,645.892578 C158.933594,650.486328 158.609375,654.603516 155.166016,654.603516 C151.722656,654.603516 157.669923,659.173828 154.378906,663.640625 C151.08789,668.107422 143.929688,673.183594 143.929688,673.183594 C143.929688,673.183594 135.410156,680.109375 143.929688,686.601562 C152.44922,693.09375 171.386718,711.583984 192.777344,717.515625 C214.167969,723.447266 215.435546,721.273438 219.925781,723.970703 C224.416016,726.667969 230.277343,725.470703 230.277344,725.470703 C230.277344,725.470703 238.708984,708.408203 238.708984,708.408203 C238.708984,708.408203 235.568359,742.779297 235.568359,748.966797 C235.56836,755.154297 224.466796,801.873047 224.466797,812.271484 C224.466797,822.669922 224.292968,848.0625 224.292969,866.091797 C224.292969,884.121094 209.656883,931.564453 206.693359,936.775391 C203.729836,941.986328 194.423828,940.345703 198.041016,946.603516 C201.658204,952.861328 211.763671,959.933594 225.236328,963.027344 C238.708985,966.121094 316.083999,984.589844 364.796875,981.296875 C413.509751,978.003906 477.132827,958.556641 485.658203,954.462891 C494.183579,950.369141 517.238266,940.25 517.238281,940.25 C517.238297,940.25 506.07228,931.677734 502.582031,922.873047 C499.091782,914.068359 478.3535,798.912109 478.353516,781.464844 C478.353531,764.017578 480.271499,755.771484 480.271484,746.466797 C480.27147,737.162109 477.876953,735.242188 477.876953,735.242188 C477.876953,735.242188 481.865249,740.232422 487.576172,740.232422 C493.287095,740.232422 523.917984,731.191406 544.166016,717.630859 C564.414048,704.070312 571.417984,696.779297 573.964844,692.101562 C576.511704,687.423828 573.148452,684.703125 568.833984,680.109375 C564.519516,675.515625 538.332046,596.701172 531.703125,581.068359 C525.074204,565.435547 499.060562,502.228516 493.318359,495.017578 C487.576157,487.806641 488.025405,485.339844 476.650391,481.525391 C465.275376,477.710938 442.047877,464.573242 430.672862,461.356445 C419.297847,458.139648 418.970703,466.892578 418.970703,466.892578 L287.416011,457.852539 Z" id="t-shirt" fill="#999999"></path>
                <path d="M316.097656,392.125 C316.097656,392.125 329.429688,416.046875 319.890625,433.210938 C310.351562,450.375 296.445312,459.355469 290.953125,459.355469 C285.460938,459.355469 287.445312,482.871094 294.328125,492.457031 C301.210938,502.042969 315.692383,516.979494 326.766602,525.260744 C337.840821,533.541994 357.766602,533.70508 361.976563,533.70508 C366.186524,533.70508 371.602539,534.251955 385.78711,529.110354 C399.97168,523.968752 415.413599,505.613795 420.160156,499.902344 C426.347656,492.457031 428.316984,478.13315 426.470947,467.337648 C426.133789,465.365969 425.202149,462.832529 425.202149,462.832529 C425.202149,462.832529 400.831386,460.293034 395.269531,449.632812 C389.175781,437.953125 388.476562,419.484375 388.476562,399.640625 C388.476563,379.796875 316.097656,392.125 316.097656,392.125 Z" id="neck" fill="#DADADA"></path>
                <path d="M511.660156,732.825195 C511.660156,732.825195 530.777344,787.078125 530.777344,793.914062 C530.777344,800.552272 539.208357,833.992437 534.853516,852.545898 C530.777344,869.912109 526.147461,897.90332 497.277344,946.472656 C489.715894,959.193582 484.15625,960.988281 484.15625,960.988281 C484.15625,960.988281 488.089376,973.992188 498.023438,985.066406 C507.957499,996.140625 509.732422,997.59668 509.732422,997.59668 C509.732422,997.59668 541.673828,963.038086 549.588867,951.168945 C557.503906,939.299805 581.623047,879.677734 590.033203,855.314453 C598.443359,830.951172 600.378906,821.488281 599.070312,816.615234 C597.761719,811.742188 592.893555,801.420898 591.84668,794.814453 C590.799805,788.208008 578.719727,729.186525 575.131348,719.311036 C571.542969,709.435547 567.603027,702.881348 567.603027,702.881348 C567.603027,702.881348 565.060547,704.804688 563.228516,706.188477 C561.396484,707.572266 550.644035,714.835938 546.711914,717.342773 C542.779793,719.849609 535.720703,723.461914 531.829102,725.008789 C527.9375,726.555664 511.660156,732.825195 511.660156,732.825195 Z" id="left-arm" fill="#DADADA"></path>
                <g id="hairs" transform="translate(244.000000, 131.000000)" stroke="#979797">
                    <path d="M13.5,38.5 L13.5,32.5" id="Line" stroke-linecap="round" stroke-linejoin="round"></path>
                    <path d="M16.5,36.5 L16.5,30.5" id="Line-2" stroke-linecap="round" stroke-linejoin="round"></path>
                    <path d="M18.5,37.5 L18.5,31.5" id="Line-3" stroke-linecap="round" stroke-linejoin="round"></path>
                    <path d="M28.5,37.5 L28.5,31.5" id="Line-4" stroke-linecap="round" stroke-linejoin="round"></path>
                    <path d="M31.5,27.5 L31.5,21.5" id="Line-5" stroke-linecap="round" stroke-linejoin="round"></path>
                    <path d="M33.5,37.5 L33.5,31.5" id="Line-6" stroke-linecap="round" stroke-linejoin="round"></path>
                    <path d="M23.5,32.5 L23.5,26.5" id="Line-7" stroke-linecap="round" stroke-linejoin="round"></path>
                    <path d="M25.5,31.5 L25.5,25.5" id="Line-2" stroke-linecap="round" stroke-linejoin="round"></path>
                    <path d="M28.5,29.5 L28.5,23.5" id="Line-3" stroke-linecap="round" stroke-linejoin="round"></path>
                    <path d="M30.5,30.5 L30.5,24.5" id="Line-4" stroke-linecap="round" stroke-linejoin="round"></path>
                    <path d="M40.5,30.5 L40.5,24.5" id="Line-5" stroke-linecap="round" stroke-linejoin="round"></path>
                    <path d="M43.5,20.5 L43.5,14.5" id="Line-6" stroke-linecap="round" stroke-linejoin="round"></path>
                    <path d="M45.5,30.5 L45.5,24.5" id="Line-7" stroke-linecap="round" stroke-linejoin="round"></path>
                    <path d="M35.5,25.5 L35.5,19.5" id="Line-8" stroke-linecap="round" stroke-linejoin="round"></path>
                    <path d="M49.5,24.5 L49.5,18.5" id="Line-3" stroke-linecap="round" stroke-linejoin="round"></path>
                    <path d="M52.5,22.5 L52.5,16.5" id="Line-4" stroke-linecap="round" stroke-linejoin="round"></path>
                    <path d="M54.5,23.5 L54.5,17.5" id="Line-5" stroke-linecap="round" stroke-linejoin="round"></path>
                    <path d="M64.5,23.5 L64.5,17.5" id="Line-6" stroke-linecap="round" stroke-linejoin="round"></path>
                    <path d="M67.5,13.5 L67.5,7.5" id="Line-7" stroke-linecap="round" stroke-linejoin="round"></path>
                    <path d="M69.5,23.5 L69.5,17.5" id="Line-8" stroke-linecap="round" stroke-linejoin="round"></path>
                    <path d="M59.5,18.5 L59.5,12.5" id="Line-9" stroke-linecap="round" stroke-linejoin="round"></path>
                    <path d="M113.5,22.5 L113.5,16.5" id="Line-4" stroke-linecap="round" stroke-linejoin="round"></path>
                    <path d="M116.5,20.5 L116.5,14.5" id="Line-5" stroke-linecap="round" stroke-linejoin="round"></path>
                    <path d="M118.5,21.5 L118.5,15.5" id="Line-6" stroke-linecap="round" stroke-linejoin="round"></path>
                    <path d="M128.5,21.5 L128.5,15.5" id="Line-7" stroke-linecap="round" stroke-linejoin="round"></path>
                    <path d="M131.5,11.5 L131.5,5.5" id="Line-8" stroke-linecap="round" stroke-linejoin="round"></path>
                    <path d="M133.5,21.5 L133.5,15.5" id="Line-9" stroke-linecap="round" stroke-linejoin="round"></path>
                    <path d="M123.5,16.5 L123.5,10.5" id="Line-10" stroke-linecap="round" stroke-linejoin="round"></path>
                    <path d="M127.5,31.5 L127.5,25.5" id="Line-5" stroke-linecap="round" stroke-linejoin="round"></path>
                    <path d="M130.5,29.5 L130.5,23.5" id="Line-6" stroke-linecap="round" stroke-linejoin="round"></path>
                    <path d="M132.5,30.5 L132.5,24.5" id="Line-7" stroke-linecap="round" stroke-linejoin="round"></path>
                    <path d="M142.5,30.5 L142.5,24.5" id="Line-8" stroke-linecap="round" stroke-linejoin="round"></path>
                    <path d="M145.5,20.5 L145.5,14.5" id="Line-9" stroke-linecap="round" stroke-linejoin="round"></path>
                    <path d="M147.5,30.5 L147.5,24.5" id="Line-10" stroke-linecap="round" stroke-linejoin="round"></path>
                    <path d="M137.5,25.5 L137.5,19.5" id="Line-11" stroke-linecap="round" stroke-linejoin="round"></path>
                    <path d="M147.5,41.5 L147.5,35.5" id="Line-6" stroke-linecap="round" stroke-linejoin="round"></path>
                    <path d="M150.5,39.5 L150.5,33.5" id="Line-7" stroke-linecap="round" stroke-linejoin="round"></path>
                    <path d="M152.5,40.5 L152.5,34.5" id="Line-8" stroke-linecap="round" stroke-linejoin="round"></path>
                    <path d="M162.5,40.5 L162.5,34.5" id="Line-9" stroke-linecap="round" stroke-linejoin="round"></path>
                    <path d="M165.5,30.5 L165.5,24.5" id="Line-10" stroke-linecap="round" stroke-linejoin="round"></path>
                    <path d="M167.5,40.5 L167.5,34.5" id="Line-11" stroke-linecap="round" stroke-linejoin="round"></path>
                    <path d="M157.5,35.5 L157.5,29.5" id="Line-12" stroke-linecap="round" stroke-linejoin="round"></path>
                    <path d="M193.5,83.5 L193.5,77.5" id="Line-7" stroke-linecap="round" stroke-linejoin="round"></path>
                    <path d="M196.5,81.5 L196.5,75.5" id="Line-8" stroke-linecap="round" stroke-linejoin="round"></path>
                    <path d="M198.5,82.5 L198.5,76.5" id="Line-9" stroke-linecap="round" stroke-linejoin="round"></path>
                    <path d="M208.5,82.5 L208.5,76.5" id="Line-10" stroke-linecap="round" stroke-linejoin="round"></path>
                    <path d="M211.5,72.5 L211.5,66.5" id="Line-11" stroke-linecap="round" stroke-linejoin="round"></path>
                    <path d="M213.5,82.5 L213.5,76.5" id="Line-12" stroke-linecap="round" stroke-linejoin="round"></path>
                    <path d="M203.5,77.5 L203.5,71.5" id="Line-13" stroke-linecap="round" stroke-linejoin="round"></path>
                    <path d="M201.5,101.5 L201.5,95.5" id="Line-8" stroke-linecap="round" stroke-linejoin="round"></path>
                    <path d="M204.5,99.5 L204.5,93.5" id="Line-9" stroke-linecap="round" stroke-linejoin="round"></path>
                    <path d="M206.5,100.5 L206.5,94.5" id="Line-10" stroke-linecap="round" stroke-linejoin="round"></path>
                    <path d="M216.5,100.5 L216.5,94.5" id="Line-11" stroke-linecap="round" stroke-linejoin="round"></path>
                    <path d="M219.5,90.5 L219.5,84.5" id="Line-12" stroke-linecap="round" stroke-linejoin="round"></path>
                    <path d="M221.5,100.5 L221.5,94.5" id="Line-13" stroke-linecap="round" stroke-linejoin="round"></path>
                    <path d="M211.5,95.5 L211.5,89.5" id="Line-14" stroke-linecap="round" stroke-linejoin="round"></path>
                    <path d="M75.5,6.5 L75.5,1.5" id="Line" stroke-linecap="square"></path>
                    <path d="M78.5,8.5 L78.5,3.5" id="Line-2" stroke-linecap="square"></path>
                    <path d="M72.5,10.5 L72.5,5.5" id="Line-3" stroke-linecap="square"></path>
                    <path d="M76.5,13.5 L76.5,8.5" id="Line-4" stroke-linecap="square"></path>
                    <path d="M81.5,15.5 L81.5,10.5" id="Line-5" stroke-linecap="square"></path>
                    <path d="M87.5,12.5 L87.5,7.5" id="Line-6" stroke-linecap="square"></path>
                    <path d="M90.5,7.5 L90.5,1.5" id="Line-7" stroke-linecap="square"></path>
                    <path d="M94.5,16.5 L94.5,11.5" id="Line-4" stroke-linecap="square"></path>
                    <path d="M98.5,19.5 L98.5,14.5" id="Line-5" stroke-linecap="square"></path>
                    <path d="M103.5,21.5 L103.5,16.5" id="Line-6" stroke-linecap="square"></path>
                    <path d="M109.5,18.5 L109.5,13.5" id="Line-7" stroke-linecap="square"></path>
                    <path d="M112.5,13.5 L112.5,7.5" id="Line-8" stroke-linecap="square"></path>
                    <path d="M107.5,26.5 L107.5,21.5" id="Line-5" stroke-linecap="square"></path>
                    <path d="M111.5,29.5 L111.5,24.5" id="Line-6" stroke-linecap="square"></path>
                    <path d="M116.5,31.5 L116.5,26.5" id="Line-7" stroke-linecap="square"></path>
                    <path d="M122.5,28.5 L122.5,23.5" id="Line-8" stroke-linecap="square"></path>
                    <path d="M125.5,23.5 L125.5,17.5" id="Line-9" stroke-linecap="square"></path>
                    <path d="M156.5,43.5 L156.5,38.5" id="Line-6" stroke-linecap="square"></path>
                    <path d="M160.5,46.5 L160.5,41.5" id="Line-7" stroke-linecap="square"></path>
                    <path d="M165.5,48.5 L165.5,43.5" id="Line-8" stroke-linecap="square"></path>
                    <path d="M171.5,45.5 L171.5,40.5" id="Line-9" stroke-linecap="square"></path>
                    <path d="M174.5,40.5 L174.5,34.5" id="Line-10" stroke-linecap="square"></path>
                    <path d="M176.5,54.5 L176.5,49.5" id="Line-7" stroke-linecap="square"></path>
                    <path d="M180.5,57.5 L180.5,52.5" id="Line-8" stroke-linecap="square"></path>
                    <path d="M185.5,59.5 L185.5,54.5" id="Line-9" stroke-linecap="square"></path>
                    <path d="M191.5,56.5 L191.5,51.5" id="Line-10" stroke-linecap="square"></path>
                    <path d="M194.5,51.5 L194.5,45.5" id="Line-11" stroke-linecap="square"></path>
                    <path d="M169.5,44.5 L169.5,39.5" id="Line-8" stroke-linecap="square"></path>
                    <path d="M173.5,47.5 L173.5,42.5" id="Line-9" stroke-linecap="square"></path>
                    <path d="M178.5,49.5 L178.5,44.5" id="Line-10" stroke-linecap="square"></path>
                    <path d="M184.5,46.5 L184.5,41.5" id="Line-11" stroke-linecap="square"></path>
                    <path d="M187.5,41.5 L187.5,35.5" id="Line-12" stroke-linecap="square"></path>
                    <path d="M179.5,71.5 L179.5,66.5" id="Line-9" stroke-linecap="square"></path>
                    <path d="M183.5,74.5 L183.5,69.5" id="Line-10" stroke-linecap="square"></path>
                    <path d="M188.5,76.5 L188.5,71.5" id="Line-11" stroke-linecap="square"></path>
                    <path d="M194.5,73.5 L194.5,68.5" id="Line-12" stroke-linecap="square"></path>
                    <path d="M197.5,68.5 L197.5,62.5" id="Line-13" stroke-linecap="square"></path>
                    <path d="M192.5,88.5 L192.5,83.5" id="Line-10" stroke-linecap="square"></path>
                    <path d="M196.5,91.5 L196.5,86.5" id="Line-11" stroke-linecap="square"></path>
                    <path d="M201.5,93.5 L201.5,88.5" id="Line-12" stroke-linecap="square"></path>
                    <path d="M207.5,90.5 L207.5,85.5" id="Line-13" stroke-linecap="square"></path>
                    <path d="M210.5,85.5 L210.5,79.5" id="Line-14" stroke-linecap="square"></path>
                    <path d="M56.5,28.5 L56.5,23.5" id="Line-11" stroke-linecap="square"></path>
                    <path d="M60.5,31.5 L60.5,26.5" id="Line-12" stroke-linecap="square"></path>
                    <path d="M65.5,33.5 L65.5,28.5" id="Line-13" stroke-linecap="square"></path>
                    <path d="M71.5,30.5 L71.5,25.5" id="Line-14" stroke-linecap="square"></path>
                    <path d="M74.5,25.5 L74.5,19.5" id="Line-15" stroke-linecap="square"></path>
                    <path d="M104.5,5.5 L104.5,0.400980473" id="Line" stroke-linecap="square"></path>
                    <path d="M152.5,19.5 L152.5,14.5" id="Line" stroke-linecap="square"></path>
                    <path d="M157.5,22.5 L157.5,19.3377224" id="Line" stroke-linecap="square"></path>
                    <path d="M217.5,113.5 L217.5,108.5" id="Line" stroke-linecap="square"></path>
                    <path d="M213.5,111.5 L213.5,106.5" id="Line-2" stroke-linecap="square"></path>
                    <path d="M223.5,110.5 L223.5,105.5" id="Line-3" stroke-linecap="square"></path>
                    <path d="M219.5,109.5 L219.5,104.5" id="Line-4" stroke-linecap="square"></path>
                    <path d="M210.5,117.5 L210.5,112.5" id="Line-5" stroke-linecap="square"></path>
                    <path d="M193.5,61.5 L193.5,56.5" id="Line-3" stroke-linecap="square"></path>
                    <path d="M203.5,60.5 L203.5,55.5" id="Line-4" stroke-linecap="square"></path>
                    <path d="M199.5,59.5 L199.5,54.5" id="Line-5" stroke-linecap="square"></path>
                    <path d="M190.5,67.5 L190.5,62.5" id="Line-6" stroke-linecap="square"></path>
                    <path d="M80.5,27.5 L80.5,22.5" id="Line-4" stroke-linecap="square"></path>
                    <path d="M90.5,26.5 L90.5,21.5" id="Line-5" stroke-linecap="square"></path>
                    <path d="M86.5,25.5 L86.5,20.5" id="Line-6" stroke-linecap="square"></path>
                    <path d="M77.5,33.5 L77.5,28.5" id="Line-7" stroke-linecap="square"></path>
                    <path d="M95.5,27.5 L95.5,22.5" id="Line-5" stroke-linecap="square"></path>
                    <path d="M105.5,26.5 L105.5,21.5" id="Line-6" stroke-linecap="square"></path>
                    <path d="M101.5,25.5 L101.5,20.5" id="Line-7" stroke-linecap="square"></path>
                    <path d="M92.5,33.5 L92.5,28.5" id="Line-8" stroke-linecap="square"></path>
                    <path d="M4.5,46.5 L4.5,41.5" id="Line-6" stroke-linecap="square"></path>
                    <path d="M14.5,45.5 L14.5,40.5" id="Line-7" stroke-linecap="square"></path>
                    <path d="M10.5,44.5 L10.5,39.5" id="Line-8" stroke-linecap="square"></path>
                    <path d="M1.5,52.5 L1.5,47.5" id="Line-9" stroke-linecap="square"></path>
                    <path d="M55.5,12.5 L55.5,8.37689438" id="Line" stroke-linecap="square"></path>
                </g>
            </g>
        </g>
    </g>
</svg>