<?xml version="1.0" encoding="UTF-8" standalone="no"?>
<svg width="324px" height="827px" viewBox="0 0 324 827" version="1.1" xmlns="http://www.w3.org/2000/svg" xmlns:xlink="http://www.w3.org/1999/xlink" xmlns:sketch="http://www.bohemiancoding.com/sketch/ns">
    <!-- Generator: Sketch 3.1 (8751) - http://www.bohemiancoding.com/sketch -->
    <title>no-mobile-shape-3</title>
    <desc>Created with Sketch.</desc>
    <defs></defs>
    <g id="Page-1" stroke="none" stroke-width="1" fill="none" fill-rule="evenodd" sketch:type="MSPage">
        <g id="no-mobile" sketch:type="MSLayerGroup" transform="translate(-1241.000000, -139.000000)">
            <g id="no-mobile-shape-3" transform="translate(1060.000000, 0.000000)" sketch:type="MSShapeGroup">
                <rect id="bg-3" x="0" y="0" width="700" height="1000"></rect>
                <path d="M181.884766,583.011719 C181.884766,583.011719 192.693359,597.515625 216.757812,608.833984 C240.822266,620.152344 248.880859,622.419922 248.880859,622.419922 L251.456055,610.658203 L181.884766,583.011719 Z" id="hairs-back" fill="#262626"></path>
                <path d="M278.345703,387.816406 L277.322266,506.960938 L465.798828,600.304688 L477.138672,588.636719 C477.138672,588.636719 437.207031,482.755859 437.207031,458.025391 C437.207031,433.294922 463.121094,382.931641 463.121094,382.931641 L278.345703,387.816406 Z" id="hairs-back-2" fill="#222222"></path>
                <path d="M290.84375,409.074219 C311.912477,429.703147 338.460873,443.925781 369.542969,443.925781 C401.685644,443.925781 436.859654,432.233275 459.527344,409.074219 C480.481728,387.665607 490.1875,355.978513 490.1875,326 C490.1875,263.591823 440.902767,208.03125 379.046875,208.03125 C317.190983,208.03125 267.90625,263.591823 267.90625,326 C267.90625,357.048562 269.984002,388.649906 290.84375,409.074219 Z" id="head" fill="#DADADA"></path>
                <path d="M320.496094,484.546875 C320.496094,484.546875 294.373047,496.876953 289.40625,502.191406 C284.439453,507.505859 272.550781,511.484375 262.431641,557.382812 C252.3125,603.28125 237.332031,670.302734 234.888672,677.060547 C232.445313,683.818359 229.851563,688.158203 227.328125,691.181641 C224.804688,694.205078 227.888672,698.392578 231.388672,698.392578 C234.888672,698.392578 245.671876,702.904297 267.539062,702.904297 C289.406249,702.904297 296.782227,695.092773 296.782227,695.092773 L296.061523,717.90332 L257.555664,785.506836 C257.555664,785.506836 255.811523,827.904297 253.194336,847.259766 C250.577149,866.615234 242.884766,914.334961 238.886719,920.516602 C234.888672,926.698242 229.314453,928.355469 235.833984,936.881836 C242.353516,945.408203 283.969731,965.162109 326.105469,965.162109 C368.241206,965.162109 441.25977,952.861328 456.688477,947.725586 C472.117183,942.589844 486.786138,934.912109 489.803711,933.179688 C492.821284,931.447266 494.879888,929.189453 490.355469,926.398438 C485.83105,923.607422 459.485356,879.975586 456.344727,864.37207 C453.204097,848.768555 437.922856,775.936523 438.969727,742.821289 C440.016597,709.706055 449.79688,664.098633 452.227539,658.8125 C454.658198,653.526367 472.179688,649.329102 465.986323,628.339844 C459.792959,607.350586 468.730469,611.716797 468.730464,610.716797 C468.730459,609.716797 465.986323,598.060547 465.986323,598.060547 C465.986323,598.060547 454.052739,530.34375 448.643555,516.267578 C443.23437,502.191406 440.320317,485.769531 433.999023,482.378906 C427.67773,478.988281 401.750981,474.625977 397.848633,474.625977 C393.946284,474.625977 388.758789,475.672852 388.758789,475.672852 L320.496094,484.546875 Z" id="t-shirt" fill="#999999"></path>
                <path d="M330.976562,431.541016 C330.976562,431.541016 332.023438,466.705078 332.023438,471.798828 C332.023438,476.892578 322.972656,481.998047 319.03125,485.068359 C315.089844,488.138672 344.216797,528.095703 357.953125,540.785156 C371.689453,553.474609 391.054685,563.441406 397.417969,567.384766 C403.781252,571.328125 406.875,573.271484 406.875,573.271484 C406.875,573.271484 400.848635,520.312988 395.683594,500.083984 C390.351032,479.198881 390.296877,475.845703 388.822266,475.845703 C385.963455,475.845703 379.138936,471.548811 378.644531,462.910156 C378.056341,452.632812 382.312498,431.541016 382.312498,431.541016 L330.976562,431.541016 Z" id="neck" fill="#DADADA"></path>
                <path d="M247.710938,698.039062 C247.710938,698.039062 249.628906,759.490234 249.628906,762.910156 C249.628906,766.330078 250.896484,782.175781 255.013672,787.09375 C259.130859,792.011719 274.056641,792.082029 276.953125,795.001951 C279.849609,797.921873 299.923828,785.509766 307.205078,782.392578 C314.486328,779.275391 462.9375,714.843749 462.9375,714.843749 C462.9375,714.843749 459.277273,671.876241 454.589844,675.593748 C422.592292,700.970376 308.044924,732.076174 303.671875,732.076173 C298.658203,732.076173 299.785156,725.11328 299.785156,714.843748 L299.785156,694.15625 L247.710938,698.039062 Z" id="right-arm" fill="#DADADA"></path>
                <path d="M291.828125,501.164063 C291.828125,450.960938 290.246094,433.144531 302.0625,414.300781 C313.878906,395.457031 367.59766,378.107422 392.976563,356.392578 C418.355465,334.677734 440.492191,307.740234 449.041016,288.267578 C457.58984,268.794922 459.880859,265.050781 459.880859,265.050781 C459.880859,265.050781 457.414066,278.464844 461.951172,290.978516 C466.488278,303.492188 474.037113,306.958984 480.271484,312.693359 C486.505856,318.427734 489.123051,324.859375 489.123047,333.734375 C489.123043,342.609375 499.218754,323.964844 502.359375,296.269531 C505.499996,268.574219 506.873051,241.611328 497.998047,228.095703 C489.123043,214.580078 485.414066,209.345703 480.470703,209.345703 C475.52734,209.345703 473.306641,212.765625 473.306641,212.765625 C473.306641,212.765625 477.548832,203.103516 463.294922,183.783203 C449.041012,164.462891 441.37582,147.863281 419.816406,144.746094 C398.256992,141.628906 347.136719,136.070312 325.994141,142.433594 C304.851563,148.796875 241.322265,181.785156 231.724609,239.412112 C222.126953,297.039068 227.1875,340.364716 231.724609,376.817828 C236.261719,413.270941 235.557078,474.619885 224.769531,522.826159 C219.964844,544.29685 194.154297,573.34375 190.839844,576.308581 C187.525391,579.273413 181.417969,582.554675 181.417969,582.554675 C181.417969,582.554675 181.685547,585.195312 188.175781,589.335925 C194.666016,593.476538 217.708984,604.275403 231.724609,607.740234 C245.740234,611.205066 251.251953,611.205078 251.251953,611.205078 C251.251953,611.205078 281.747559,614.816907 298.430176,612.580566 C315.112793,610.344226 325.994141,603.318848 325.994141,603.318848 C325.994141,603.318848 291.828125,551.367188 291.828125,501.164063 Z" id="hairs" fill="#333333"></path>
                <path d="M465.646851,611.40271 C465.658808,611.42279 465.733358,611.834645 465.862151,612.595417 C468.017993,625.331991 485.295751,735.348391 478.800781,743.041016 C471.916016,751.195312 458.074219,745.681641 458.074219,745.681641 L311.583984,734.958984 L294.753906,734.0625 L293.660156,714.662109 C293.660156,714.662109 307.990234,700.449219 314.177734,700.449219 C320.365234,700.449219 340.234375,701.148438 347.886719,705.160156 C355.539062,709.171875 449.511719,714.185547 449.511719,714.185547 L447.117676,679.833008 L451.770508,658.869629 C451.770508,658.869629 463.733887,648.261963 464.897095,645.974854 C466.060303,643.687744 466.496338,642.238892 466.971069,639.838379 C467.445801,637.437866 466.561035,633.55127 466.561035,632.54834 C466.561035,631.54541 464.235474,623.378662 463.92041,621.149414 C463.275879,618.856079 463.540161,613.273315 465.135864,611.897827" id="left-arm" fill="#DADADA"></path>
            </g>
        </g>
    </g>
</svg>